<svg xmlns="http://www.w3.org/2000/svg" viewBox="0 0 480.5 274"><defs><style>.cls-1{fill:#2e3192;}.cls-2{fill:#fff;}</style></defs><g id="Layer_2" data-name="Layer 2"><g id="Layer_2-2" data-name="Layer 2"><rect class="cls-1" width="480.5" height="274"/><path class="cls-2" d="M48.27,133.31c-.46-15.19-.7-31.74-.81-48.65s-.1-34.21,0-51.33l41.7,62.31,10.21,15.08q2.31,3.38,4.59,6.73a21.39,21.39,0,0,0,1.39,1.92,12.13,12.13,0,0,0,2.33,2.37l.18.09c.68-1.56,1.12-2.71,1.39-3.56l.1-.3,0-.08v0h0l.05-.06.72-1.1,3-4.54,11.56-16.81c15.61-22.66,32-46.1,48.38-69.49.07,23.92.15,47.8.22,71.45,0,17.72,0,35.27,0,52.48-1.36,0-3.4-4.28-4.08,0-2,17.13-4.77,17.13-7.5,17.13-1.36,0,0-12.84-1.36-8.56,0-12.85-.68-34.27-2-21.42-1.36,4.29,0,21.42-2,25.69s-4.09-4.27-6.13,0v17.14c-1.36,4.28-4.09-4.28-4.09,0-1.36,12.85-.68,30-.68,47.1-1.36,0-2.72,4.29-3.4-4.27q-.37-36-.74-72.18-.09-9.06-.2-18.13v-1.13l0-.21-.05-.39-.09-.7a9.38,9.38,0,0,0-.4-1.77,26.49,26.49,0,0,0-1.27,2.53c-.05.13-.1.25-.13.36l-7.67,11-24.22,34.43L83.94,142.15l-5.07-7.46-.73-1.07c-.09-.13-.06-.08-.07-.09h0a.09.09,0,0,0,0,.07,2,2,0,0,0,.23.63,1.14,1.14,0,0,0,0-.41,1.64,1.64,0,0,0,0-.25l-.06,15Q78,184,77.56,219.07c-.68,17.12-3.41,4.27-5.45-8.57.68,4.28-1.36,4.28-.68,8.57-2,0-5.45-8.57-6.13-25.7v12.85c-.68,4.28-2,0-3.41,0,0-4.29,0-8.57-.68-8.57H58.49v17.13c0-4.28,0-8.56-.68-8.56H55.08c-.68-8.57.69-21.42,0-30H53c-.68,8.57,0,21.42,0,30-.68-4.29-1.36-4.29-2.72-4.29-.69-12.85,1.36-25.7-.69-38.54v12.84c-1.7-4.28-1.87-11.77-1.7-19.8.12-4,.25-8.16.36-12.11.06-2,.1-3.9.1-5.73,0-.91,0-1.81,0-2.67l0-1.28Z"/><path class="cls-2" d="M204,169.41c1.94-6.9,4.31-14.06,6.91-21.35q1.95-5.46,4-11,2.43-6.4,4.86-12.88c5-13.33,9.93-26.45,14.68-39.52s9.33-26.15,13.89-40l2.28-7c4.34,12.89,9,27.41,13.76,42.76s9.67,31.55,14.54,48q2,6.52,3.92,13l3.67,12.44,7.08,24.49c-1.31.38-4.07-1.83-3.93,1.13,1.22,11.65-1.4,12.4-4,13.15-1.31.38-2.39-8.31-2.91-5.16-2.39-8.32-7-22-5.94-13.3-.51,3.15,4,13.86,2.81,17.19s-4.72-1.64-5.89,1.69l3.19,11.1c-.52,3.14-4.73-1.65-3.93,1.13,1.08,8.69,4.92,19.59,8.1,30.67-1.31.37-1.82,3.53-4.07-1.83l-22.06-72.53-5.55-18.23L248,138.71l-.09-.28c0-.06,0,0,0,0l0,0,0-.06-.07-.11-.24-.33c-.3-.35-.47-.29-.53,0-.09.66,0,.9,0,.91a.07.07,0,0,0,.07,0l0,0c0,.07.14-.35-.26.74L245.23,144q-3.3,9-6.6,18.06-13.26,36.07-27,71.56c-4.62,10.6-4.19,1.53-3.13-7.29-.35,2.94-2.27,2.24-2.63,5.18-1.91-.7-3.12-7.29.21-18.36l-3,8.13c-1.63,2.47-1.92-.71-3.19-1.18,1-2.71,2-5.41,1.34-5.65l-2.55-.94c-1,2.71-3,8.13-4,10.83,1-2.7,2-5.41,1.35-5.65l-2.56-.94c1.35-5.64,5.61-13.3,7-19l-1.92-.7c-2.63,5.18-5,13.54-6.95,18.95.35-2.94-.29-3.18-1.57-3.65,2.34-8.35,7.24-15.77,8.3-24.59l-3,8.11C194.1,190.36,201.62,177.76,204,169.41Z"/><path class="cls-2" d="M362.23,94c2.25,24-.68,53.31,1.36,77.54.59,6.3,1.05,12.71,1.41,19.18l.13,2.44v.07h0l0,0,0,.05.06.09a2.33,2.33,0,0,0,.21.27,1.24,1.24,0,0,0,.35.28c-6.43-.49,19.87-.52,34.54-.54,0,1.36-2.41,3.4,0,4.08,9.7,2,9.7,4.75,9.7,7.48,0,1.36-7.26,0-4.84,1.37-7.27,0-19.39.71-12.11,2.06,2.42,1.36,12.11,0,14.53,2s-2.41,4.09,0,6.13l9.7,0c2.42,1.36-2.42,4.1,0,4.09,7.27,1.35,17,.66,26.65.64,0,1.37,2.43,2.72-2.42,3.41l-45.89.9-23.06.48-5.78.12-10.95.12-22.64.25-.36-36.91-.3-20.67q-.27-20.67-.37-41.32c-.13-27.51,0-54.94.69-82.12.68-9.69,3.41-2.42,5.45,4.85-.68-2.42,1.36-2.42.68-4.85,2,0,5.45,4.85,6.13,14.54V52.82c.68-2.42,2,0,3.41,0,0,2.43,0,4.85.68,4.85H352V48c0,2.42,0,4.84.68,4.84h2.73c.68,4.85-.69,12.12,0,17h2c.68-4.85,0-12.12,0-17,.68,2.43,1.36,2.43,2.72,2.43.69,7.27-1.36,14.54.69,21.8V69.79C364.27,74.63,361.55,86.75,362.23,94Z"/></g></g></svg>