<svg xmlns="http://www.w3.org/2000/svg" viewBox="0 0 247.86 107.23"><defs><style>.cls-1{fill:#fff;}</style></defs><g id="Layer_2" data-name="Layer 2"><g id="Layer_1-2" data-name="Layer 1"><g id="logo_text"><path class="cls-1" d="M87.25,94H62.62V37.17h-.23l-19,25.31L24.89,37.17h-.25V94H0V0H23.37l20,27.61L63.88,0H87.25Z"/><path class="cls-1" d="M175,94H150.38V64.19H123.47q.19,14.44,9.43,29.81l-20,13.23a90.24,90.24,0,0,1-7.85-14.54,85.43,85.43,0,0,1-5-15.9,78.18,78.18,0,0,1-1.74-16.28A75.78,75.78,0,0,1,100.09,44a64.51,64.51,0,0,1,5.62-15.49,52,52,0,0,1,9.5-13.07,47.08,47.08,0,0,1,13.41-9.67,54.07,54.07,0,0,1,14.9-4.54A119.11,119.11,0,0,1,161.33,0h12.08l5.76,21.18H159.85q-12,0-19,3.45t-9.72,7.72A59.43,59.43,0,0,0,125.88,43h24.5V24.08H175Z"/><path class="cls-1" d="M215.52,72.82h32.34L242.1,94H190.89V0h24.63Z"/></g></g></g></svg>