<svg xmlns="http://www.w3.org/2000/svg" viewBox="0 0 397.25 232.6"><defs><style>.cls-1{fill:#fff;}</style></defs><g id="Layer_2" data-name="Layer 2"><g id="Layer_2-2" data-name="Layer 2"><g id="mal"><path class="cls-1" d="M.9,107.49C.44,92.29.2,75.74.08,58.83S0,24.62.05,7.5l41.7,62.32Q46.9,77.4,52,84.89l4.59,6.73a18.91,18.91,0,0,0,1.39,1.92,11.86,11.86,0,0,0,2.33,2.37l.18.09c.68-1.56,1.11-2.7,1.39-3.56l.1-.3,0-.07V92h0l0-.06.73-1.1,3-4.54L77.3,69.49c15.62-22.66,32-46.1,48.38-69.49.08,23.92.15,47.81.23,71.45,0,17.72,0,35.27,0,52.49-1.36,0-3.4-4.29-4.09,0-2,17.12-4.76,17.12-7.49,17.12-1.36,0,0-12.84-1.36-8.56,0-12.85-.68-34.27-2-21.41-1.37,4.28,0,21.41-2,25.69s-4.09-4.28-6.13,0v17.13c-1.37,4.28-4.09-4.28-4.09,0-1.36,12.85-.68,30-.68,47.1-1.36,0-2.73,4.3-3.41-4.27q-.36-35.94-.73-72.18-.1-9.06-.2-18.13V105.3l0-.21,0-.39-.1-.7a8.5,8.5,0,0,0-.39-1.76,25.42,25.42,0,0,0-1.27,2.52,3.31,3.31,0,0,0-.13.36l-7.67,11L59.8,150.51,36.56,116.32l-5.06-7.45-.74-1.08c-.08-.13-.05-.08-.06-.09h0a.14.14,0,0,0,0,.07,1.74,1.74,0,0,0,.23.63,1,1,0,0,0,0-.41,1,1,0,0,0,0-.25l-.06,15.06q-.16,35.34-.64,70.43c-.68,17.13-3.4,4.28-5.44-8.57.68,4.28-1.37,4.28-.68,8.57-2,0-5.45-8.57-6.13-25.7v12.85c-.68,4.28-2,0-3.41,0,0-4.29,0-8.57-.68-8.57H11.12V189c0-4.28,0-8.56-.68-8.56H7.71c-.68-8.57.68-21.41,0-30h-2c-.68,8.58,0,21.42,0,30C5,176.1,4.31,176.1,2.94,176.1c-.68-12.85,1.37-25.7-.68-38.54V150.4C.56,146.12.39,138.63.56,130.6c.12-4,.24-8.16.36-12.11.06-2,.09-3.9.1-5.73,0-.91,0-1.81,0-2.67l0-1.28Z"/><path class="cls-1" d="M156.59,143.58c1.93-6.9,4.31-14.06,6.9-21.35,1.3-3.64,2.66-7.32,4-11,1.61-4.28,3.24-8.58,4.86-12.88,5-13.33,9.93-26.46,14.68-39.53s9.33-26.15,13.89-40c.75-2.31,1.5-4.63,2.28-7,4.34,12.89,9,27.41,13.76,42.77s9.66,31.55,14.54,48q2,6.51,3.92,13L239.13,128c2.39,8.28,4.76,16.47,7.07,24.49-1.3.38-4.06-1.83-3.92,1.13,1.22,11.65-1.4,12.4-4,13.16-1.31.37-2.39-8.32-2.9-5.17-2.39-8.32-7-22-5.94-13.3-.52,3.15,4,13.86,2.81,17.19s-4.72-1.64-5.89,1.7c.8,2.77,2.39,8.32,3.19,11.09-.52,3.14-4.73-1.64-3.93,1.13,1.08,8.69,4.92,19.59,8.1,30.67-1.31.37-1.82,3.53-4.07-1.83l-22.06-72.53L202,117.45l-1.39-4.56-.09-.29c0-.06,0,0,0,0v0l0-.06-.07-.1a2.74,2.74,0,0,0-.25-.34c-.29-.34-.46-.29-.53,0-.08.66,0,.9,0,.92l.07,0,0,0c0,.07.13-.35-.26.75l-1.65,4.52-6.59,18.06Q178,172.33,164.2,207.81c-4.61,10.6-4.18,1.54-3.12-7.29-.35,2.94-2.27,2.24-2.63,5.18-1.92-.7-3.12-7.29.21-18.36l-3,8.13c-1.63,2.47-1.92-.71-3.2-1.18,1-2.71,2-5.41,1.35-5.65l-2.56-.94-4,10.83c1-2.7,2-5.41,1.35-5.64l-2.56-.94c1.35-5.65,5.61-13.3,7-19l-1.92-.7c-2.63,5.18-5,13.54-7,19,.36-2.94-.28-3.18-1.56-3.65,2.34-8.35,7.24-15.77,8.3-24.59l-3,8.12C146.72,164.53,154.25,151.94,156.59,143.58Z"/><path class="cls-1" d="M314.85,68.19c2.25,24-.68,53.31,1.37,77.54.59,6.3,1,12.71,1.41,19.19l.13,2.43c0,.07,0,.08,0,.07v0l0,0,.06.09.22.28a1.3,1.3,0,0,0,.34.27c-6.42-.48,19.87-.52,34.55-.54,0,1.36-2.42,3.4,0,4.08,9.69,2,9.7,4.76,9.7,7.48,0,1.36-7.27,0-4.84,1.37-7.27,0-19.39.71-12.12,2.06,2.43,1.36,12.12,0,14.54,2s-2.41,4.09,0,6.13H370c2.42,1.36-2.42,4.09,0,4.08,7.27,1.36,17,.66,26.65.65,0,1.36,2.44,2.72-2.41,3.4l-45.89.9-23.07.48-5.77.12-10.95.13-22.65.24q-.18-18.44-.35-36.91l-.3-20.67q-.27-20.67-.38-41.32c-.12-27.51.05-54.94.7-82.12.68-9.69,3.4-2.42,5.45,4.85-.68-2.42,1.36-2.42.68-4.85,2,0,5.45,4.85,6.13,14.55V27c.68-2.42,2,0,3.4,0,0,2.43,0,4.85.69,4.85h2.72V22.15c0,2.42,0,4.84.68,4.84H308c.68,4.85-.68,12.12,0,17h2c.68-4.85,0-12.12,0-17,.68,2.43,1.36,2.43,2.72,2.43.68,7.27-1.36,14.54.68,21.81V44C316.9,48.8,314.17,60.92,314.85,68.19Z"/></g><g id="re"><path class="cls-1" d="M297.53,228.4h-1.24l-1.53-4.1a10.5,10.5,0,0,0-.5-1.12,4.39,4.39,0,0,0-.65-.91,2.92,2.92,0,0,0-.83-.61,2.59,2.59,0,0,0-1.11-.22h-5.4v7h-1.12V213h6.94a10.43,10.43,0,0,1,1.88.17,4.65,4.65,0,0,1,1.62.63,3.21,3.21,0,0,1,1.14,1.25,4.34,4.34,0,0,1,.42,2,5.19,5.19,0,0,1-.19,1.45,3.93,3.93,0,0,1-.58,1.2,3.4,3.4,0,0,1-1,.9,4.26,4.26,0,0,1-1.4.54,5.17,5.17,0,0,1,.71.65,4.33,4.33,0,0,1,.49.66,5.12,5.12,0,0,1,.37.78c.1.28.23.6.37,1Zm-11.26-8.09h5.36a10.07,10.07,0,0,0,2-.17,3.35,3.35,0,0,0,1.34-.56,2.26,2.26,0,0,0,.78-1,4.08,4.08,0,0,0,.26-1.53,2.54,2.54,0,0,0-1-2.27,5.34,5.34,0,0,0-3-.69h-5.68Z"/><path class="cls-1" d="M305.16,228.68a5.35,5.35,0,0,1-2.08-.39,4.29,4.29,0,0,1-1.59-1.13,5,5,0,0,1-1-1.81,7.56,7.56,0,0,1-.37-2.43,7.41,7.41,0,0,1,.36-2.39,5,5,0,0,1,1-1.81,4.36,4.36,0,0,1,1.53-1.13,4.85,4.85,0,0,1,2-.4,5,5,0,0,1,2,.4,4.31,4.31,0,0,1,1.54,1.13,5.32,5.32,0,0,1,1,1.81,8.09,8.09,0,0,1,.34,2.4v.25h-8.6a6.49,6.49,0,0,0,.41,1.93,4.25,4.25,0,0,0,.84,1.36,3.15,3.15,0,0,0,1.21.81,4,4,0,0,0,1.49.27,4.76,4.76,0,0,0,1.12-.13,3.74,3.74,0,0,0,1-.4,2.59,2.59,0,0,0,.76-.67,1.72,1.72,0,0,0,.37-.9h1.11a3.67,3.67,0,0,1-.55,1.38,3.73,3.73,0,0,1-1,1,4.08,4.08,0,0,1-1.31.63A5.65,5.65,0,0,1,305.16,228.68Zm3.5-6.62a4.64,4.64,0,0,0-1.27-2.81,3.45,3.45,0,0,0-2.45-.93,3.87,3.87,0,0,0-1.33.23,3.05,3.05,0,0,0-1.11.69,3.94,3.94,0,0,0-.82,1.17,5.83,5.83,0,0,0-.47,1.65Z"/><path class="cls-1" d="M319.94,226.89a6.07,6.07,0,0,1-1,.94,4.72,4.72,0,0,1-.95.55,3.37,3.37,0,0,1-.89.24,5.87,5.87,0,0,1-.82.06,3.94,3.94,0,0,1-1.82-.41,3.56,3.56,0,0,1-1.32-1.15,5.21,5.21,0,0,1-.81-1.78,8.86,8.86,0,0,1-.28-2.33,8.3,8.3,0,0,1,.33-2.43,5.61,5.61,0,0,1,.92-1.83,4,4,0,0,1,1.38-1.15,3.72,3.72,0,0,1,1.71-.41,7.31,7.31,0,0,1,.8.05,3.77,3.77,0,0,1,.85.17,5.39,5.39,0,0,1,.91.4,6.24,6.24,0,0,1,1,.72V213h1.13V228.4h-1.13Zm0-7a5.46,5.46,0,0,0-1.59-1.18,4.05,4.05,0,0,0-1.82-.4,3.25,3.25,0,0,0-1.38.29,2.88,2.88,0,0,0-1,.87,4.35,4.35,0,0,0-.67,1.47,7.93,7.93,0,0,0-.24,2.06,5.65,5.65,0,0,0,.86,3.39,2.8,2.8,0,0,0,2.39,1.15,3.3,3.3,0,0,0,1.86-.55,6.63,6.63,0,0,0,1.64-1.66Z"/><path class="cls-1" d="M329.11,228.68a5.3,5.3,0,0,1-2.07-.39,4.4,4.4,0,0,1-1.6-1.13,5.07,5.07,0,0,1-1-1.81,7.3,7.3,0,0,1-.37-2.43,7.7,7.7,0,0,1,.35-2.39,5.37,5.37,0,0,1,1-1.81,4.39,4.39,0,0,1,1.54-1.13,4.85,4.85,0,0,1,2-.4,5.09,5.09,0,0,1,2,.4,4.19,4.19,0,0,1,1.53,1.13,5,5,0,0,1,1,1.81,7.77,7.77,0,0,1,.34,2.4v.25h-8.59a6.2,6.2,0,0,0,.41,1.93,3.92,3.92,0,0,0,.84,1.36,3.15,3.15,0,0,0,1.21.81,4,4,0,0,0,1.48.27,4.84,4.84,0,0,0,1.13-.13,3.56,3.56,0,0,0,1-.4,2.63,2.63,0,0,0,.77-.67,1.72,1.72,0,0,0,.37-.9h1.11a3.84,3.84,0,0,1-.55,1.38,3.88,3.88,0,0,1-1,1,4.19,4.19,0,0,1-1.31.63A5.67,5.67,0,0,1,329.11,228.68Zm3.51-6.62a4.7,4.7,0,0,0-1.27-2.81,3.46,3.46,0,0,0-2.45-.93,3.93,3.93,0,0,0-1.34.23,3.1,3.1,0,0,0-1.1.69,3.77,3.77,0,0,0-.82,1.17,5.83,5.83,0,0,0-.47,1.65Z"/><path class="cls-1" d="M340.33,228.68q-4,0-4.38-3.23h1.14A2.16,2.16,0,0,0,338,227a4,4,0,0,0,2.32.55,4.75,4.75,0,0,0,1.31-.16,2.87,2.87,0,0,0,.93-.44,1.73,1.73,0,0,0,.56-.65,1.92,1.92,0,0,0,.18-.82,1.89,1.89,0,0,0-.14-.75,1.5,1.5,0,0,0-.54-.56,5.08,5.08,0,0,0-1.06-.49c-.44-.15-1-.32-1.71-.5s-1.12-.3-1.58-.46a4.34,4.34,0,0,1-1.16-.59,2.25,2.25,0,0,1-.71-.86,2.86,2.86,0,0,1-.24-1.24,2.53,2.53,0,0,1,.27-1.18,2.63,2.63,0,0,1,.77-.89,3.52,3.52,0,0,1,1.2-.57,5.84,5.84,0,0,1,1.56-.2,5.45,5.45,0,0,1,3,.66,2.56,2.56,0,0,1,1.12,2.06h-1.15a1.54,1.54,0,0,0-.78-1.2,4,4,0,0,0-2-.39,5.73,5.73,0,0,0-1.14.11,3.07,3.07,0,0,0-.9.34,1.54,1.54,0,0,0-.58.55,1.37,1.37,0,0,0-.21.75,1.44,1.44,0,0,0,.08.49,1.17,1.17,0,0,0,.43.52,4.61,4.61,0,0,0,1,.55,16.55,16.55,0,0,0,1.88.57,15.07,15.07,0,0,1,1.65.5,4.15,4.15,0,0,1,1.15.62,2.39,2.39,0,0,1,.69.84,2.6,2.6,0,0,1,.22,1.12,3.24,3.24,0,0,1-.29,1.35,3,3,0,0,1-.82,1.08,3.86,3.86,0,0,1-1.28.71A5.38,5.38,0,0,1,340.33,228.68Z"/><path class="cls-1" d="M348.71,228.4h-1.12V217.48h1.12Zm0-13.67H347.6V213h1.13Z"/><path class="cls-1" d="M360.69,227.75a7.62,7.62,0,0,1-.28,2.23,3.63,3.63,0,0,1-.84,1.5,3.27,3.27,0,0,1-1.4.85,6.45,6.45,0,0,1-2,.27,6.23,6.23,0,0,1-1.68-.21,4.06,4.06,0,0,1-1.28-.58,2.94,2.94,0,0,1-.84-.95,3.07,3.07,0,0,1-.34-1.28h1.13A1.69,1.69,0,0,0,354,231a4.1,4.1,0,0,0,2.17.46,5,5,0,0,0,1.48-.2,2.5,2.5,0,0,0,1.06-.67,3.11,3.11,0,0,0,.64-1.23,7.1,7.1,0,0,0,.22-1.87v-.69a7.53,7.53,0,0,1-1,1,4.3,4.3,0,0,1-.94.56,3,3,0,0,1-.86.24,7.65,7.65,0,0,1-.81.05,3.91,3.91,0,0,1-1.82-.41,3.67,3.67,0,0,1-1.33-1.15,5.61,5.61,0,0,1-.81-1.78,9.32,9.32,0,0,1-.27-2.33,8.3,8.3,0,0,1,.33-2.43,5.81,5.81,0,0,1,.91-1.83,4,4,0,0,1,1.39-1.15,3.72,3.72,0,0,1,1.71-.41,5.61,5.61,0,0,1,1.69.26,5.66,5.66,0,0,1,.92.41,5.74,5.74,0,0,1,.93.64v-1h1.12Zm-1.12-7.85a5.46,5.46,0,0,0-1.59-1.18,4.08,4.08,0,0,0-1.82-.4,3.25,3.25,0,0,0-1.38.29,2.73,2.73,0,0,0-1,.87,4.35,4.35,0,0,0-.68,1.47,8.42,8.42,0,0,0-.23,2.06,5.65,5.65,0,0,0,.85,3.39,2.83,2.83,0,0,0,2.4,1.15,3.3,3.3,0,0,0,1.86-.55,6.8,6.8,0,0,0,1.64-1.66Z"/><path class="cls-1" d="M365.43,219.1a5.4,5.4,0,0,1,1.08-1,4.46,4.46,0,0,1,1-.58,4.13,4.13,0,0,1,1-.25c.3,0,.58-.05.84-.05q3.38,0,3.37,4v7.23h-1.13v-7.13a5.67,5.67,0,0,0-.13-1.32A2.26,2.26,0,0,0,371,219a1.78,1.78,0,0,0-.79-.53,3.43,3.43,0,0,0-1.19-.18,3.39,3.39,0,0,0-1.82.55,7.74,7.74,0,0,0-1.77,1.55v8H364.3V217.48h1.13Z"/><path class="cls-1" d="M380.72,228.68a5.3,5.3,0,0,1-2.07-.39,4.32,4.32,0,0,1-1.6-1.13,5,5,0,0,1-1-1.81,7.56,7.56,0,0,1-.37-2.43,7.41,7.41,0,0,1,.36-2.39,5,5,0,0,1,1-1.81,4.36,4.36,0,0,1,1.53-1.13,4.9,4.9,0,0,1,2-.4,5,5,0,0,1,2,.4,4.31,4.31,0,0,1,1.54,1.13,5.32,5.32,0,0,1,1,1.81,8.09,8.09,0,0,1,.34,2.4v.25h-8.6a6.49,6.49,0,0,0,.41,1.93,4.1,4.1,0,0,0,.85,1.36,3,3,0,0,0,1.2.81,4,4,0,0,0,1.49.27,4.76,4.76,0,0,0,1.12-.13,3.74,3.74,0,0,0,1-.4,2.59,2.59,0,0,0,.76-.67,1.72,1.72,0,0,0,.37-.9h1.11a3.67,3.67,0,0,1-.55,1.38,3.73,3.73,0,0,1-1,1,4.08,4.08,0,0,1-1.31.63A5.65,5.65,0,0,1,380.72,228.68Zm3.51-6.62a4.71,4.71,0,0,0-1.28-2.81,3.44,3.44,0,0,0-2.44-.93,3.89,3.89,0,0,0-1.34.23,3.14,3.14,0,0,0-1.11.69,3.94,3.94,0,0,0-.82,1.17,6.17,6.17,0,0,0-.47,1.65Z"/><path class="cls-1" d="M395.5,226.89a6.07,6.07,0,0,1-1,.94,4.72,4.72,0,0,1-.95.55,3.37,3.37,0,0,1-.89.24,5.87,5.87,0,0,1-.82.06,3.94,3.94,0,0,1-1.82-.41,3.64,3.64,0,0,1-1.32-1.15,5.21,5.21,0,0,1-.81-1.78,8.86,8.86,0,0,1-.28-2.33,8.3,8.3,0,0,1,.33-2.43,5.61,5.61,0,0,1,.92-1.83,4,4,0,0,1,1.38-1.15,3.72,3.72,0,0,1,1.71-.41,7.49,7.49,0,0,1,.81.05,3.8,3.8,0,0,1,.84.17,5.06,5.06,0,0,1,.91.4,5.81,5.81,0,0,1,1,.72V213h1.13V228.4H395.5Zm0-7a5.46,5.46,0,0,0-1.59-1.18,4,4,0,0,0-1.82-.4,3.17,3.17,0,0,0-1.37.29,2.73,2.73,0,0,0-1.05.87A4.17,4.17,0,0,0,389,221a7.93,7.93,0,0,0-.24,2.06,5.65,5.65,0,0,0,.86,3.39,2.81,2.81,0,0,0,2.4,1.15,3.34,3.34,0,0,0,1.86-.55,6.78,6.78,0,0,0,1.63-1.66Z"/></g></g></g></svg>