<svg xmlns="http://www.w3.org/2000/svg" viewBox="0 0 419.65 284.44"><defs><style>.cls-1{fill:none;}.cls-2{fill:#2e3192;fill-rule:evenodd;}.cls-3{fill:#fff;}</style></defs><g id="Layer_2" data-name="Layer 2"><g id="Layer_2-2" data-name="Layer 2"><g id="mal"><path d="M23.29,107.49c-.46-15.2-.7-31.75-.82-48.66s-.09-34.21,0-51.33l41.7,62.32q5.14,7.58,10.21,15.07l4.59,6.73a21.39,21.39,0,0,0,1.39,1.92,11.86,11.86,0,0,0,2.33,2.37l.18.09c.68-1.56,1.11-2.7,1.39-3.56l.1-.3,0-.07V92h0l0-.06.73-1.1,3-4.54L99.69,69.49c15.62-22.66,32-46.1,48.38-69.49.08,23.92.15,47.81.23,71.45,0,17.72,0,35.27,0,52.49-1.36,0-3.4-4.29-4.09,0-2,17.12-4.76,17.12-7.49,17.12-1.36,0,0-12.84-1.36-8.56,0-12.85-.68-34.27-2-21.41-1.36,4.28,0,21.41-2,25.69s-4.09-4.28-6.13,0v17.13c-1.37,4.28-4.09-4.28-4.09,0-1.36,12.85-.68,30-.68,47.1-1.36,0-2.72,4.3-3.41-4.27q-.36-35.94-.73-72.18-.1-9.06-.2-18.13V105.3l0-.21,0-.39-.1-.7a8.5,8.5,0,0,0-.39-1.76,27.91,27.91,0,0,0-1.27,2.52c0,.14-.1.26-.13.36l-7.67,11L82.19,150.51,59,116.32l-5.07-7.45-.74-1.08-.06-.09h0a.14.14,0,0,0,0,.07,1.74,1.74,0,0,0,.23.63,1,1,0,0,0,0-.41,1,1,0,0,0,0-.25l-.06,15.06q-.16,35.34-.64,70.43c-.68,17.13-3.4,4.28-5.44-8.57.68,4.28-1.37,4.28-.68,8.57-2.05,0-5.45-8.57-6.13-25.7v12.85c-.68,4.28-2,0-3.41,0,0-4.29,0-8.57-.68-8.57H33.51V189c0-4.28,0-8.56-.68-8.56H30.1c-.68-8.57.68-21.41,0-30h-2c-.68,8.58,0,21.42,0,30-.68-4.29-1.36-4.29-2.73-4.29-.68-12.85,1.37-25.7-.68-38.54V150.4c-1.7-4.28-1.87-11.77-1.7-19.8.12-4,.24-8.16.36-12.11.06-2,.09-3.9.1-5.73,0-.91,0-1.81,0-2.67l0-1.28Z"/><path d="M179,143.58c1.93-6.9,4.31-14.06,6.91-21.35,1.29-3.64,2.65-7.32,4-11q2.43-6.42,4.86-12.88c5-13.33,9.93-26.46,14.68-39.53s9.33-26.15,13.89-40l2.28-7c4.34,12.89,9,27.41,13.76,42.77s9.66,31.55,14.54,48q2,6.51,3.92,13L261.52,128c2.39,8.28,4.76,16.47,7.08,24.49-1.31.38-4.07-1.83-3.93,1.13,1.22,11.65-1.4,12.4-4,13.16-1.31.37-2.39-8.32-2.9-5.17-2.39-8.32-7-22-5.94-13.3-.52,3.15,4,13.86,2.81,17.19s-4.72-1.64-5.89,1.7c.8,2.77,2.39,8.32,3.19,11.09-.52,3.14-4.73-1.64-3.93,1.13,1.08,8.69,4.92,19.59,8.1,30.67-1.31.37-1.82,3.53-4.07-1.83L230,135.68l-5.55-18.23L223,112.89l-.09-.29c0-.06,0,0,0,0v0l0-.06-.07-.1a2.74,2.74,0,0,0-.25-.34c-.29-.34-.46-.29-.53,0-.08.66,0,.9.05.92a.11.11,0,0,0,.07,0l0,0c0,.07.13-.35-.26.75l-1.64,4.52q-3.31,9-6.6,18.06-13.26,36.08-27.06,71.56c-4.61,10.6-4.18,1.54-3.12-7.29-.35,2.94-2.27,2.24-2.63,5.18-1.92-.7-3.12-7.29.21-18.36q-1.49,4.07-3,8.13c-1.63,2.47-1.92-.71-3.2-1.18,1-2.71,2-5.41,1.35-5.65l-2.55-.94-4,10.83c1-2.7,2-5.41,1.35-5.64l-2.56-.94c1.35-5.65,5.61-13.3,7-19l-1.92-.7c-2.63,5.18-5,13.54-7,19,.36-2.94-.28-3.18-1.56-3.65,2.34-8.35,7.24-15.77,8.3-24.59l-3,8.12C169.11,164.53,176.64,151.94,179,143.58Z"/><path d="M337.24,68.19c2.25,24-.68,53.31,1.37,77.54.59,6.3,1.05,12.71,1.41,19.19l.13,2.43c0,.07,0,.08,0,.07v0l0,0,.06.09.22.28a1.3,1.3,0,0,0,.34.27c-6.42-.48,19.87-.52,34.55-.54,0,1.36-2.42,3.4,0,4.08,9.69,2,9.7,4.76,9.7,7.48,0,1.36-7.27,0-4.84,1.37-7.27,0-19.39.71-12.12,2.06,2.43,1.36,12.12,0,14.54,2s-2.41,4.09,0,6.13h9.7c2.42,1.36-2.42,4.09,0,4.08,7.27,1.36,17,.66,26.65.65,0,1.36,2.44,2.72-2.41,3.4l-45.89.9-23.07.48-5.77.12-10.95.13-22.65.24q-.17-18.44-.35-36.91l-.3-20.67q-.27-20.67-.38-41.32c-.12-27.51.05-54.94.7-82.12.68-9.69,3.41-2.42,5.45,4.85-.68-2.42,1.36-2.42.68-4.85,2,0,5.45,4.85,6.13,14.55V27c.68-2.42,2,0,3.4,0,0,2.43,0,4.85.69,4.85H327V22.15c0,2.42,0,4.84.68,4.84h2.73c.68,4.85-.69,12.12,0,17h2c.68-4.85,0-12.12,0-17,.68,2.43,1.36,2.43,2.72,2.43.68,7.27-1.36,14.54.68,21.81V44C339.29,48.8,336.56,60.92,337.24,68.19Z"/></g><path class="cls-1" d="M411.77,202.05Q206,193.32,0,200.67l2.94,82.41q202.59-7.23,405.34,1.36Z"/><path class="cls-2" d="M7.69,246.57c.36.61.73.64,1.1.21C8.42,246.79,8.05,246,7.69,246.57Z"/><path class="cls-2" d="M8.67,244.91c.37-.18.74.76,1.11.21C9.41,244.9,9,244.09,8.67,244.91Z"/><path class="cls-2" d="M11.63,248.06c.39.42.4-.14,1-.3-.2-.44-.41-.35-.61-.53C11.76,247.5,11.89,247.79,11.63,248.06Z"/><path class="cls-2" d="M22.9,263l.49.7c.25-.62.49-.19.74-.66C23.72,262.41,23.31,262.4,22.9,263Z"/><path class="cls-2" d="M10.77,245.15c-.19.5.64,1.07.86.54,0-.64-.3-.22-.62-.87C11,245.07,10.94,245.33,10.77,245.15Z"/><path class="cls-2" d="M24.62,263.43c.47,0,.48.58.73,1a2,2,0,0,0-.24-1.7Z"/><path class="cls-2" d="M18.15,249.81c-.15.6.72.86,1,0C18.8,249.05,18.47,250.44,18.15,249.81Z"/><path class="cls-2" d="M29.28,265c.18.07.53-.2.36.19.25.4.5-.51.74-.66a2.07,2.07,0,0,0,1.1,1.23c0-1.37.83-1.22,1.48-1.63-.37-.06-.73.15-1.1-.55,0,.93-.21.54-.74,1a1.33,1.33,0,0,0-.24-.68c-.33.39-.66.38-1,0A2,2,0,0,0,29.28,265Z"/><path class="cls-2" d="M19.74,250.37l.5.7c0-.26.14-.73.37-.5A.45.45,0,1,0,19.74,250.37Z"/><path class="cls-2" d="M21.24,245.67c.37.21.74,0,1.11-.47C22,245.06,21.25,244.82,21.24,245.67Z"/><path class="cls-2" d="M39.56,269.08c.35.53,1,.4,1-.3C40.21,268.82,39.89,268.68,39.56,269.08Z"/><path class="cls-2" d="M24.93,246.13c.41.11.82,1,1.23.05C25.75,245.94,25.34,245.7,24.93,246.13Z"/><path class="cls-2" d="M37.79,257.65c.53.32.47-.45,1.11-.81a.78.78,0,0,1-.49-.36C38.23,257.6,37.61,256.67,37.79,257.65Z"/><path class="cls-2" d="M29.13,243.91c.15-.55-.73-.59-1-1.4C27.78,243.26,28.77,243.58,29.13,243.91Z"/><path class="cls-2" d="M33.43,245.26c.42,0,.82.27,1.24-.29-.49-.28-1-.27-1.48-.73C32.77,244.56,33.86,244.94,33.43,245.26Z"/><path class="cls-2" d="M47.32,264.8c-.16,1,.72.21,1,.38C48.45,264.33,47.57,264.94,47.32,264.8Z"/><path class="cls-2" d="M48.2,261.27c-.28-.66-.57.36-.85-.54a1.48,1.48,0,0,0,0,1.36C47.69,261.25,48.21,262.12,48.2,261.27Z"/><path class="cls-2" d="M55.23,271.4c.45.42.89.75,1.35.22C56.13,271.49,55.68,271.16,55.23,271.4Z"/><path class="cls-2" d="M30.4,235.48c.25.63.5.21.74.7.44-.43.14-.89-.24-1.36Z"/><path class="cls-2" d="M33.71,239.85c.33.73.66.55,1,.71C34.84,240.05,34,239.07,33.71,239.85Z"/><path class="cls-2" d="M33,236.09c.08.17.17.1.25,0,1,.89,2,.08,3,.79.54-.55.2-1.13.5-1.68-.56-.52-.44.56-.87.47-.46-.45-.14-.84-.61-.87,0,.93-.73.65-1.12,1.15-.28-.65-.57-.47-.86-.88C32.69,235.39,33.55,235.77,33,236.09Z"/><path class="cls-2" d="M54.09,262.86c-.26-.22.47-.6.61-.48.27-.88-.47.12-.6-.54-.51.38-.2.79-.38,1.18a4,4,0,0,0,1,.72C55,263.2,54.41,262.86,54.09,262.86Z"/><path class="cls-2" d="M24.42,220.5c.41.39.82,1.19,1.23.38C25.24,220.69,24.83,220.11,24.42,220.5Z"/><path class="cls-2" d="M24.3,219.31c-.19.59.64.63.86.2C24.88,218.57,24.59,219.58,24.3,219.31Z"/><path class="cls-2" d="M26,220.72c.33-.38.2-.78.38-1.17-.21-.17-.41,0-.62-.19A1.69,1.69,0,0,0,26,220.72Z"/><path class="cls-2" d="M55.56,262.59c0,1.05,1,.36,1.34.9C57.24,262.38,56,262.5,55.56,262.59Z"/><path class="cls-2" d="M21.49,209.55c.37.21.93-.26,1.61-1.14C22.57,208.75,22,208.64,21.49,209.55Z"/><path class="cls-2" d="M60.21,263.81c0-.56-.61-1.3-1-.73C59.23,263.6,59.85,264.58,60.21,263.81Z"/><path class="cls-2" d="M33.54,225.93c.41.67,1.81.17,1.12-.81C34.29,226,33.92,225.56,33.54,225.93Z"/><path class="cls-2" d="M42.12,237.11c.08.92,1.22,1,1.72.07-.25-.24-.13-.46,0-.68C43.28,235.68,42.69,237.65,42.12,237.11Z"/><path class="cls-2" d="M28.16,215.21c.49.84,1,.83,1.48.39C29.14,215.77,28.66,214.6,28.16,215.21Z"/><path class="cls-2" d="M62.54,264.42c.18.05.37.11.24.35.79-.74,1.55.36,2.34-.41C64,264.42,63.42,262.43,62.54,264.42Z"/><path class="cls-2" d="M39,226.81c.28.76.58-.24.87-.47a.8.8,0,0,1-.5-.36A1.44,1.44,0,0,1,39,226.81Z"/><path class="cls-2" d="M65.36,264.37c-.29.61.38.22.48.7-.22-1.05.43-.06.87-.81-.27-.91-.58.7-.85-.21C65.69,264.3,65.52,264.55,65.36,264.37Z"/><path class="cls-2" d="M66.83,264.77c.79.31,1,1.65,1.59.92-.76-.6.22-1.12-.48-1.72C67.92,265.17,67.22,264.17,66.83,264.77Z"/><path class="cls-2" d="M39.4,219.54a.74.74,0,0,0,.87-1.16C39.8,218.9,39.61,218.74,39.4,219.54Z"/><path class="cls-2" d="M71,265c.48.79,1,.16,1.47.4.24.4-.06.79-.39,1.17.86.49.82-1.2,2-.93-.24-.74-.26-.41-.72-1.05-.55.62.18.21.35.86C72.79,265.44,71.91,264.33,71,265Z"/><path class="cls-2" d="M58.73,241c.53.51,1.15-.21,1.37-.79C59.56,240.1,59,240.09,58.73,241Z"/><path class="cls-2" d="M50.83,228.63c.45.07.14.23.49.69.21-.39.08-.79.13-1.18C51.25,228,51,228.41,50.83,228.63Z"/><path class="cls-2" d="M62.17,231.14a1.22,1.22,0,0,0,1.61-.44C63.27,231,62.3,230.27,62.17,231.14Z"/><path class="cls-2" d="M54.59,211c.28.46.57.29.86.55.43-.32-.67-.71-.24-1C55,210.3,54.8,210.75,54.59,211Z"/><path class="cls-2" d="M48.22,201.55c.5.44,1,.06,1.5-.63C49.24,201.08,48.32,200.82,48.22,201.55Z"/><path class="cls-2" d="M74.94,236.79l.48.69c0-.25.08-.5.25-.32C75.9,236.65,75.13,236.19,74.94,236.79Z"/><path class="cls-2" d="M57.6,207.36c.53.58,1.08-.05,1.6.92.23-.39-.07-.8-.11-1.19.35-.31.88.33.88-.48-.29-.26-.59.51-.87-.2C58.87,207.6,58.17,206.6,57.6,207.36Z"/><path class="cls-2" d="M77.33,233c.21,0,.41.39.62.2.4-.45,0-1.2-.35-1.2C77,232.29,77.89,232.67,77.33,233Z"/><path class="cls-2" d="M64.8,207c0,.85,1.66,1.15,1.74.08C66,207.17,65.37,207.64,64.8,207Z"/><path class="cls-2" d="M63.76,201c.4.54.82.4,1.24-.29C64.59,200.86,64.17,200.54,63.76,201Z"/><path class="cls-2" d="M71,210c.42.15.82.63,1.24.05C71.79,209.79,71.38,209.54,71,210Z"/><path class="cls-2" d="M75.41,211.52c.28.31.58-.11.86.2.14-.27-.2-.57-.36-.86Z"/><path class="cls-2" d="M77.27,211.09c.32.63.66,0,1,.39C78.42,211.11,77.54,210.28,77.27,211.09Z"/><path class="cls-2" d="M95,235.36c.13-.11.07-.23,0-.34.17-.17.33.18.49.36.3-.19.17-1.19.63-.82.43-.59-.66-.23-.23-.69C95.45,234,94.29,234.54,95,235.36Z"/><path class="cls-2" d="M96.32,234.24c.16.35.33.2.5,0,.18.24.36.47.23.69.2.19.42-.26.63-.48l-.6-.88C96.82,234.2,96.58,233.77,96.32,234.24Z"/><path class="cls-2" d="M99.1,237.59c.33.24.66,0,1-.29C99.78,236.68,99.44,237.09,99.1,237.59Z"/><path class="cls-2" d="M84.05,213.62c.54.23.5-1,.27-1.34C83.7,212.24,84.15,213.13,84.05,213.62Z"/><path class="cls-2" d="M83.09,211.54c.65.31,1.57.84,1.87-.42C84.33,211.44,83.73,210.34,83.09,211.54Z"/><path class="cls-2" d="M84.92,213.49c.42-.13.82.19,1.25-.28-.41-.2-.83,0-1.24-.4C84.82,213,85.09,213.27,84.92,213.49Z"/><path class="cls-2" d="M87,216.48c1.09-.29,1.34.29.64-1.5C87.1,215.46,87.15,216,87,216.48Z"/><path class="cls-2" d="M102.81,237.43c.4.52.81.54,1.23.07C103.63,237.34,103.23,236.86,102.81,237.43Z"/><path class="cls-2" d="M108.81,239.28c1.18-.91,2.18-.07,2.87-1.38a5.58,5.58,0,0,0-2.73.53c-.12-.23.13-.44.26-.66C108.39,237.13,108.34,238.48,108.81,239.28Z"/><path class="cls-2" d="M94.44,215.14c.64.49.24-1.31.63-.82C95.12,213.21,94.23,214.74,94.44,215.14Z"/><path class="cls-2" d="M95.06,214.65c.37.24.74.22,1.13-.45C95.82,214,95.44,214.15,95.06,214.65Z"/><path class="cls-2" d="M114.51,238.22l.48.7c.24-.27.12-.55.38-.82C115.08,238.22,114.8,237.78,114.51,238.22Z"/><path class="cls-2" d="M103.28,219.29c.19-.38-.12-.8.39-1.17C103.09,217.9,102.37,219.15,103.28,219.29Z"/><path class="cls-2" d="M120.68,204.93c.59,1,1.08-.12,1.14-.79C121.44,204.13,121.06,204.58,120.68,204.93Z"/><path class="cls-2" d="M133.19,206.12c.52.67.48-.84,1.12-.1.24.65-.49.41-.64.81.49.42.92-.06,1.13-.79-.32-.07-.45-.26-.48-.7.56-.83,1.07.5,1.63-.42-.29,0-.59.15-.86-.56a1,1,0,0,1-1.73-.1C133.33,204.89,133.89,205.54,133.19,206.12Z"/><path class="cls-2" d="M137.9,206.05l.48.71c.49-.59.5-.26.77-1-.43-.61-1.16.83-.73-.38C138.1,205,138,205.9,137.9,206.05Z"/><path class="cls-2" d="M139.74,207c0-.45.44-.88.78-1.32l-.36-.52c-.13.21-.25.24-.38.14,0,.64.12.45-.39.83C139.62,206.44,139.49,206.71,139.74,207Z"/><path class="cls-2" d="M141.7,207.8c.44-.63.83-.06,1.26-.61-.52-.42-1.08.35-1.59-.6C141.12,207.33,141.54,207,141.7,207.8Z"/><path class="cls-2" d="M143.73,206.22c-.37.37-.51.76-.15,1.18a.75.75,0,0,0,.5-.31A1.49,1.49,0,0,0,143.73,206.22Z"/><path class="cls-2" d="M144.09,206.75c.23.29.1.57.35.87.25-.25.13-.72.38-.49.14-.27-.19-.58-.34-.87Z"/><path class="cls-2" d="M144.87,205.44c-.08.34.86,1.45,1.22.75C145.69,205.85,145.29,205.27,144.87,205.44Z"/><path class="cls-2" d="M152,207.55c.31-.63.59-.42.89-.8-.27-.67-.58.1-.85-.56C151.79,206.62,151.52,207.06,152,207.55Z"/><path class="cls-2" d="M155.86,207.26c.32.43.65.45,1,.07l-.47-.71Z"/><path class="cls-2" d="M158.21,207.58a11.79,11.79,0,0,0,1.48.43c.41-.37-.75-.84-.34-1.21-.3-.2-.25.27-.38.49S158.48,206.87,158.21,207.58Z"/><path class="cls-2" d="M159.88,205.82c.28.31.59-.44.87-.12,0-.64-.37-.75-.84-.9C159.68,205.12,160.21,205.5,159.88,205.82Z"/><path class="cls-2" d="M162.65,208.54c.77-.93,1.49.06,2.23.14.51-1-.89-1.23-1.18-2.12-.14,1,.05,1.05-.78,1.31-.52-.76-.43-1.29-1.08-1.26C161.71,207.57,162,207.78,162.65,208.54Z"/><path class="cls-2" d="M162.84,206.34c.53.27,1.08-.13,1.61.27C164.41,206.13,163.33,205.37,162.84,206.34Z"/><path class="cls-2" d="M165.47,205.65c.2.34.41.18.6.55.36-.48-.28-1,.17-1.52-.24-.13-.49,0-.75.3C166,205.55,166,205.14,165.47,205.65Z"/><path class="cls-2" d="M169.07,205.71c.19.44.4.36.6.55-.09-.4.23-.78-.09-1.2C169.53,205.68,169.41,205.25,169.07,205.71Z"/><path class="cls-2" d="M211.77,212c.6.59,1.23.19,1.88-.37a7.49,7.49,0,0,0-1.58-1A8.07,8.07,0,0,0,211.77,212Z"/><path class="cls-2" d="M223.9,209.61c.26.71.58-.05.86.23A.45.45,0,1,0,223.9,209.61Z"/><path class="cls-2" d="M236.48,211.22c0,.68,1,.76,1.49.12C237.48,211.05,237,211.27,236.48,211.22Z"/><path class="cls-2" d="M242.53,211.86c.61-.43,1.69-.39,1.91-1A1.64,1.64,0,0,0,242.53,211.86Z"/><path class="cls-2" d="M254.73,211.1c.43.42.91.06,1.35.27A.72.72,0,0,0,254.73,211.1Z"/><path class="cls-2" d="M267.48,214.18c.06-.4.37-.76.43-1.16-.24-.13-.5,0-.76.28C267.37,213.6,267.23,213.87,267.48,214.18Z"/><path class="cls-2" d="M307.69,273.43c.95.53,2-.93,3-.4C310.24,271.71,308.62,273,307.69,273.43Z"/><path class="cls-2" d="M310.81,272.53c.38.56.79.44,1.24-.23A1.24,1.24,0,0,0,310.81,272.53Z"/><path class="cls-2" d="M290.78,212.22a.84.84,0,0,0-.07-.86,3.49,3.49,0,0,0,2-.17,2.59,2.59,0,0,0-2.47-.21C290.68,211.42,290.51,211.8,290.78,212.22Z"/><path class="cls-2" d="M294.61,214.93c0-.51.6-1,.2-1.51C294.31,213.39,294.25,214.37,294.61,214.93Z"/><path class="cls-2" d="M293.67,211.61c-.14.28.18.59.33.89a1.7,1.7,0,0,0,.55-1C294.28,211.19,293.93,212.18,293.67,211.61Z"/><path class="cls-2" d="M323.33,209.85c.45.34.69-.41.92-.77-.24-.14-.5,0-.76.27C323.59,209.53,323.41,209.68,323.33,209.85Z"/><path class="cls-2" d="M325.32,207.82c.31.33.8-.7.81-.95C325.6,206.8,325.35,207.19,325.32,207.82Z"/><path class="cls-2" d="M327.48,209c1,.51,2.15.06,3.24,0-.2-.82.47-.61.94-1.1C330.16,207.84,329.13,208.79,327.48,209Z"/><path class="cls-2" d="M331.23,208.7c.43.49.93-.22,1.39-.39C332.19,207.94,331.73,208,331.23,208.7Z"/><path class="cls-2" d="M333.12,208.36c.49,0,1,.46,1.48.14C334.55,207.92,333.65,207.54,333.12,208.36Z"/><path class="cls-2" d="M334.4,209.67c.61.1.84.47,1.19.8.38-.69.63-.71.36-1.67C335.79,209.93,334.92,209.11,334.4,209.67Z"/><path class="cls-2" d="M335.74,200.27c-.19.75.71.44,1,.09-.18-.44-.39-.37-.58-.56C335.89,200,336,200.51,335.74,200.27Z"/><path class="cls-2" d="M341.15,207.09c-.13.1-.08.22,0,.34l.23.36c.38-.77,1.62,0,2.42-1a.45.45,0,0,1-.09-.52c-.6.4-1.18.28-1.79.85-.57-.89.32-.58.33-1.33-.25-.57-.64,1-.9.43C341.13,206.44,341.81,207.51,341.15,207.09Z"/><path class="cls-2" d="M338,200.14a2.71,2.71,0,0,0,2.41-.62A4.69,4.69,0,0,0,338,200.14Z"/><path class="cls-2" d="M344.41,206.72c.41,0,.34,1.13.92,1.12-.17-.7,0-1.09.59-1.31C345.45,206.1,344.92,206.47,344.41,206.72Z"/><path class="cls-2" d="M345.35,205.62c.56.44,1.17-.13,1.78-.51C346.3,204.77,346.12,205.33,345.35,205.62Z"/><path class="cls-2" d="M350.93,206c.17-.27-.29-.59-.07-.86-.82-.12-1.76,1.5-2.52.44C348.25,207.44,350.16,205.31,350.93,206Z"/><path class="cls-2" d="M348.14,204.87c.83.58,1.77-.43,2.68-.93C350,203.28,349,204.45,348.14,204.87Z"/><path class="cls-2" d="M350.3,202.35c-.13.9.9,0,1.26-.22C351.17,201.63,350.69,202.72,350.3,202.35Z"/><path class="cls-2" d="M350.73,203.42c.68.28,1.35.88,2.13-.31C352.11,203.84,351.48,202.65,350.73,203.42Z"/><path class="cls-2" d="M354.23,205c-.68-.86.24-1.53.7-1.12.29.69-.35.85-.7,1.12.28.84.68-.3,1,.43.31-1.49,2.06-3,2.86-3.64,0-1.2-1.74.81-1.85,1.53,0-1-.92-.28-.54-1.25-1,1-1.85,2.22-3.24,3.78C353,206.36,353.6,205.75,354.23,205Z"/><path class="cls-2" d="M357.69,203.41c-.14.27.17.58.32.88.34-.11.71-.72,1-.58.07-.28-.11-.58.18-.84-.23-.18-.48-.22-.72-.4C358.14,202.89,358.34,204,357.69,203.41Z"/><path class="cls-2" d="M359.09,204.91c.38,0,1.27-.42.7-1.13C359.29,204.13,359.41,204.54,359.09,204.91Z"/><path class="cls-2" d="M360,203c-.28.79.55.11.69.75.16-.64,0-.68.57-1C360.85,202.17,360.38,203,360,203Z"/><path class="cls-2" d="M2.26,244c-.18-.4.38-.78-.12-1.19-.2.31-.41.13-.62.49,1,.12-.4,3,.62.86,1.07.18,2.14-.1,3.2.79.48-.73.65-.46.87.2.1-.22-.16-.46,0-.68.46-.34.15.65.61.87.11-.81.36-.71,1-2-.45-.31-.9.44-1.36.81-.37-1-.74-.34-1.1-.21-.81-1.57-2-.74-2.47-1.44-.55.71.63,1.29.86,1.22C3.25,244.5,2.76,243.17,2.26,244Z"/><path class="cls-2" d="M13,250.65a2,2,0,0,0,2,.07c-.45-.36-.14-.69-.49-1C14.23,251.11,13.54,250.12,13,250.65Z"/><path class="cls-2" d="M16.05,250.92c.36,0,.49-.39.13-.84.16-.16.32.18.49.36.46-.38.32-.78.62-1.17.73,0,1.47.37,2.21-.26.9,1.75,1.81.26,2.71.77-.05,1.36-1.38.44-1.48,1.64,1.36-.49,2.19.73,3.69-.55.37.75.61,1.4,1.23.38a1.42,1.42,0,0,1-.38,1.85c.2.48.41-.07.62.19-.24-.57.55-1.11,0-1.69.86.9,1.73-.33,2.59-.08-1.13.68-1.85,1.39-2.1,1.45.37,1.24,1.8-.45,2.59-.75.05.88.9.66,1.35.56.1-.23-.16-.46,0-.68s.25,0,.37-.16c0,.29-.16.56.12.85,1,.06,2.05-.6,3.08-.72.07.17,0,.34.12.51-1.1.31-1.46.9-2.47,1.26.86.8,1.72.16,2.58.61.29-.61-.38-.21-.49-.7.21-.42.41-.31.62-.48.57.51.16,1.36.73,1.38.24-.27.11-.56.37-.83-.12-.17-.24.06-.36.15-.29-.4-.22-1.74-.49-.69-.73-.95.14-1.32.62-1.17-.62.5.7.63.24,1.37.32.32.66-.87,1-.64.36.66-.52,1.08-.86,1.15-.31.44.29.92,0,1.36.45.45.9-.32,1.35.22,0,.75-.49.51-.75,1.33.45,1,.91-.31,1.35.56.23-.61-.55-.31-.73-1,.37,0,.74-.08,1.11.22-.55-.71-.26-1.1-.11-1.87.12-.1.24,0,.37-.16.54.36-.31.67.23,1,.54-1.09,3.42-.17,3.19,1.14.33-.61.75-.27.75-1,.64.54.21,1,.6,1.55-.61-.2-1.23.47-1.84.1.36.76,1.79.9,2.57.61.24.35-.18.67.24,1,.52-.5,1.07-1.06,1.85-.09.07-.87.59-.74.25-1.69.37.75.83-.34,1.47.4-.35-1.25,1-.48,1-1.32.89.54-.52,1,.11,1.53.37-.68.74-.7,1.11-.47a5.84,5.84,0,0,1-.13,1.18c-1.27.4-2.49-.29-3.45.55.28.66.58-.35.86.54,1.61-1.88,3.18,1.19,4.79-.32,1.55,1.76,4.41.07,5.14,1.91a11.47,11.47,0,0,1,1.47.4c.27-1.28,1.11-.31,1.73-.6,0,.29-.16.56.11.85,0-.88.93-.88.86-.13,1.36-1,2.7.58,4,0-.38-.5.3-.77.51-1,.22.41-.52.77-.39,1.17,1.14.89,2.3-.16,3.44-.18,0,1.27,1.34,1.4,1.59.57.24.63.49.22.73.71.63-1.84,3.13.91,4.55-.65,1.06,1.94,3.08-1.09,3.92.86-.37-.21-.74,0-1.11.11.27,1,1.51-.32,2.46.12.38.18,1.77,1.28,1.83.26.25-.38.48.55.73.71.87-.63,1.72,0,2.58-.72,1,.7,3.18.6,4.78.74,41.29,5.81,82.62,4.57,124.06,3.75.34.42,0,.8-.17,1.18-3.06-1.26-6.25.75-9.31-.34-.25.69-.41.6-.89.79-.12-.34.21-.14.39-.49-.48-.43-1,.82-1.47-.1-.39.43,0,.91-.3,1.34-1.28-1.68-3.38-1.21-5.13-.35-1.38-.3-2.75-.85-4.18.06a.47.47,0,0,1-.1-.52c-2.19.93-5.22-.39-6.65.91-.33-.47,0-.63-.47-.71-.13.22.11.46.22.69-2.74-1.18-5,.91-7.83-.52-.27,1.11-1.65,0-2.33,0-1.13,0-1.95,1.1-2.46.18a2.08,2.08,0,0,1-2.93-.18c-.56.3.28.69-.28,1-.12.39-.76-.58-.47-.71-.68.87-1.31.05-2,.55-.24-.24-.12-.46,0-.67-.89.87-1.73.23-2.6.68-.07-1.28-.06-.14-.71-.72,0,.44-.33.82-.64.81a1.65,1.65,0,0,0-.34-.88c-.61,1.27-1.77-.51-3,.83a.83.83,0,0,1-.1-.85c-1.44.36-4.8-.1-5.17.69-.74.16-1.44-1-2.21.21-.66-.83-1.88-1.33-2.19-.47-4.6-.73-8.82.11-13.59-.62-.24.21-.11.44-.26.66-.37-.51-.51-.33-1.08-.91-2.57,1-6.11-1.09-9.09.5-.23-.3-.09-.57-.35-.87-1.14.14-2.3.58-3.43.15,0,.49.3,2-.79,2.34-.32-.69,0-1.08-.7-1.39-.18-.54.66-1.19.86-.47.47-.8-.8-1.21-.72-.38-1.53-1.34-3.12.47-4.64-.92-.36,1.16-1.4.75-2.08-.29-.26.21-.15.45,0,.68-1.37-.62-2.77-.23-4.15-.9-.12.28,0,.57-.14.84-2-.65-4.74.46-6.22-1.18-.12.17,0,.34.11.52-2.2-.4-4.42.11-6.61-1-1.57.71-4.16-.1-6.12-.29-.48.37.09.79-.39,1.16-.17.07-.33.14-.49,0,.49-1.85-1.51-.93-2.18-1.46-.24.91.55.19.72.71.21.73-.56.5-.75.64-.79-2.22-2.45-.92-3.65-1.87-.47.37.09.8-.38,1.17-.17.13-.32-.24-.49,0-.13-.29.21-.56.38-.84-.36-.46-.73-.46-1.11.12,0,.34.41.7,0,1,.24.35.49-.23.73.37-.42.68-.82-.28-1.24.62-.39-1-.81-.55-1.21-.74-.1-.84.8.22,1.11-.45-.78-1.17.34-.42.62-.82-1.17-1.27-1.07.13-2.19-.78-.22.33.33.69.23,1-.13.15-.25-.09-.37-.19-.19.44-.08.62.24.69-.63.92-1.24.53-1.86,1.43-.38-.36-.59-.39-.48-1-.53,0-1.08,1.36-1.6.77-.29-.35.38-.67.5-1-.4-.48-.75.37-.62.82-.38.51-.73-.72-1.1-.22-.14-.34.28-.66-.24-1-.57,1.27-2.45,1.51-2.45.23-.53.08-1.06-.54-1.6.44-.66-1.39-1.66.17-2-1.11-.66,2-2.26-1.16-3.32.37-1-.49-2,0-3.06-.65-.33-.49.63,0,0-.67-1.65,1.52-3.26-.74-4.91.12.2.34.41.17.61.54s-.17.45,0,.68c-.73-.19-1.46-1-2.19-1.12-.14.42.2.35.36.53.21.62-.55-.16-.74.64,0-.45-.16-.63-.49-.7-.64,1.91-1.94-.74-2.95.55a.86.86,0,0,1,0-1.35c-.32-.63-.65,0-1-.38-.13.27.2.57.36.86-.33.71-.66.5-1,.64a.84.84,0,0,1,.25-1c-.86.62-1.71,0-2.57.07-.14-.34.29-.67-.24-1-.49,1.75-3.1.44-3.94,1.21-.27-.84-1.25-.66-.47-1.38-.53-.2-.58.26-.62.83-.52.1-.64-1.65-1.35-.9.24.59.49,0,.73.36a.45.45,0,0,0-.12.51c-1.23-.11-2.45-1.13-3.68.19,0-.94-.07-.82-.48-1.71-.38.5.12,1,.35,1.54-.66,1.36-1.3-.87-2,.27-.75-.65.31-1.24-.11-1.87-.45.6-.21,1.23-.38,1.85-.47.59-.48-.68-.73-.37-.13-.29.2-.56.37-.84a.64.64,0,0,0-.86.82c-.86-1.17-.85-.14-1.47-1.41-.8.64-.88.38-1.72-.07-.11.45.34.92-.25,1.35l.61.87c.45,0,.21-.88.73,0,.26-.22.14-.45,0-.68.76.08,3.13-.22,2.69,1.46.24.4.49-.51.74-.65a1,1,0,0,1-.38,1.51c.26.22,1.51.17,1-.64.53-.24,1.06.53,1.59-.44.23.4-.51.77-.37,1.17.42.7,1.68-.57,1.34.9.31.41.44-.51.25-.67a1.53,1.53,0,0,1,1.35.56c.12-.28,0-.57.13-.84s.57.14.86-.14a2.46,2.46,0,0,1-.13.84,3.67,3.67,0,0,1,3.19-.21c.28.49-.38,0-.5.66.37.49.74-.25,1.1.55-.49.36-1,.37-1.47-.4-.37,1.42-1.68-.29-2.45.59,1.62.5,3.06.15,4.4.51.3-.61-.37-.22-.48-.7.79-.92.8,1.49,1.59.57-.24-.17-.49-.2-.73-.37.33-.88.65.24,1-.64.32.3.06.57-.13.84.21.08.41-.2.61.2.21-1.16,2.32-.4,3.31,0,.22.82-.55-.39-.73.31a10.61,10.61,0,0,1,5,.38c.12.29-.21.56-.38.83.52.87.92-.29.87-.81.73-.17,0,1,.72,1.39.68-.36-.48-.81-.11-1.2,1,.1,2.05-.89,3.06.31.38-1.18.83-.61,1.48-.95.45.35.14.68.48,1a2.6,2.6,0,0,1,2.33-.41c.18.65-.64.4-.86.47.51.71,1.43.27,2.09-.42.46.42-.11.79.35,1.21-.34.55-.87.08-.87.81a5.68,5.68,0,0,0,3.94-1.19c.68.54-.44,1,.1,1.53,1.31,0,2.62-.2,3.91.85.66-1.08,1.11-.14,1.47.07.25-.33-.17-.69.26-1,.94,1.16,3.17-.59,3.29,1,1.53-.12,3.65,1,4.78.07.76,1,1.55,0,2.31,1.3.54-.94,1.06-.06,1.61-1.11.44.36.13.69.47,1,2.86.16,5.72-.12,8.55,1.09.08-.43.39-.82-.1-.85,2.35.72,4.71,1.3,7.09.69.57-.41,1.12.87,1.69.76.11-.22-.15-.46,0-.67a2.38,2.38,0,0,0,2.69.14l.71,1.06c2.51-.79,5,0,7.46.57.07-.17,0-.34.13-.51,4.3.95,8.64.39,13,1,.67-1,3.63.09,5.5.16,1,0,1.83-.58,2.56.32l.51-.65c.48,1.27,1.6-.38,2.43.82,2.07-1.1,5,.48,7.47-.41l.47.7c3.17-1.05,6.27.52,9.44-.61,1.36,1.12,2.79-.5,4.15.6.84-1,1.62.28,2.46-.53a13.15,13.15,0,0,0,6.85.1c5,.53,10.14-.58,15.18,0l.51-.64c.22-.17.21.3.1.51,2.7-.47,4.65-.31,7.38-.85l.46.71c.51-.09.23-1.24,1-.61.11.33-.21.13-.39.48a.54.54,0,0,0,.87-.45c19.88.39,39.21-2.52,59.06-3.25l.39-.48c2.67.57,5.45-1.06,8.1,0,.48-.2.92-1.32,1-.26a1.64,1.64,0,0,1,2.22-.15l.52-.64a3.81,3.81,0,0,0,2.83-.28c4.49.95,9.14-1.21,13.58.63l.53-.63a1.55,1.55,0,0,0,2.46-.13c.22.31.08.58.32.88.37-1.26.76-.45,1.11-.07,1.21-1,2.63-.71,4.2-.65a.84.84,0,0,1,.08.86c.36.17.46-1.19,1.12-.41.13-.17,0-.35-.09-.53.38-.28.72.36,1.13-.41.24.25.11.47,0,.68a2.85,2.85,0,0,1,2-.84c.3.88-.43.43-.79.95a44.83,44.83,0,0,1,4.51-1.65l.56.9c-.15.77.37-.4-.2-.7.71-.83,1.32-.59,2.27-1.16.14.74,1,.49.43,1.06.41.28.45-1,1.22.11.6-.67-.28-.56-.44-.72.9-.85,1.71,0,2.63-1,.11.24-.15.44-.29.65.24.22.52-.34.72.41-.19-.95.44-.35.92-1.11,2.07,1.38,4.6-2.07,6.39-.08.46-1.52,1.76-1.19,2.55-1.47-.08,1.08-1.08.24-1.53.88.18.34.4.19.58.56-.72.43-1.48,1.39-2.19,1.67.14-1.76-1.83-.08-2.22.14,1.39.9,3.73.4,5.1-1.06.11.29-.24.54-.42.81.77-.19,2.34-.13,2.44-1.65.48-.31.28.68.56.91,1.44-1,2.33-1,3.93-2.19,1.88.09,3.76.13,5.75-1.51a4,4,0,0,0,3.66-1.54c2.36.8,6.63-3.34,9.64-.76-.68-2.19,1.88-1.13,1.8-3.06.64.19,1.43-1.77,2-.48q4-2.7,7.76-.1c.36-.53.75-1.06.6-1.65.42-.18.81.12,1.18.8.42-.76.76-.38,1.13-.4.21-.92.55-.78.85-1.62-.21-.47-.51.25-.73-.07a5.1,5.1,0,0,1,6.22.8c.3-1.23,1-1.47,1.81-1.18a11.9,11.9,0,0,1,5.74-4.52L372,255c-.15-1.11,1.13-.77,1.7-1.36a.94.94,0,0,1-.05.68c1.79-.4,3.47-.58,5-2.05,1.88-.28,4.4-.72,6-2.62,1.25.23,3.69-1.66,4.74-2.4a19.86,19.86,0,0,0,4.74-3.92c-.47,0-.44-.62-.66-1.09.37-.51.67-.07,1-.57-.58-.37-.88.26-1.2-.47-.67,1.14-1.62-.58-1.9.65-.31.32-.53-.71-.8-.94a8.39,8.39,0,0,1-2.37.25,15.88,15.88,0,0,0,2.14-2.15c-3,.29-7,.38-10.44,2.48-.35.18-.66-.07-1-.44a2.1,2.1,0,0,0,.06.86,2.79,2.79,0,0,0-1.14.4c-.46-1.58-2,.85-2.73,1.93-.33-.6.23-1.11.61-1.64-.36.19-.85-.32-.8-.93.65-.71.73-.06,1.19-1.08-.25-.53-.65,1.05-.87.09-.48.29-.2.66-.56,1-.17.06-.34.12-.5-.05,0-.56.6-1.08.61-1.64.13-.1.25,0,.38-.13-.33,1,.76.28,1.23.12.22.31.07.58.31.89,1.11-.46,1.41-2.2,2.4-2.49.07.64-.89,1.16-1.23,1.75.44.06,1.39-.25,1.18-1.07,1.15.65,2.45-.73,3.7-1.5-.7-.57-1.54.72-2.31,1.13.53-1.61,2-2,2.8-1.08,1-.84,2-1.57,2.91-.88,3.09-2.12,5.95-1.27,9-3-.59-.87-1.3-.31-1.86-1.56a1.57,1.57,0,0,1-2.06-.74c-.25.2-.13.44-.29.66-.45-1.18-1.07-.14-1.56-.68-.22-.43.1-.79.45-1.15-.6-.73-1.32,0-2-.21-.48-.45.29-.76,0-1.2-.93-.57-1.52.69-2.67.91-.26-1,1.05-1.59,1.52-2.05-.21,0-.4-.25-.58-.57-.13.15,0,.34.08.51-.52.4-.76-.34-1,.58-.21-.31-.07-.58-.31-.89a2.85,2.85,0,0,1-2.48.09,1.13,1.13,0,0,0-.1,1.35,1.16,1.16,0,0,1-.79.61,10.34,10.34,0,0,1-.34-2.09,4.28,4.28,0,0,0,2.93-2.76c1.55-.3,3.11-.7,4.59,0-.31-1.38.8-.86,1.41-.7.14.73-.64-.09-.89.41.6.79,1.36-.63,2-.8.44.49-.34.81.3.88.22-1.14,1.92-1.07,2.79-.72.8-1,1.63-.48,2.67-.91.16-1.15-.88-.3-1.2-.47.89-.62,3.05-1.78,4.51-.54,1.11-1.34,4.59.26,5.05-2.7.88.46,1.31-1,2-.47,0,.59-.51.37-.46,1.15,2.05-1.06,4.1-2.69,4.36-5-.43-.55-1.23-1.14-1-2-1-.85-2.71-.7-2.89-2.87-.55.91-1.44.47-1.61,1.54.15.18.34-.13.52-.29.2.67-.08.44-.44.81-.28-.68-.59-.87-.93-.78-.34-.44-.18-.82.21-1.17-.31-.15-.62,0-.65.44-.71-1.27-2.52-.29-3.76.28-1.28-1.64-2.85.46-4.35,1.58l-.22-.37c.68-1.77,2.07-1.77,2.84-2.93-.22-.51-.49-.11-.69-.76-2.23,1.76-3.5,1-5.64,2.13-.06-.18,0-.34-.08-.52a4.11,4.11,0,0,0,2.37-1.8c-.29-.53-.67.05-1-.44.11.73-.24.88-.66.44a2.72,2.72,0,0,1-.1,1.36,1.45,1.45,0,0,0-2.1,1.48c-.33.52-.07-1.07-.58-.57-.06-.36.51-.32.32-1-.49-.15-1,1.13-.86,1.61-.35.22-.23-.91-.53-1.25-.69.44-.3,1-.73,1.45s-.4-.56-.2-.7c-.5-.36-.44.73-.57,1a1.61,1.61,0,0,1-.66-1.09c.33-.61.61-.38.93-.75-.71-.66-1.1.55-1.09,1.24a2.4,2.4,0,0,0-2.35,1.46c-.61-.51.13-.89-.15-1.38.52-.24,1-.33,1.53-.52a1.61,1.61,0,0,1,.15-2c-.29-.38-.62,0-.65.44,0-.82-.59-.1-.67-1.09-.73.87-1.36.8-2.3.79-.15-.5.72-.83.88-.08.14-.1.08-.22,0-.34l.27-.31c-.45-.65-1-.07-1.51.19-.2-.71.11-1.36-.1-2.06-.3.7-.3.37-.81.94-.44-.44-.27-.82-.54-1.25-.33.26-.28.54-.43.81-.32-.37,0-.68-.42-1.07a4.12,4.12,0,0,1-2.25.12c-.28-.78.32-.41.7-1.12-.33-.49-.78.51-1.1-.28,0,.28-.3.53-.18.83-1.77-.77-3.7.73-5.48.12-.14.21.09.47.2.7-.32.41-.64.78-.93.76-.33-2.71-2.46.56-3.48,0,.45-2.4,1.74-1.64,2.79-2.62-.5-.57-1.2.59-1.32-.64l-.81.94c-.29-.31-.21-.59-.32-.88.33,0,.72-.69,1-.24-.14-.77.33-.41.45-1.15-.48-1.37-1.27,1.62-1.75.17-.61.9-1.25,1.8-1.81,2.71-.47-.5-.18-.93.09-1.36-.35-.89-.8-.29-1.21-.46a1.34,1.34,0,0,1-.59,1.3c.24.22.52-.34.72.42a.77.77,0,0,1-1.23-.13l-1.22,1.41c-.14-1,.28-.79-.56-.91-.56-.51.33-.87-.15-1.38-.27,1.64-.93,1.08-1.79,2.38a11.77,11.77,0,0,1-2.18-.89c-.65,1.57-1.39,1.83-2.29,2.67-.54-.51.47-.86.34-1.33-1.14.07-2.39,2.29-3,3.46,1.14.47,1.61-1.76,2.38-2.15a.82.82,0,0,1,.07.85c.3.34.85-.69.56-1,1,1.4,3.19-2.53,4.52-.59a3.41,3.41,0,0,1-4.09,1.65c-.9,2.3-2.65,2-4.25,2.14a8.36,8.36,0,0,0,.95-3c-.38.69-.69.33-1.06.92-1-1.9-1.58.9-2.56-.76a7.76,7.76,0,0,1-1.93,1c.32.32-.1.56.07.86-.35.23-.67,0-1,.58-.53-.67.19-1,.56-1-.08-.78-1.54.11-1.54.87-.49-.1-1,.54-1.46-.49-.7-.14-1.51,1.57-2.18,1-.41-1,.39-1.9.8-2.82-.9.06-1.35,1.44-2.55,1.12-.41-.69-.17-.83-.7-.75-.44.6.75.28.31.88a1.23,1.23,0,0,0,1.13-.06c.13.88,0,.79.69.75.11.24-.15.44-.29.65-.35.28-.6-1-.94-.77,0,.28-.3.53-.18.83-.43.24-.82-.14-1.23-.12-.16-.46,0-.63.29-.65s.09.29.33.54a2,2,0,0,0,0-1.53c-1.82,2.58-3.47,2.4-5.2,3.58-.17-.24-.34-.49-.21-.7a3.48,3.48,0,0,1-2.32,1.49c-.07-.88,1.29-1.25,1.22-1.76.31.77.64.38.14-.16a7.46,7.46,0,0,1-3.79,1c-.36-1.17,1.33-.68,1.36-1.92-.48,0-.62-.35-.89.43-1.6-1-4.63,1.51-6.33,1.81-.34-.49,1-.82.34-1.33a2,2,0,0,1-1.46,1.39c.36.2.72.5,1.1.28.07.17,0,.33.1.52-.78.56-1.45-.71-2.27.47-.22-.31-.07-.58-.32-.88-.62.75-1.16.17-1.77.52a.84.84,0,0,1-.07-.86c-.27-.28-.61.47-.85-.25-.27.2-.17.44,0,.68a20.48,20.48,0,0,0-6.1.29.81.81,0,0,1,.3-1c-.36-.11-.76.26-1.12.06-.62.4.22.93-.32,1.33-.54-.73-1.13-.47-1.75.18-.33-.37,0-.68-.44-1.06-.24.38.05.8-.19,1.17-.65-1-.57.07-1.5.21-.33-.36,0-.68-.44-1.05a.85.85,0,0,0,.08.86c-.8.45-2.44-.77-2.38-1.92-1.19.58.9,1.06.14,2.06-.43,0-.28-.5-.82-.92-.6.62-1.27-.06-1.56,1.22-.54,0-1.16.07-1.31-1l-.66.8c.41.93.19-.71.6.22-.38,1.25-2.17.25-3.28,1.08.2-.68.11-1.25.7-1.48-.82-1-1.06,1.25-1.94,1.37-.51-1.12-1.14-.19-1.74.19-.65-1-1.38-.58-2.09-.35-.15-.75.65-.23.91-.78-.23-.53.38-1,.2-1.51-.71,1-1.7,1.1-2.35,2.18-.19-.33-.5-.06-1-.43-.23-1,1.49-.1.57-1.31.41-.66.73.25,1.14-.41-.33-.82-1.42.51-1.33-.63-.43.59-.86.3-1.54.89.08-1.38-.71-.06-1.31-1-.8.95-1.53.62-2.3,1.16,0,.69.57,1.23.95.76-.11,1.17-1.17.44-1.63.37a1.27,1.27,0,0,1,.44-1.15c-.07-.56-.43-.6-.43-1.4-.09,1.52-.74.37-1.44,1.4.24.92.59-.09.84.59-.42.05-.86.64-1.24-.11-.11-.34.22-.13.4-.48-.16-.34-.52-.19-.34-.54-.44-.54-.21,1.1-.63.12.11.58.33,1.16-.09,1.7-.59,0,0-.58-.44-1.06-.35.37-.24.77-.18,1.18-.21,0-.4-.25-.63.11-.62-.79.44-1.44,0-2.21a3.07,3.07,0,0,0-.32,1.34c-.45.73-.78-.8-1.25.23-.44-.43-.28-.81-.55-1.23-.58.66-1.09.19-1.62,0-.34,1.15-1.25.78-1.9.69-.32-.37.67-.63.06-1-.59,1-1.19.46-2,.52-.53.35.19.81-.19,1.17-.73.15-.09-1-.67-1.42-.33,0-.47.2-.53.64-1.14-2-2.52.86-3.71-.3-.46,1.11-.72.92-1.56,1.57-.23,0-.36-.68-.84-.58-.11-.86.75-.41,1-.93-.75-.58-1.34.09-1.9.69-.6-.33-.31-.71-.67-1.42-.5.22-.77-.29-1,.6l-.46-.71c.19.92-1.14,1.22-1.61,0-.43,1.22-.76.67-1.38.4-.53.58,0,.2.21.7-.31.42-.58,0-.87.09-.45-.83-.12-.82.06-1.35-.53,0-1.06-.27-1.54-1.32.13-.21.25-.24.37-.14-.05-.64-1.21-.38-1.71-.47,1.28.56,1,1.66,2.26,2.05-1.21,1.38-1.3-1.1-2.19-.86,0,.74.91,1.55.76,2.27-.32-.67-1.17-.59-1.42-1.47-.37.71-.4,1.44-.73,2.16.18-1.21-.44-1.17-.9-1.78-.23-.47.55-.86.06-1.35a2,2,0,0,0-.31,1.33c-.33,0-.77-.63-.51.31-.37,0-.72-.53-1.07-.94,0-.52,1.13,0,.92-1.12-.68.57-3.7,1.89-3.1-.06-.37-.09-.78.7-1.12.08-.57,1.59-1.85.25-2.82,1.82-.18-1.14-1-.45-.67-1.41-.42-.29-.35.86-.92,1.12-.95-.15-1.88-.68-2.87.29-.08-1-.9-.72-1-.08-.33-.92-.73-.36-1.07-.93.1.56.28.58.43,1.39-.48.08-1-.63-1.19-1.11-.65-.2-.37,1-1.23-.09-.06.27.13.57-.17.83.55-.19,1.07.1,1.59.63a24.9,24.9,0,0,0-2.72-.21c-.07-.17,0-.33-.1-.51.43-.3,1.18.45,1.26-.59-.63-.56-1.23.77-2.09-.33-.18.25-.35.48-.51.3a.85.85,0,0,0,.09.86c-.57.55-1.07-.11-1.63.38-.44-.37-.12-.69-.45-1-.49.4.24.86-.41.82-.45-.48.31-.82-.33-.88-.36.26,0,.57-.16.84-1.87-2.14-4.24-.22-5.78-1.27-.19-.35.37-.65.29-1-.68-.38-1.45,1.13-2.09-.32a.87.87,0,0,0,.08.86c-.27.6-.5.16-.76.62-.31-.31,0-.57.15-.84-.35-.47-.74,0-1.1-.25-.14.22.1.46.22.7-.27.56-.5,0-.76.28,0-.28.18-.55-.09-.85-.17.21-.35.42-.52.64-.33-.37,0-.68-.45-1.06a12.27,12.27,0,0,1-3.61.25l.35.54c-.33,0-.69.71-1,.27s0-.57.15-.84c-.71-.45-2,.36-2.38.68-.17-.72-.46-.9-1-.42.61.7,0,.68-.29,1,1.14-.27,1.59.74,2.83.38.14-.31-.11-.14-.23-.36.28-.74.48.46.76-.28.36.86.38.64.93,1.42-1.42-.79-3.42.54-4.44-.66-.08.17,0,.34-.14.5-.49.32.13-.64-.34-.87-.79,1.34-1.5.46-2.24.17-.23.93-.75.83-1.26.6.2-.67.65-1.32.33-2,.37-.19,1,.11,1-.61-.48.09-.5-.07-.72-.73-.22.76-.55.57-.67,1.14-.42.24-.81-.43-1.25.25-.46-1.26-1.58-.65-2.47-.17,0-1-.44-1-1.11-.25a.85.85,0,0,1,.16-.84c-.81-.52-1.68.58-2.49.18-.23.32.3.7,0,1-.26.46-.46-.9-.74-.05a.82.82,0,0,1-.09-.86c-.39-.17,0,.94-.64.47-.3-.36-.41-.71-.21-1-.64.46-1.74-.51-2,.54-.34-.36,0-.68-.46-1,0,1-.65.13-.63.13-.87.1-1.18,1.43-2.12.37-.19,1-1.2.45-1.76.56,0-.29.18-.55-.09-.86-.41,1.09-1,0-1.65,1.08a.52.52,0,0,0,.85.57c.22.15-.59.74-.77.63-.25.79.55.22.73.38s-.22.56-.4.83c-.2.08-.68-1.11-1.24-.09-.31-.41-.59-.83-.33-1.21-.43-.63-.91.25-1.34-.6-.12.44,0,1-.53,1a4.94,4.94,0,0,1,2.21-2.75,8.12,8.12,0,0,1-1.22-.76c-.19.33-.26,1-.63.47-.13.27,0,.57-.16.84-.56.43-.3-.42-.83-.91.06,1.43-2.13,1.51-2.36,0,0,.84-.53,0-.9.78.39.64.84-.21,1.23.43,0,.63-1.07,0-1.49-.1a1.63,1.63,0,0,1-.53,1c-.3.38-.27-.55,0-.68-.43-.28-.48.86-.17,1.18.3-.23.57.22.88-.45.11.35.11.69.22,1-.6.46-1.14-.61-1.73-.11-.12-.67.9-1.86.07-2,.12.93-.19.46-.65.81,0-1,.43-.43-.46-1-.07.65-.12.88-.66,1.14-.18-1.3-.94.4-1.46-.77,1.5-.1,2.69-1.1,4.35-.22-.59-1.18,1.14-.46.93-1.81-.2-.34-.41-.18-.6-.55-.26,1.1-1.28.23-1.48-.44.34,1-.6.86-.18,1.86-.33-.08-.68.46-1-.07s1,.12.16-.84c.27-.74.48.46.75-.28-.23-.31-.09-.58-.34-.88-.75,1.09-.94.2-1.1-.58-.05,1.42-1.6.39-2.38.69-.27.63,0,.45.34.87-.85,1.1-2.19,0-2.64,1-.49-.43.09-.79-.08-1.2a4,4,0,0,1,2,.13,1.48,1.48,0,0,0,0-1.36c-.18.34-.34.17-.5,0a.94.94,0,0,0,0,.68c-.67-1.06-2.55-.12-3,.83.35-1.7-.88-.87-1.17-2.11-.22.28-.42.29-.63.13-.25.9.56.2.73.72.19.72-.53,1.15-1.19,2.14-.55-1,.55-.95.55-1.67-.61-.68-.49.06-1.13.44.2.41.06.8.09,1.2-.3.24-.57-.56-.88.11.52.72,1.1-.68,1.59.61.65-.67,1.29-1.23,1.9-1.07.21.43-.57.25-.75.29-.25.6.63.65.49,0,.11,3.34-3.54.36-5.5,1.36.18.24.36.47.23.69.27.52.59-.49.86.23.06.48-.94,1.05-1.25.26.24.81-.83,1.83-1.27.94-.14-.19.75-.7,1-.28-.15-1,.29-1,.43-1.84-.53-.42-.36-.66-1-1.08.89-.33,1.4.38,2.51-.86-.51-.83.06-.81-.7-1.41,0,.57.46,1.16-.3,1.69-.83,0-1.64-.44-2.48-.16.31.36.42.7.22,1a2.62,2.62,0,0,0,1.11.24c0,.48-.52.76-.78,1-.24-.24-.12-.46,0-.68-.7-.49-.2,1-1,.62,0-.51.28-1,.18-1.52-.9,1.23-2.56-.12-3.51,1.14-.17-.4.15-.78-.34-1.21-.46.37-.9-.11-1.39.77a1.71,1.71,0,0,1,.47,1c-.59.37-1.16,0-1.75.57-.27-.69.45-1.94,1-1-.27-.53.21-1-.07-1.54-.53,1.17-1.09.67-2.15,1.4.27.71.59-.29.86.22,0,.83-.73.1-1.14.78-.23-.3-.09-.57-.35-.87-.31,1.82-1.44-.13-2.12.71-.33-1.27,1-.85,1-1.63-.11-.17-.25.06-.37.15-.54-.37.32-.66-.22-1-.45.5-1.11-.1-.89.8-.44.72-.82-.39-1.24-.08-.09-.45.15-1.08.52-.65-.08-1.18-1.62.87-1.72-.78l-.77,1c.3.29.23.58.35.87-.49.38-.49-.27-.73-.73-.78,1.32-1.5,0-2.83-.67-.75.92-2.34-.55-3.48.14,0,.8.52.22.86.56-.2.89-1.42.62-2,.56-.2-.85.78,0,.64-.81-.38-.41-.68-.67-.72-1.06-.3.33-.86,1.33-1.29,2-.57.23-.42-.91-.84-1.23-.29-.13-1.25.85-1.11-.24-1,.88-1.91.58-2.86.35-.56-.55.48-1-.08-1.54-.73.47.19,1-.41,1.51s-.59-.89-1-1.41c-.34.32-.66-.19-1-.06a1.45,1.45,0,0,0-.46-1.39c0,.26-.17.73-.39.49-.3.46.38.08.48.71-.34.59-.66,0-1-.06-.27.43.46.64.61.54a6,6,0,0,1-.16,1.19c-.47,0-.47-.61-.75.29-.52-.8.14-.6.15-1.18-.5-.49-.46.37-.64.81-.58.25-1.15-.2-1.73-.1,0-.51.38-1,.41-1.5-.55-.28-1-1.66-1.71-1.12-.47-1.06-.58-1.62-1.69-1.79.32.36.74.41.72,1.06-.39.46-.75.2-1.13.1-.25.33.17.69-.27,1,.48-.05,1.38.93,1.49.09.06.4.19.8-.15,1.18-.43.07-.28-1-.87.12-.55-.37.32-.66-.23-1,.08,1-.59,1-1.13.45-.31.62.15.81.48.7-.21.32-.41.13-.63.48-.13-.41-.86-.84-.59-1.22-.22-.11-1.08.89-.86-.22-.4-.33-.65,1.48-1.26,1-.13-.29.22-.55.39-.82-.62-.14-1.74-1.14-2-.11-.18.13-1-.21-.48-.7a3.58,3.58,0,0,0-2.92,3.07c-.29,0-.57-.16-.87.12-.48-.59.45-1.1-.21-1.71.6-.64.59-.18,1,0a1.14,1.14,0,0,0,.29-1.68c-.13.17,0,.34.11.52-.38.3-.76.69-1.12.11s.39,0,.51-.65c-.31-.73-.67.43-1-.39-.25,1.63-1.6.41-2.47-.48-.42.59-.77,1.75.08,1.88-.19-.89.31-.56.75-.3.12.3-.21.3-.38.15.2.78,1.48.28,2.1.62-2,1.08-5,0-7.46.62-.12-.23.13-.44.26-.66-.32-.27-.65-.42-1,.29-.19-1.1-.5-.18-1-.74-.36-.41.83-.75.15-1.17-.47,1.08-.72.42-1.62.08-.39.84-.86,1.39-1.49.26-.43.76-.83.19-1.26,1-1.29-2.41-3.67-.75-5.92-2,0,.75-.53,1.35-.75.3-.51.37-.38.78-.4,1.17-.16.07-.33.14-.49,0,.07-.51-.08-1,.4-1.51-.71-.7-.2,1.41-1,.29-.21,1.2-.42.76-1.13.8-.25-.41.06-.8.39-1.17-1.19.86-3,0-3.88,2-.59.35-.59-.21-1-.39-.33-.53.33-1-.09-1.53a1.23,1.23,0,0,0-.27,1.34c-.61-.21-.46.35-1,.63-.35-.91.45-2,1-2-.25-.27-.13-.52,0-.34-.83-1-2-2.12-3.34-.33-.45-.48.58-.88,0-1.36-.45.94-1.66-.2-2.48-.12-.25.27-.12.56-.39.83,0-.28.17-.55-.11-.85-.45,0-.15.22-.51.65-.1-.22.17-.44,0-.67-.53-.73-1.08-.16-1,.63-.12-.23-.24-.28-.37-.19-.12-.23.13-.45.26-.67-1.16-.09-3-1.41-3.72-.17-1.12-1-.84.27-1.48-.41-.65,1.3-1,1.06-1.89,1.78.28.46.57.28.86.54-.38.58-.74-.33-1.12.12-.12-.23.13-.45.26-.66-.79-.11-1.56-.84-2.35-.95-.12-.23.13-.45.26-.67-.37-.09-.74-.35-1.12.12-.41,1.84-2.88-.83-4.1.33a42.52,42.52,0,0,1,4.33,1c-.5.41-1,0-1.49-.07-.2.8.64.22.86.55l-.76,1c-.23-.3-.1-.57-.36-.87-1,.4-1,2-2.25,1.26-.1-.59.83-.68,1.13-1.14,0-.4-.33-.8-.1-1.19-.26.24-.89,2.3-1.89,1.45a.82.82,0,0,1,.27-1c-.51-.62-1,1.42-1.75.94-.52-.47.35-.89-.24-1.36-.13.1-.07.22,0,.33,0,.47-.66.06-.51,1-.22-.15-1-.41-.87.47-.29-.15-.59.26-.87-.2,0-.63.85-1.21.64-1.84a6.08,6.08,0,0,0-1.12.8c-.35-.36,0-.68-.49-1a7,7,0,0,1-2.23-.1c-.26-.41.47-.18.63-.82-.95-.56-1.18,1.77-2.12.42-.25.15-.51,1.06-.75.65-.3.46.38.07.49.7l-.38.49c-.74-.68-1.49,0-2.22-.77,0-.87,1-.94,1.36-.11.34-.41.67-.69,1-.64-.4,0-1.36-1.25-2-.09-.5-.53.15-1-.35-1.54-.48,1.19-2,1-3.12,1.06-.28-.64.39-.19.5-.66-.52,0-.28-.58-.73-1-.67.48-1.32,0-2,.59-.91-1.08-.9.2-2.25,1.27.54-.08,1.08-.46,1.61-.11.26-.21.15-.44,0-.67a.74.74,0,0,1,1,0c.29.3-.38.43-.5.31.17.56,1.39,2.15,2,1.11.4,1,1.79,1,2.6.62.29.5.14.91.62.19a3.61,3.61,0,0,0,3.84,1c0,1.17,1.35.31,1,1.4.2-.35.61-.29,1.12-.47-.2-.33-.41-.16-.61-.53.25-.15.49-.15.74-.31a.81.81,0,0,1-.13.84c.32.56.66.17,1,.73.24-.22.11-.45.26-.67.28.5.57.93.87.21.2.26.4.74.61.53.34.35-.64.65,0,1,.49-1.3,2.63-.62,3.1.3.44.42.15-.52.5-.66.12-.1.25,0,.37-.15.47.41.14.8.61,1.21.82-1,2.41,0,3.59.33.3-.63.58-.42.88-.81-.62-.77-.49.59-1.12.12.31-.53.22-.38-.1-1.19.8-1.07,1.51-.45,1.73.41-.34.61-.65-.81-1,0,.56,0,.81,1,.36,1.54.78,0,1.56.55,2.34.61-.23.93-.12.55.48,1-.41.21-.82-.08-1.23-.73-.22.33.32.69,0,1,.46-.23.91.29,1.36.22.31-.43-.16-.91-.47-1.37.7-.21,1.39.34,2.11-.42.1-.44-.15-.91,0-1.35.74-.22,0,.88.6,1.22.13.33-.21.13-.38.49.72,1.19,2.36.51,3.2,1.84,1-1,2-.26,3-.19.33.88-.69.72-.77,1.66.74.71.94-1.09,1.11.56a2.22,2.22,0,0,0,0-1.7,3,3,0,0,1,2.6.3c.28-1.3,1.13-.77,1.75-.6.12.24-.13.45-.26.67s-.41-.3-.61-.54a.44.44,0,0,0-.14.5l-.25.33c.45.45.92-.53,1.35.58-.29.44-.58,0-.87.12-.16.91.73.47,1,.73-.82,1.39,1,.3,1.6.92,0-.53.12-1.5.64-1.49-.35.85.31.87.34,1.88.13-.22.26-.25.38-.15-.22-.95.61-.8.77-1.66.33.14,1.37,1.17,2.1.27.44.47,0,.9,0,1.36.69.46,1.33.55,1.71,1.1l.51-.66-.48-.7c-.48.94-.91-.2-1.36-.24.59-.7,1.15.4,1.74-.25-.05,2.07,1.33.94,2.31,2-.36-.24-.74.23-1.11-.22,0,.85,1,.58,1.35.58a9.26,9.26,0,0,1,.28-1.35c.67-.22.32.9.59,1.22.18-.34.34-.17.5,0,0-1.06.62-1,1.24.06-.36-1.14.19-.36.76-1.31.7,1-.89.78,0,1.69.23-1.24.7-.88,1-1.64.59.83-.72.77-.53,1.33.6,0,.73,0,1.13-.79.56.75-.41.38-.26,1,1.06,1.25,1.41-.15,2.49-.55.28.41.13.8.59,1.22.55-.76,1.07,0,1.62-.43.15.46-.11.9,0,1.36-.17.31-.33.11-.5.31-.41-.36,0-.68,0-1-.75.14-1,.73-1.87.42.53.3,1.06.92,1.6.59.41.5-.67,0-.26.66-.57-.35-1.15-.22-1.72-.43-.11.22.15.46,0,.68-.47.33-.13-.65-.6-.88-.21.29-.42.29-.62.14-.08,2.11-1.2-.54-1.87.75-.44-.47.12-1-.48-1-.36.66.1,1.36-.28,2,.32.52.66-.08,1,.39.13-.22-.11-.46-.24-.69.43-.57.83-.09,1.24.06.07.62-.4.27-.51,1-.5.1-1-.21-1.49.26-.44-.47.12-1-.48-1-.82,2.45-3.5.55-5.08.61-.08-.46.5-.89.27-1.35,1.48.33,3,1,4.44.89.23-.6-.55-.64-.74,0-.37-.6-.88-.46-.35-1.21a5.62,5.62,0,0,1-1.25.28c-.09-.45.36-.89-.22-1.36-.4.95-.52.63-1.12.45-.47-.42.11-.79-.35-1.21a2.48,2.48,0,0,0-2.49.9c0-.28-.26-.57-.11-.85.36-.46,0,.87.49,0-.73-.69-1.48-.14-2.21-.78l-.89,1.15c-.24-.47-.25-.93-.72-1.4-.52,1.13.31,1.13.47,1.72-.47.59-.89-1.21-1.36-.23-.57-.71.51-1.34-.21-2-.12.16,0,.34.11.51-1,.56-1.9,0-2.84-.3a.89.89,0,0,0,.72,1.39c-.46.3-.94,1.9-1.38,1.12-.22-.65.51-.18.38-.83s-.5.4-.73-.37c-.29.64,0,.89-.64,1.16a.71.71,0,0,1,0-1c-.67-.72-.62,1.33-1.25.62-.18-.52.69-1,.15-1.52-.47.37-.33.77-.63,1.15-.17.07-.33.14-.5,0,0-.55.67-.53.52-1.33-.63,0-.48-.49-1.1-1.24-1.15-.68-2.38.14-3.22.18.72-1.2-2-.78-2.83-1.32.06-.9,1.15.18,1.62-.77-1-.88-1.89.84-2.6-.3-.13.22.12.46.24.69-.34.8-.66,0-1,.64-.91-1.71-2.15-.19-2.71-1.48-1.14.74-1.81-.22-2.73.9.45.08.14.24.48.7-1.37,1-1.75-.87-1.83-2.28-.31.67-.06,1.36-.27,2-.53-.23-1.07-.15-1.6-.58-.19-.46.65-.37.87-.81.13.39-1.87-.69-2.22-.44-.29-.17-.28-1.09,0-.68,0-.81-.5,0-.75,0-.13.22.12.46.24.69-1,0-2.57-2.08-3.95-1.19l-.61-.87c-.25.32-.49-.27-.75.3-1-1.84-2.15-.09-3.2-1.83-1.13.83-2.24.13-3.34-1,.68-.51.72-.89,1.25-1.3-1.23,0-2.5,1.12-3.1,0,0,1.44-.86,2.08-.53,3.71-.62-.21-1.24-.68-1.85-.92,0,1.51,2.26.63,2.2,2.46-.25.39-.48-.54-.73-.71-.1,1.07-1,0-1.5,1a1.67,1.67,0,0,0-.48-1.71c.05.82-.34,1-.88,1.49-.38-.66-1.09-1.54-1.11-.55-.45-.47-.21-1-.74-1-.24-.66,0-.45.38-.84a1.52,1.52,0,0,0-1.61.11c-.43-.58.46-1.11,0-1.7-.22.26-.4,1.62-.87.82-.08.39-.39.77.11,1.19-.7.36-.59.21-.87,1.16-.26.57-.49-.95-.75-.37-.57.63.31.68.49,1-.33.14-.66-.36-1,0-.25-.45.52-.88,0-1.35-.15.73-.88.29-.62-.19-.74,1.3-2,.62-3.09-.63,0,.39-.34.78-.38,1.17.52.37.29.38.73,1,.33-.27.07-.56-.11-.85,1-.22,2.06.83,3.09,1.3-.88.57-1.74-.82-2.61-.27a4.34,4.34,0,0,1,1.36.9c-.5.38-1-.53-1.49.63-.25-.47.2-.9-.24-1.37-.21.31-.41.13-.62.48-.32-.29-.06-.56.13-.84-.25-.34-.5.23-.74-.37-.13,1-.94.35-1,1.32-.68-.59,0-1.13-.49-1.71-.5.51-1.65-.17-1.73-.75-.77.6-.76-.47-1.49,0-.29-.63.39-.19.5-.66-.7-.75-1.4,0-2.1-.59a2.81,2.81,0,0,0-.38,1.51,1,1,0,0,0-1.25,1c-.55-.36.31-.66-.24-1-.37-.23-.75.39-1.12-.22-.47.43-.15.84-.62.83-.41-.58.58-1.11.5-1.68.3-.49.58,1.13.87.2-.12-.79-1.1-.73-1.61-.23-.45-.36-.14-.68-.49-1-.63.57-1.91,1.2-2.11.42-.22-.18-.23.28-.13.51-.46.11-.91.32-1.36-.55-.3.63-.58.18-.87.81.53-.54,1.07,1.21,1.61.23.36.86-.16,1.18.73,1.72-.71,1.13-.92-.12-1.11-.21-.49.82.49.63.49,1.37.25-.53.5-.52.74,0,.33-.63.62-.19.63-.83-.41-.39-.76.05-.62-.86.29-.3.58.73.87.2.21.66-.34.87.36,1.2-.25-1.17.55,0,1,0,.08.2-.05,1.19-.37.83.34,0,1.14,1.13,1.73.74.46,1.48,1.23.55,1.6,1.93.64-.29.56-1,1.24-1,.13.29-.21.56-.37.83.53,1.1,1.07.47,1.61.91.19-.44.07-.62-.25-.69.35-.83.88,0,.87-.81,0,.16.17,1.08.49.7.25.65,0,.44-.37.83.65.63,1.32-.17,2,1.09.23-1.78.92.86,1.49-.62-.13,1.06.53.44.61,1.21-.45.11-.91.31-1.35-.56-.41,1.41-1.58.22-2.35-.6a2.05,2.05,0,0,1-.63,1.51c1.2-1.58,3.54,2.53,4.71-.5.78.2,1.57,0,2.34.6.2-.44.08-.63-.24-.69l.75-1c.25-.11.5.06.74.36-.37.54-.74-.07-1.12.81.37.47.74.43,1.11.89l.5-.66a1,1,0,0,1,.62.2c.25.4,0,.79-.38,1.17.92.34.49-1.63,1.49-1a.86.86,0,0,0-.12-.86c.25-.28.5-.43.75-.31-.5,1.47,1.42,1.94,2.08,2.63-.73.38-2.54-.7-2.48.58-.74,0-1.48-.62-2.22-.42-.08,1,.9.32,1.23.72-.59.44-.59.06-1,1-.3-1.48-.72-.19-1-1.73-.62.6-.33,1.23-.13,1.86-.48.29-.49-.78-.74-1-.29.39-.58.18-.87.81-.45-.36-.14-.68-.49-1-.55.82-.32,0-.86-.2-.58.5-1.16.05-1.74.61-.5-.41.07-.79-.11-1.19.6-.26,1.71.58,1.61-.79-.33-.12-.66.51-1,.65a1.28,1.28,0,0,0-.24-.69c-.54.72-.65.78-1.11.12-.71.6.08,1.25-.63,1.85-.13.1-.25,0-.38.15-.44-.47,0-.9,0-1.35-.32-.83-.66-.09-1-.72-.26.21-.14.45,0,.68-.74.38-1.48-1.24-2.23.25-1.34-.63-2.36.07-3.46-1.15-.41.84-.82.18-1.24.29-.15.82,0,1-.38,1.52.58.76.59.54,1,1.39.27-.82.05-.61.5-1.34.54-.21,1.07.41,1.61-.45.32.64-.53,1.23-.63,1.85.3.45,1.23-.11,1.11.89.82.29,1.66-.91,2.47.43-.49.51-1,.17-1.48.62.32.16.66,0,1,.72.14-.71.25-.71.49,0,1-1.18,1.9.69,2.85.27.49.36-.06.68-.25,1,.32.62.65,0,1,.37a4,4,0,0,0-.85-1.9,2.05,2.05,0,0,1,.13-.84,2.24,2.24,0,0,1,.86.2c.14.35-.28.67.24,1,.31-.27.25-.56.38-.83s.33.23.49,0c.3.74-.26.39-.25,1-.37.43-.74-.62-1.11.13,3.82.89,7.65,1,11.48,2.3.25-1.39,1.49-.62,1.72.41.26-.73-.13-1.48.14-2.2.72-.32.65,1,1.36.56.12.23-.13.45-.25.67.61.22,1.24-.55,1.85-.1-.75,1.81,1.47,1.08,2.45,2.48.5-.32,0-.68-.24-1,1,.11.56.27,1.48.74.15-.28-.32-.58-.12-.86.25-.1.5.07.74.38a1.61,1.61,0,0,1,.51-1c.55-.51.37.91,1,0a.81.81,0,0,1-.25,1c1.47.56,1.24,1.06,3.08.64a.84.84,0,0,1-.13.84c1.16-.94,2.3.07,3.46-.53a.94.94,0,0,1,0,.68c.45.06.91-.47,1.38-1.13a.59.59,0,0,1,0,1c1.49-.34,2.95,1.62,4.45-.15.47.42-.11.79.36,1.21-.25.32-.49-.27-.75.3,1.16-.22,2.62-1.18,4.08-.33.19-.74-1-.57-.23-1.37.65.74,1.16,1.33,1.72,1.1.38-1.07-.52-.11-.86-.55.46-.73.91-.28,1.37-.45a6.09,6.09,0,0,1-.28,1.68c1.25-.19,2.17-1.42,3.59-.68.11.23-.16.44,0,.68s.41.17.6.53c.46-.62.23-.66.76-1a1.78,1.78,0,0,0,.48,1c.62-.33,1.24-.09,1.85-.08.29.45-.39.58-.5.32.46,1.06,1.52-.12,1.87-1.1.64.48.06.91-.26,1.35.86,0,1.75-1.33,2.6-.73.28.28-.4,1-.5.32a1.22,1.22,0,0,0,1.22,1.07c-.19.05-.75.2-.26.67-.25.18-.49-.41-.74.3.4.65.82,0,1.22.4-.15-.46.19-1.3.63-.82.14-.32-.2-.16-.36-.52A2.76,2.76,0,0,0,89.33,232c.58.48-.29.89.22,1.37.37-.53,1-.51,1-1.31,1,.26,2.24.78,3,.48,0-.39-.12-.8.38-1.17.39,1-.32,1.47.72,1.74-.34.67-.67.17-1,.29,0,.87,1.15-.09,1.6.24,0-.28-.14-.57.14-.84.39.37.67.14,1,1.07.47-.38.16-.79.64-1.16.37-.09.7,1.53,1.35.23.34.36,0,.68.48,1.05-.3.43-.58.24-.87.12,1.82,1.78,4.77.27,7,.85a2.31,2.31,0,0,1-.52,1.34c.45.23.91-.29,1.35.24.34-.38.21-.78.15-1.18,1.08,0,3.07,1.74,4.2-.46.35.79-.43.58-.39,1.17a5.06,5.06,0,0,1,1.6.26c.12-.28,0-.57.14-.85.81-.29,2.15,1.73,2.58.31.29.41.14.8.6,1.22.37-.19.76-1,1.11-.11.6-1.75,2.11.51,3.1-.68-.11.33.44.7.22,1,.63-.34,1.26-.94,1.85.26a1.14,1.14,0,0,1,.75-.64,1.35,1.35,0,0,0,.23.69c.12-.53.79-.5.49,0,.4-.47,1-.32,1.73.09-.14-.74.18-.78.63-.81.12.23-.13.44-.26.66.61.3,1.24,0,1.85.27-.5.8-.64-.2-.89.8.37.19.73.47,1.11.23.12.29-.22.55-.39.83-.45,0-.88-1.17-1.35-.24.55-.2.29,1.16.84.89.14.77-.33.82-.76,1-.21-.41.1-.79.15-1.18-.47-.49-.65.36-.88.8-.41,0-.83.25-1.23-.4.91.21.7-1,1.38-.78.24-.61-.78-.33,0-1,.49-.52-.12,1,.36.53.66-.69.09-.39-.22-1,.16-.06.33-.14.49,0-.52-.66-2.14.25-3.08-.34.24,1-.47.18-.51,1a2.64,2.64,0,0,0,1.74-.59c.25,2.27-1.76,1.47-2.39,2.08-.9-.9,0-1.7-.56-2.58-.06,1.12-.81-.34-1.25.62A.92.92,0,0,1,120,239.7c-.66-1.15-.65.56-1.59-.25-.49-.54.15-1-.34-1.55l-.63.82c.18.23.36.47.23.69-1.17.78-2.31.4-3.47.83.35.82.73.23,1.1.57-.71.54-1.95.93-2.21-.46.32.14.65,0,1-.62.15-.64-.59-.24-.36-.87-.77.14-1.45,1.46-2-.11-.3.68-.58.25-.86.13,0,.28-.28.55-.14.84-.9-.63-2.48.51-3-.83a14.16,14.16,0,0,0-1.61.42,2.18,2.18,0,0,1,.14-.84c-.46-.38-.33.63-.63.81-.49-.59-.19-1.14,0-1.69-.55-.33-1.26,0-1.46-1.1-.17.67.29,1.38-.28,2,.76.55.31-1.46,1.24-.61a1.05,1.05,0,0,1-.52,1.33c-.95.27-1.86-1.43-2.81-1-.34-1,.41-.54.75-1-.4-.51-.82,0-1.23.28a1.38,1.38,0,0,0,.23.69c-.33.18-.45-.41-.5.31-.68-.72-1.42,1-2.08-.61a.62.62,0,1,1-1.24-.05,1.37,1.37,0,0,1-2.35.73c-.24.21-.11.45-.26.67-.63-.6-1.36-.12-1.34-1.25L93,239.17c-.83-.61.27-1.12-.22-1.71-.54.68-1.07.51-1.6.09-.09.56-.61,1.11-.77,1.66-.33-.69.61-1.32,0-2,0,1.65-1.61,1.49-2.36.73-.64.3-.57,1.33-1.25,1,0-.6.51-1.28-.23-1-.12-.51.22-1,.64-1.49-.08-.18-.16-.11-.25,0l-.24-.36c-.4.43-.11.9-.51,1.34-.64.47-.54-.89-1.21-1.42-.47.64-.9-.33-1.36.1.48,1,1,.77,1.47.41a2.22,2.22,0,0,0,.6,1.22c-.53-.19-.48.57-1.11-.22-.55.31.3.69-.26,1-.52-.85-1.68-.7-2.58-1-.15.44.73.58,1,.39.15,1.33-1.06,1.1-1.62.77-.36-.83.86,0,.51-.66-.62-.9-.5.59-1.12.12.74-1.6-1.89.15-2.69-1.48-.29.68-1.22,1-1.88,1.78.09-1.5-1.92-.26-2.22.24-.18-.23-.36-.46-.24-.69-.2.52-.71-.1-1.24.63-.38-1.26-.85,0-1.73.26-.17-.4.14-.78-.35-1.2-1.55.84-2.36,0-3.95.51-.18-.45.13-.84-.37-.87,0,1.37-.85.53-1.22-.39.25,1.05-.57,1.76-1.25,1.31-.21-.86.77,0,.62-.83-.2-.33-.41-.16-.61-.53-.18.43.12.85-.38.83-.14-.29.33-.55.14-.84-.78-.48-1,0-1,.64-.61.26,0-1.08-.61-.88.08.83-.46,1.09-1,1.31-.21-1-.38,0-.85-.88,0,.73-.63.64-1,.29,0-.4.26-.19.13-.84-.2,1.06-2.12-.19-1.86,1.45-.45-.5-.92,1-1.36.45-.35-.77.41-.51.75-1.33-.45-.29-.91.06-1.36-.22-.21,2.13-1.89,1-2.35,1.42,0-.64.64-.87.87-1.15.25.24.13.46,0,.68.54.41.39-.49,1-.64-.82-.25-1,0-1.72-1.43-.5.38.06.8-.13,1.18-.73-1.26-3.61-.05-4.69-.52-.16.11-1,.63-.62,1.16-.65.73-1.22-.75-1.24.64-.37-.47,0-.91,0-1.36.21-.17.41.3.61.54.4-.66-.28-1.09.51-1.34-.64-.05-.72.44-1.49,1a1.37,1.37,0,0,0-.24-.69c-.41.57.26.43.11,1.19-.37.31-.74-.32-1.11.47a16.19,16.19,0,0,0,5.66,1.23c.55.36-.31.67.24,1,.46,0,.33-.39.62-.82.49.69-.31,1.34-.76,2-1-.09-2.22-1.66-3.57-.64-.36,0-.73-.69-1.1-.56.34.78.24.67-.5.32-.43.33,0,.68-.25,1-.92-1.33-1.14-.34-2-.41-.34-.36,0-.68-.49-1,0,.74-.34,1.23-.86.82-.35-.36.63-.66,0-1-.16.34-.33.17-.49,0a1.45,1.45,0,0,1-.38.83,5.77,5.77,0,0,1-2.45-1.45c-.22,1.44-.82-.38-1.36.46-.25-.65.47-.19.62-.82-.45,0-.9.16-1.35-.23-.25.15-.51,1.06-.75.65.16.9,0,.8-.62,1.5.94-.15,1.33.94,2.09.25.46.79-.3.6.12,1.2a1.36,1.36,0,0,0,.37-1.51c.3-.24.58,0,.87-.48,0,1.12.82.59,1.23.38.31.75-.53.63-.63,1.51.48.16.5-.14.75-.65a1.82,1.82,0,0,0,1.22,1.06c0-.45.42-.88.75-1.33.16.58,0,1.14.48,1.72.34-.49.66.08,1,0-.14.39.16.8.11,1.19a7.79,7.79,0,0,1,3.94.49c.75-1,1.48.48,2.22-.25,1.29,1.81,3.17-.93,4.05,1.35.26-.62.5-.18.75-.65.32.66.65.7,1,1.06-.5.39-.9-.32-1.11.8.22-.91-.3-.44-.73-.71-.31.71.16.53.48.69-.58.79-1.15.3-1.72.28-.22-.35.56-.54.74-.31-.2-.89-1.48,0-2.09-.26.28.66.57-.11.85.55-1.13-.26-1.56.57-2.59.74-.36-.41.81-.76.14-1.18l-.5.66a2.64,2.64,0,0,0-3.08.39c.71-.92-.47-.68-1.11-.89-.07.44-.38.83.12.85-.86,1.26-1-.71-1.72.28a2.08,2.08,0,0,1-.12-1.54c-.33-.26-.88.86-.87,1.16-.51.4-1.47-1.16-1.6.11-.22,0-1-.51-.85-.88-.48.79-1.84.94-3,.22.65-.35.58-.21,1.11-1.14-.4-.4-.81-.67-1.22-1.07-.36.19.37,1.22-.13.85-.23.87.56,0,.74,0a1,1,0,0,1-2,.61c-.82-.11-1.66,2.08-2.47.92l-.5.66c-.41-.35,0-.68,0-1-.49-.3-1,1-1.48.29-.26-.66.47-.43.62-.83-1.39.4-2.68,1-3.57-.31-.41,0-.82-.12-1.24.64.29.29.36.58.12.85-.49-.85-1.82.22-2.7-.77.28-.43.57-.83.86-.48-.25-.59-1.55-.65-2.21-.75-.57.82.42,0,.61.87-.42.55-.82,0-1.23.64a.84.84,0,0,1-.13.84c.32.49.45.07.49.69a.72.72,0,0,0-.49.33c-.63-1.31-.81-1-1.6-1.58.41-.82.82.52,1.23-.3-.28-.65-.57-.23-.86-.88.26.69-.87,1.2-1.36,1.14-.12-.23.13-.45.25-.67-.32-.82-.65-.08-1-.71-.21.33.34.69.24,1-.86.57-1.72-.32-2.58.08,0,.9.62-.12,1,.37.08.17,0,.34.12.52-.62-.36-.79.3-1.48.63,0,1,.64.67.87-.15.56.47-.55,1,.24,1C16.29,249.93,15.44,250.08,16.05,250.92ZM62.82,261c.46-.69.9,0,1.35.22C63.71,261.79,63.27,261.46,62.82,261Zm37.44,7.84c-.39.75-1.23.07-.64,1.16a1.86,1.86,0,0,1-2.08-.27c.35-.69.42-.23.76-1.32.2.23.4.71.6.54s-.09-.46,0-.68C99.36,268.63,99.82,267.75,100.26,268.88Zm280.08-39.49c.46-.48.39-1.18.9-.42C381.22,229.47,380.64,230,380.34,229.39Zm.33-18.37c.8-.34.89-.51,1.61-1.54.23.76.55.37.87-.08a5,5,0,0,1,.62,1.76c.69-.61.29-1.33.15-2,1,.46.81,2.08.16,2.92-.77-1.32-1.8.9-2.63.24-.39-.77.5-.35.32-1C381.36,211.67,380.64,211.68,380.67,211Zm-77,3.17c-.49.57-.9-.23-1.37.05C302.83,213.62,303.27,213.74,303.71,214.19Zm-39,.78c-.19-.6-1-.5-.81-1.26C264.21,214.5,265.13,213.94,264.71,215Zm-29.42-2c.32.17.68-.42,1,.42A.53.53,0,0,1,235.29,213ZM62.36,203.49a1.75,1.75,0,0,1-1.61-.57C61.21,203,62.32,202.65,62.36,203.49ZM72.76,215c-.05.76-2.24.48-1.85-.59C71.52,215.26,72.15,214,72.76,215Zm-43.59-4.14c.13-.27.06-.56.38-.83.2.37.41.2.61.53C29.83,211,29.5,211.45,29.17,210.83ZM86.62,239.2a8.54,8.54,0,0,1-2.59-.29A2.16,2.16,0,0,1,86.62,239.2Zm-23.79-.9c-.38-.12-1.39.09-1.35-.57C61.86,237.73,62.87,237.45,62.83,238.3Zm-12.2-1.71c0,.25-.42,1.44-.74.65C49.67,236.79,50.46,236.17,50.63,236.59ZM20.24,248.35c-.26-.23-.13.25-.37.5-.36-1.1-.74.55-1.1-.55C19.19,247.4,20.24,247.76,20.24,248.35Zm17.33,4.88c-.33,0-.66.58-1,0C37.12,252.32,37.5,253.16,37.57,253.23Zm16.92,6.08c0,.67-.83.63-1.23-.05C53.67,258.59,54.08,259,54.49,259.31Zm3.56.33a.94.94,0,0,1-1.47-.74C57.07,259.37,57.56,258.71,58.05,259.64ZM32.82,223.52c.82.15,1.65-.35,2.47.1A1.62,1.62,0,0,1,32.82,223.52Zm35.89,48.12c-.07.76-.91.71-1.35.12C67.82,270.88,68.27,271.15,68.71,271.64ZM52.38,248c-.41-.05-.83.5-1.23-.05C51.49,247.5,52.46,247.17,52.38,248ZM32.83,220.47c-.18-.51-1,.21-.74-.7C32.43,219.94,33.2,219.49,32.83,220.47Zm.87-.47c.22,1,.39.22.86.54-.2.28.28.57.12.85-.6-.11-.44-.74-1,0l-.38-.52C33.46,220.55,33.39,220.27,33.7,220ZM36,222.29c-.41.08-.83.69-1.24,0C35.22,221.42,35.63,221.66,36,222.29Zm15.67,17.57c.25-.29.5-.44.74-.31-.55.53-.19,2.16-1,1.65C51.25,240.4,52.15,240.42,51.71,239.86ZM39.88,221.93l-.5.66-.37-.52C39.3,221.39,39.59,221.82,39.88,221.93Zm-7.49-10.64c-.2-1.18-.5.08-1-.37C31.33,209.81,33.2,210.35,32.39,211.29Zm22,28.34c.79.76,1.77-.83,2.21.78.07-1,.92-1,1.36-.45-1.19.18-1,1.39-2.12,2.11-.46-1.4-.44.14-.72-1-.63.23-1.9.93-2.1.08.11.12.78,0,.5-.32a1,1,0,0,1-1.23-.39c.33-.6.65-.15,1,.38C53.7,240.28,54.4,240.56,54.43,239.63Zm13.31,20.94c0,.85-.73.6-1.11.46A.64.64,0,0,1,67.74,260.57Zm-16-23.42.48.69c-.24.43-.49.58-.74.31C52,237.83,51.18,237.46,51.74,237.15ZM36.72,213c-.38.75-.74-.81-1.12.12-.39-.48,0-1.2-.61-1.21C35.85,210.72,36,212.81,36.72,213ZM44,222.94c-.37.5-.75,1.18-1.11.46C43.21,223.36,43.59,222.29,44,222.94Zm-4.9-6.64c-.44-1,.81-2.14,1.38-1.48A1.21,1.21,0,0,1,39.8,216C39.78,215.11,39.3,215.65,39.05,216.3Zm23,26.37c0-.87-.49-.33-.74.31-.33-.07-.45-.25-.49-.69-.87.78-1.72-.46-2.59.39-.39-.43.05-1.49-.61-.54-.42-.51-.43-1.88.26-1.34-.14.22-.26.44,0,.68.11-1.92,1.54-1.27,2.37-1.77l.6.88c.49-.06,1-1,1.48-.28a1.41,1.41,0,0,1-2,.94c.12.24-.06.28-.25.32.41.07.81.81,1.22.73.63-.94,1.25-1.65,1.86-.76C62.17,241.48,62.42,242.25,62,242.67ZM44.82,222.46c.23-.33-.31-.7,0-1,.24.77.5-.4.74.37-.38.55-.27,1.12-.75,1.67l-.37-.53Zm36.24,50.92c.18.53-.65,1.19-.86.47C80.49,273.62,80.79,272.62,81.06,273.38Zm-5.73-11.46c-.29,1.15-1.6-.42-1.1-.22S75,261.25,75.33,261.92ZM43.51,216.13l-.5.66c-.12-.23-.37-.46-.24-.69C43,216.35,43,215.3,43.51,216.13ZM48.18,220c-.24.28-.17.56.12.85l-.62.83a6.28,6.28,0,0,1-1.11-.89A9.58,9.58,0,0,0,48.18,220Zm-4.42-4.24a3,3,0,0,0,.14-1.52c.24.34.5-.23.74.36-1,1.17.89.62.6,1.55-.49-.51-1.64.56-1.72-.74Zm6.63,6.7c-.19-1.23-.82-.09-1.36-.56C49.36,220.42,50.75,221.2,50.39,222.5Zm1,.38c.45.17.13,1.08.48.7s-.08-.8.14-1.19c.16.23.32.47.49.7-.19.28-.45.55-.14.84-.29.43-.58.83-.86.48.14-.22.26-.44,0-.68-.45.32-.15.67-.5,1C50.42,224.09,51.25,223.49,51.38,222.88Zm3.41,4.55c-.54.68-1.07.62-1.6-.24C53.73,226.7,54.26,226.93,54.79,227.43ZM45.62,215.7c.62-.39,1.23.7,1.86.24-.52.71-.87.53-1.62.45C46,216.17,45.8,215.93,45.62,215.7ZM65.14,241l-.5.65c-.32-.73-.65-.74-1,0l-.36-.53C63.91,240.46,64.53,240.84,65.14,241ZM48.33,217.16c-.37-.39-.74,0-1.11-.55C47.53,216,48.45,216.41,48.33,217.16Zm33.12,46.06c-.66.44-1.3-.36-2-.1C79.73,262,80.85,262.8,81.45,263.22Zm-35.8-50.91c-.08-.4.23-.79.38-1.17a1.15,1.15,0,0,1,1,0,4,4,0,0,1-.13,1.53c.58-1.2,1.16-.8,1.74-1,.52,1.21,1,1,1.84,1.6-.38.87-1.7.14-2.47-.09a.86.86,0,0,1,.11.85c-.74,0-1-.33-.61-.87-.57.18-2.35.72-2.84-1C45.26,212.76,45.11,212.13,45.65,212.31Zm6.49,8.22c-.2.85-.42,1.32-1.12.81C51.85,221.4,51.31,220.36,52.14,220.53Zm-4.77-6.12c.28.26.57.08.86.54C47.88,215.55,47,215.15,47.37,214.41ZM66.87,241c.2.15.41.15.62-.14l.6.87c.84-.78,1-.05,2-.59-.25.33.17.68-.26,1-.48-.67-1-.33-1.48-.06a1.53,1.53,0,0,1-.27,1.69c-.36-.27-.73-.34-1.09-.9.37-.55.74-.08,1.12-.8C67.88,241.4,66.94,241.73,66.87,241Zm.35.86c-.41.5-.82.33-1.22-.39C66.41,241.11,66.82,241.68,67.22,241.88Zm-16.65-26c.55.36-.31.67.24,1-.33.4-.66.38-1,0C49.82,216.43,50.25,215.86,50.57,215.89Zm36.09,52.16c-.34.4-.67.81-1,.29C86,267.75,86.33,267.89,86.66,268.05ZM49.84,214.5c.26.3.13.57.37.87-.3.48-.58.3-.87-.21Zm10.88,13.19a1.57,1.57,0,0,1,.37.86c-.54.16-1.08.58-1.61-.24C59.9,227.55,60.3,228.51,60.72,227.69Zm-8.79-11.58c.66.68,1.33-.22,2,.43-.66-.18-1.33,1-2,.25C52.09,216.57,51.83,216.33,51.93,216.11ZM54.87,220l.5-.66c.15.41.44.81.36,1.21C55.45,219.85,55.15,220.63,54.87,220Zm-3.54-5.75c.17-.44-.8-.93-.23-1.36.62,0,0,.71.61,1.21l-.63.82c-.14-.41-.88-.24-.61-.87C50.76,213.85,51,214.27,51.33,214.22Zm20.08,27.84c-.52-.4-.47.69-1.11.13C70.61,241.5,71.54,241.13,71.41,242.06ZM58.2,220.62c-.45.09-.91.38-1.36.11C57.3,219.93,57.75,220.44,58.2,220.62Zm33.71,48.54c-.29.24-.58.64-.86.13C91.05,268.63,91.59,268.39,91.91,269.16Zm-30-45c-.45-.24-.91.07-1.36-.56C60.91,223,61.91,223.61,61.88,224.17Zm12.24,18a3.84,3.84,0,0,1,1.72.41C75.32,243.29,73.85,243.45,74.12,242.18Zm-17.91-32c-.51.6,0,.2.24.68-.3.69-.58-.34-.87.14.4,1,.82.59,1.23,1.07.1.31.55,1.47-.14,1.18.26-.63-.47-.23-.61-.87-.51,1-1-.21-1.49.27-.36-.84-.61-1-1.23-1.07-.2.27.27.58.12.85-1.09-1-.46-1.65,0-3.05.27.3.07.57.11.86.21-.27.41.39.62.19a1.55,1.55,0,0,1-.36-.86c.45-.53.78.08.62-.82.3,0,.59-.16.87.54-.17.36-.51.16-.38.49A2.7,2.7,0,0,1,56.21,210.19Zm3.65,5.92c0-.62.42-.4.75-.64.21,1,.92.33,1.48.74-.58,1,.53,0,.73,1-.54.35-1.07-.43-1.61-.24-1,.95-.72,2.91-1.75,2.3C60.17,218.74,61,216.74,59.86,216.11ZM96.1,268.34c.09.4-.65.76-.15,1.18.67-.48.36-1,.64-1.49.2.36.41.2.61.53-.39,1.27-.89,1.54-1.27,2.66A3.77,3.77,0,0,0,94,269.43C94.52,268.84,95.24,268.15,96.1,268.34Zm-19-26c-.2.69-.62.86-1.12.46A2.72,2.72,0,0,1,77.08,242.31ZM53.37,208.2c-.22.33.32.69,0,1C52.77,209.4,52.79,207.9,53.37,208.2Zm8.82,10.22-1,1.31c-.16-.21-.33,0-.49-.36C60.58,218.61,61.61,217.93,62.19,218.42Zm15.87,24.27c.32.42.62.24.36.87-.24-.35-.5.22-.74-.38Zm-8.32-14.11c.66.83-.5,1.29-.88.82C69.15,228.77,69.44,229.22,69.74,228.58Zm-12.56-17a.83.83,0,0,1,.36,1.2C57.22,212.38,56.93,212,57.18,211.59Zm21.63,30.12c-.07.11-.13.22,0,.34.21-.29.41-.28.62-.14-.42.52-.83.66-1.24.28C78.4,242,78.61,241.52,78.81,241.71Zm-.32-3.24c-.4-.61-.83.57-1.23-.06C77.6,237.85,78.57,237.6,78.49,238.47ZM53.2,201.06c-.24.73.5.35.37-.15a1.25,1.25,0,0,1,.11,1.19c-.56-.2-.44.28-1.24,0C52.62,201.52,52.84,201.11,53.2,201.06Zm51.21,68.71c-.34.59-.66,0-1,0C103.77,269.12,104.09,269.14,104.41,269.77Zm-27-40.52c-.3.49-.59.3-.87-.2C76.82,228.56,77.1,228.75,77.39,229.25Zm10.75,15.28c.56.55-.14,1.46-.51.66C88,244.76,87.68,244.57,88.14,244.53ZM79.47,230.2a1.06,1.06,0,0,1,1.85.6c-.52-1-1.07.1-1.61.09C79.93,230.42,79.37,230.81,79.47,230.2ZM110.64,271c-.54.19-1.08.4-1.59-.26C109.56,270.28,110.53,270,110.64,271ZM64.21,204.42c-.25-.27-1.14-.39-1-1.06C63.49,203.09,64.37,203.83,64.21,204.42Zm10.29,9.94c.4.88.82.51,1.22,1.08-.46.6-.9-.39-1.37.79-.24-.49-.49-.08-.73-.72A3,3,0,0,0,74.5,214.36Zm17.55,24.42c.47.53.65,1.05.1,1.54-.38-.15-.49-1-1.1-.91C91.4,238.61,91.71,239.38,92.05,238.78ZM73.13,206.16c-.47.57-.93,1.05-1.38.79C72.21,206.39,72.68,205.5,73.13,206.16Zm10.42,16.09c-.3.49-.58.3-.86-.21C83,221.56,83.27,221.75,83.55,222.25Zm-3.62-6.62c-.46.5-.92.79-1.36.1C79,215.25,79.48,215.55,79.93,215.63Zm3.18,3.21c.64.7,1.32-.2,2,.09-.42,1.21-1.19.68-2.11.75-.13.24-.07.61-.37.15A1.54,1.54,0,0,1,83.11,218.84Zm10.42,12.72a1.63,1.63,0,0,1-1.86.42A1.56,1.56,0,0,1,93.53,231.56ZM76,204.75c-.34.41-.67.26-1,.3.25-.55,0-1.13.27-1.68C75.8,203.84,75.55,204.28,76,204.75Zm-2,.6c-.2-.86-.5-.49-1-1.06.85-.14,1.53-2,2-.59C74.31,203.94,74.35,204.65,74,205.35Zm2.09.94c-.25-.71-1.14.19-1-.72.46,0,.91-.22,1.36.56-.25.28-.18.56.11.86a1,1,0,0,1-1.25.29C75.53,206.94,76.32,207,76.1,206.29Zm8.53,10.24c-.33-.36-.67.25-1-.39C83.91,215.61,84.78,216,84.63,216.53Zm-1.49-.07c.37-.38-.37-.81.14-1.18C83.82,215.61,83.61,216.74,83.14,216.46Zm2.8,3.36c.34-.6.66-.39,1-.63.32.74.65.56,1,.73-.54.31-.3.35-.76,1-.21-.67-.38-.94-.87-.22A1.54,1.54,0,0,1,85.94,219.82Zm19.3,25.72c-.36.73-.88.39-.88,1.14l-.25-.35c-.08.08-.16.16-.24,0C104.09,245.53,104.71,245.05,105.24,245.54Zm15.46,24.92c.31.27.61-.14.6.55C121,271.7,120.35,271,120.7,270.46Zm-43.47-65a1.26,1.26,0,0,1-1.11-.56C76.43,204,77.34,205.2,77.23,205.49Zm25.41,34.14a1,1,0,0,1-1.48-.07A1,1,0,0,1,102.64,239.63ZM82.05,206.9c-.26-.23-.14.25-.38.49-.53-.17-.54-1.17-1.24-.39-.06.58.73.45.36,1.2-.49,0-.78-.32-1-1.06C80.49,206.21,81.81,205.84,82.05,206.9Zm17,26.45c.53.26,1.08-.7,1.6.25-.47.64-.92.34-1.38.78C99,234,98.86,233.68,99.06,233.35Zm-9.5-15.56c.25.06.49.25.73.71C89.94,219.27,89.19,218.29,89.56,217.79Zm-5.65-10.63a1.34,1.34,0,0,0-.26.67,1.23,1.23,0,0,1-.74-.71C83.25,206.72,83.58,206.74,83.91,207.16ZM92,218.24c-.37,0-.76,1.11-1.12.46C91.29,218.19,91.66,218,92,218.24Zm3.54,3.06c-.5.8-.65-.19-.89.81a1.59,1.59,0,0,1-.35-.87C94.75,220.62,95.16,220.64,95.57,221.3Zm-2.72-.47c.48.74,1-.63,1.48.41C93.89,222.2,92.85,221.69,92.85,220.83Zm-7.24-11.55c-.35.87-.66.07-1-.39C85,208.33,85.28,209.13,85.61,209.28ZM93.75,219c-.34.67-.67.17-1,.29C92.76,218.51,93.4,218.39,93.75,219Zm1.51-1.29c-.66.69-.93.72-1,1.65-.45,0-.3-.59-.48-1,.34-.6.67-.39,1-.63-.16-.19-.5-.11-.36-.53.75-.35,1.09.32,1.59.92-.13.28-.07.57-.38.83C95.11,218.51,95.43,218.12,95.26,217.72Zm1.82,1.95a2.45,2.45,0,0,1-2.48.22C94.73,218.3,96.24,219.09,97.08,219.67ZM85.32,204c-.63.27-1.24-.17-1.86-.26A1.28,1.28,0,0,1,85.32,204ZM89,209.27c0,.45-.11,1.31-.64.82C88.33,209.89,88.64,208.9,89,209.27Zm-.81-3.94c.68.43-.5.77-.14,1.18s.67-.67,1,.05c-.67.76-1.33.38-2,.24C87.19,206.07,87.86,206.42,88.15,205.33ZM98,221.76c.82-1,1.67.59,1.33,1.59C99,222.66,99.08,222.32,98,221.76Zm.16-2.2-.63.82c-.12-.24-.36-.47-.23-.69C97.6,220.2,97.92,218.6,98.19,219.56Zm-4.8-8.38c.36.41,0,.8-.15,1.18-.16-.21-.32,0-.49-.36Zm-2-4a1.84,1.84,0,0,1-.16,1.86C90.62,208.4,90.89,207.24,91.35,207.18Zm6.26,10.48c.38-.77,1,.21,1,.73C98,219.15,98.15,218.21,97.61,217.66Zm-4.15-10.55c.2.32.4.51.61.54-.61.38-.73-.32-1.13.79-.18-1.07-.61-.22-1.1-.9C92.39,206.93,92.91,207.78,93.46,207.11ZM96.9,209c-.77-1.21-2.23.29-2.59-1C95,208.11,97,207.14,96.9,209Zm-.75,0c-.24.33.17.68-.26,1-.2-.18-.41-.1-.61-.54C95.83,209.18,95.62,208.6,96.15,208.94Zm4.35-.3c.28.66.58-.12.86.54-.34.33-.67.53-1,.3C100.52,209.2,100.38,208.91,100.5,208.64Zm10.92,11.76c-.43.06-1.71.77-1.35-.58C110.43,220.57,111.47,219.68,111.42,220.4Zm12.2,18.3c.56.49-.15,1.5-.51,1C123.46,239.38,123.16,239,123.62,238.7Zm-12.55-19.17c-.3.49-.58.06-.86-.21.33-.29.31-1.43.64-1.15C110.73,218.61,111,219.08,111.07,219.53Zm.4-1.5c.62.51,0,1.69-.4,1.17C111.09,218.8,111,218.4,111.47,218Zm-4.91-8.24c.35,1,.75-.26,1.1.57a2.38,2.38,0,0,1-1.87.41Zm4.94,6.88-.51.65-.36-.53C110.93,216.12,111.21,216.56,111.5,216.67Zm2.15,3.51c.66-.83.54.59,1.23.74A.87.87,0,0,1,113.65,220.18Zm1.59.93.48.71c-.27.59-1.15.77-1,0C115.05,222.18,115.2,221.27,115.24,221.11Zm12.33,17.46c-.29.1-.57-.33-.85-.55a9.27,9.27,0,0,1,5.17.63c-.53,1.22-1-.66-1.49.25.32.42.62.24.35.87-.55,0-.3-.74-.83-1.24-.56.83-1.06-.5-1.62.42.33.17.66,0,1,.73-.26.47-.49,0-.75.64-.44-.27.13-1.32-.47-1-.37.37.36.81-.15,1.18-.25.1-.49-.07-.73-.38C127.21,239.57,127.72,239.09,127.57,238.57ZM113.7,217.81c.56,1,1.16.2,1.72.77-.34.67.09,1.26-.65,1.49-.58-.48-.12-.91-.22-1.37-.37.19-.74,0-1.12.45C113,218.67,113.32,218.24,113.7,217.81Zm-4.3-7.36c-.43.53-.86,1.23-1.26.61C108.56,210.81,109,209.89,109.4,210.45Zm9,14.22-.51.66-.36-.53C117.81,224.32,118.1,224.16,118.38,224.67Zm3.8-3.87c.21-.13.41-.11.61.2-.91.84-1.34-1.32-1.82-1.62l-.63.81a2.39,2.39,0,0,0-2.84-.65,2.6,2.6,0,0,1-.78,1.65c0-1.32-.46.44-1-.39a8,8,0,0,0,1.91-2.45c.78,1.55,2.22,0,3.23-.17-.12.34-.8.64-.52,1,.46-.47.91-.25,1.38-.78-.16-.18-.5-.11-.36-.53.45.6,1.57-.46,1.59.59-.59-.48-1.55.77-1,1.65.08-1.23,1.69-.46,1.73.09C123.22,220.14,121.89,219.57,122.18,220.8Zm.53-1.67a1,1,0,0,1,.89-.8c-.24.53.55.17.72.72C123.77,219.62,123.25,219.28,122.71,219.13Zm-13.32-8.34a2.35,2.35,0,0,1,1.85.27C110.65,211.37,109.56,211.75,109.39,210.79Zm5,6.2c-.24-.2-.5.36-.74-.38C113.81,215.74,114.57,216.56,114.34,217Zm2.34.63c-.31.46-1.24.66-1.11-.22C115.94,217.69,116.31,217.33,116.68,217.62Zm-4.32-6.68a.53.53,0,0,1-1,.29C111.71,210.64,112,210.78,112.36,210.94Zm20.87,28.29c-.11.76-.74.09-.64,1.15C132,239.87,132.87,238.71,133.23,239.23Zm1.36-.09c0,.75-.64.49-1,1.3l-.36-.53C133.68,239.38,134.15,238.6,134.59,239.14ZM120,218c-.3.12-1.24.7-1.1-.23C119.27,218,119.65,217.46,120,218Zm-2.23-5.38c-.3.48-.59.64-.87.12C117.21,212.24,117.5,212.08,117.78,212.59ZM125,220.1c.33.09.66,0,1,.06-.42.56-.44,1.21-1,1C125.25,220.79,124.71,220.42,125,220.1Zm2.56,1.67c.2.31.4.51.61.54l-.26.32c.07.12.12.24,0,.34-.67-.81-.18.72-.52,1-.28-.26-.58.15-.85-.55C127.17,222.87,127.18,222.31,127.6,221.77Zm-1.41-3.13c.16.29.49.59.35.86-.57-.34-1.17.62-1.72-.43C125.46,218.57,125.8,219.34,126.19,218.64Zm35.42,52.84c.43.49.1.92-.29,1.35a.71.71,0,0,0-.47-.37C160.85,272,161.29,271.45,161.61,271.48ZM140.14,239c.42-.34.83-.16,1.23.41-.4.59-.46,1.88-1.14,1.12C140.61,239.82,140.88,239.27,140.14,239Zm-9.71-16.53c-.47,0-.57-.6-.47-1.05a1.8,1.8,0,0,1-2.82-1,2.33,2.33,0,0,0,3-.17,1.68,1.68,0,0,0,.22,1.37c.06-.73.1-.79.64-.81.27.29.06.57.1.85.27-.9.27-.28.75-.3-.34-.72.43-.83.75-.29,0,.58-.54.39-.9,1.14C130.82,221.93,130.77,221.43,130.43,222.43Zm-9.06-15.08c.64.73,1.14-.87,1.51-.94.51.89-.26.74-.53,1.67-.24-.7-.5,0-.76.3C121.28,208,121.17,207.68,121.37,207.35Zm8.89,12a9.93,9.93,0,0,0,1.59.6,1.4,1.4,0,0,1-1.12.44C131,220.16,129.73,220.24,130.26,219.37Zm-4.5-9.08c0,.45-.55,1.29-.88.81C125.17,210.91,125.49,209.92,125.76,210.29Zm-.66-3.43c-.3.63-.58.18-.89.81.32.42.62.23.36.86-.38-.24-1.4.06-1.35-.92C123.76,207.14,124.32,206.25,125.1,206.86Zm8.08,14.37c.2.82,1.07-.4.85.56C133.68,222,132.79,222.24,133.18,221.23Zm-2.44-6.42c-.5.22-1,.08-1.49.25C129.3,214.59,130.72,214,130.74,214.81Zm-4.43-6.53a1.34,1.34,0,0,0-.26.67c-.29-.35-1.23-.21-1.1-.91C125.39,208.56,125.87,207.53,126.31,208.28Zm12.07,12.91a8.07,8.07,0,0,1-3,.51c.17.41.46.82.09,1.2-.12-1.45-.52-.38-1.21-1.09.47-.65.84-.63.67-1.84C135.72,221.89,137.21,220.41,138.38,221.19Zm31.19,50.63c-.4-.29-.84.71-1.23-.08C168.69,271.49,169.66,271,169.57,271.82Zm-20.68-32.53c.23.56.48.57.74,0,.46,1.07-.85,2.23-1.53,1.61C148.85,240.27,148.81,240.22,148.89,239.29Zm-20.11-30.54c-.75.37-1.49-.11-2.23-.11l.38-.49C127.54,208.63,128.17,208.27,128.78,208.75Zm11.55,18.16c-.49-.09-1.64.17-1.71-.78C139.11,226.58,140.28,225.72,140.33,226.91Zm-1.14-3.46c.64.77,1.31.16,2,.79a1.65,1.65,0,0,1-2.35-.3C139,224.17,139.17,223.7,139.19,223.45Zm-9.41-15c-.21.27.26.58.1.86-.32-.37-.67.23-1-.4C129.2,208.5,129.5,208.11,129.78,208.47Zm2.34.64c-.43.66-.84.57-1.25.27C131.29,209.23,131.72,208.69,132.12,209.11Zm7.25,12.14c.72-.74.84.1,1.34.93a1.4,1.4,0,0,0-.4.82l-.24-.35C140.32,221.83,140,221.53,139.37,221.25Zm-8.43-14.58c.65.24,1.33-.48,2,.46-.65.12-.46,1.24-1,1.29-.67-.39.05-1.56-.46-1.38-.2.38.11.8-.4,1.16C130.68,207.68,130.87,207.18,130.94,206.67Zm2.91,2.54a1.63,1.63,0,0,1-.52,1c-.31-.84-.66-.11-1-.74l.25-.32C133,209.83,133.24,209,133.85,209.21Zm9.71,12.62c-.58-.06-2.22,1.47-2-.11C142.22,222.48,142.92,221,143.56,221.83Zm3.63,2.93c-.34.32-.67.52-1,.28A.52.52,0,0,1,147.19,224.76Zm.18-1.86c-.75-.42-2.66.77-2.57-1C145.56,222.82,147,221.87,147.37,222.9Zm4.2,4.49c-.35.59-.67.44-1,.28C150.58,227.13,151.22,227,151.57,227.39Zm-.79-2.59c.65,1.47,1.39.33,2.07,1-.43,1-1.79.09-2.6,0C150.61,225.47,150.32,225.11,150.78,224.8Zm.26-.67c.7,1,.83-1.24,1.62-.42-.68.55-.35.4-.65,1.16C151.65,224.9,150.65,225.06,151,224.13Zm4.19.59c-.39.66-.76.68-1.13.44C154.14,224.54,154.87,223.83,155.23,224.72Zm-7.92-13.2c-.44.88-.84.33-1.25.27C146.48,211.63,146.91,211.09,147.31,211.52Zm-.23-.69a.53.53,0,0,1-1-.4C146.42,210.87,146.78,209.92,147.08,210.83Zm1.8,2c-.21.33.33.69.22,1-.3.48-.59.63-.87.12C148.64,213.67,148.24,212.5,148.88,212.8Zm0-3.57c-.06.27-.56.81-.41,1.51.3-.33.57.09.85.55-.63.43-1.28,1.42-1.88.74C148.38,211.27,147.71,208.37,148.86,209.23Zm10.85,18.66c-.24.73-1.06.41-.86-.23C159.13,227.94,159.44,227.17,159.71,227.89Zm-9.06-16c-.31.48-.6.63-.88.12C150.08,211.53,150.37,211.37,150.65,211.88Zm7.69,12.18c.59-.12,1.68-.3,1.84.63.46-.54,1.28.44,1.38-.76l.47.7c-.33.63-.62.17-.64.82-.69-.48-1.06-.51-1.25.59-.52-.37-.09-.68-.22-1l-.64.81C158.69,224.81,159.32,224.34,158.34,224.06Zm4.42,1.3c.65,1-.87,1.69-1.27.94.16-.28,0-.57.15-.84C162.45,225.39,162.17,226.72,162.76,225.36Zm1.39-1.1c.59.66-.05,1.24-.43,1.84-.2-.27-.42.27-.61-.21C163.59,224.79,163.82,225.49,164.15,224.26Zm3,4.09c-.38.29-.76.68-1.11.1C166.39,227.88,166.76,227.88,167.11,228.35Zm34.12,42.52c.3-.33,1.23-.62,1.09.24-.31-.43-.75.18-.76.63A1.55,1.55,0,0,1,201.23,270.87Zm-27.37-44.81c.69,1-1.24,2.2-1.14.77C173.24,227.3,173.21,226.14,173.86,226.06Zm29.34,44.6c.67-.29,2-.82,2.18.49-.86-.56-.4.83-.78,1.3-.44-.65-.25-1.26-.3-1.89C203.89,271.36,203.18,271.62,203.2,270.66Zm3.79.1c-.32-.17-.66.29-1-.08C206,269.62,207.47,270,207,270.76ZM173.94,212.3a.78.78,0,0,1-1.24-.08C173.14,211.48,173.54,211.9,173.94,212.3Zm2.26-.88c.36-1.3.59,0,1,.06-.29-.91.34-1.51.56-2,.59.77-.78,1.42-.2,2.19.14-.27.08-.56.4-.82.19,0,1,.63.71,1.07-.69-.63-3.39,2.36-2.72-.18-.5,0-1.67.66-1.72-.44C174.53,210.66,175.94,210.55,176.2,211.42Zm.8-1.65a2.14,2.14,0,0,1-1.87.4C175.76,209.71,176.4,209.17,177,209.77Zm38.17,58.87c.52.47,1.75-1,1.83.3C216.43,268.8,215.31,269.94,215.17,268.64Zm-35.92-59.41c.15.29.48.6.34.87-.6-.56-.86-.4-1.13.44C178.1,209.56,178.79,209.52,179.25,209.23Zm2.29,2c.26.67.59-.34.85.57C182,212.17,181.15,211.92,181.54,211.25Zm-.87-3.79c.31.36.42.7.22,1-.16-.18-.32-.54-.49-.37s-.25.31-.37.14Zm40.63,61.28c-.14.28-.08.56-.4.82-.26-.7-.56-.29-.83-.57C220.49,268.52,220.92,268.16,221.3,268.74ZM186,211.21c-.09.33.54.41.6.55.16-.27,0-.56.16-.84.65-.1.84.85.32,1.55-.66-.19-1.33,0-2-.47C185.6,211.66,185.78,211.2,186,211.21Zm37.45,59-.46-.71C223.4,268.79,224,269.78,223.45,270.26ZM189.2,212.11c.38-.26.75-.36,1.1.24-.39.55-.76.4-1.11.1C189.26,212.34,189.32,212.23,189.2,212.11Zm39.74,55.83c.28.27.57.1.84.57-.19.19.08,1.21-.41.82.27-.42,0-.85-.34-.54a1.72,1.72,0,0,1,0,1c-.23-.36-.5.2-.72-.4C228.9,269,228.31,268.4,228.94,267.94Zm-36-57.28c.53.37,1.74-.2,1.84.64-.37-.27-.75.12-1.12.09.19.37.4.21.6.55-.36.28-.9.47-.91,1.13A9.29,9.29,0,0,1,193,210.66Zm38.42,57.46c-.2.38-.08.79-.42,1.16C230.7,268.78,230.82,267.57,231.39,268.12Zm-35.86-56.43a2.27,2.27,0,0,1,.29,2.22.77.77,0,0,0-.48-.37C195.64,212.94,194.89,212.27,195.53,211.69Zm36.92,57.36c-.3.47-.59.63-.86.11C231.9,268.69,232.19,268.53,232.45,269.05Zm-35.29-57.76c-.67.14-1.33.37-2-.14.71-.14.86-.44,1.38-.41a.45.45,0,0,0,.11.51C196.84,211.08,197,210.92,197.16,211.29Zm1,.74c-.16.27.11.58.09.86a1.53,1.53,0,0,1-2.11,0c.41-.42.13-.89.54-1.32C197.14,211.91,197.64,211.66,198.13,212Zm37.43,56.08c-.46.47-.81.95-.68,1.47-.34-.47-.73,0-1.09-.25.74-1.05-.32-.68.06-1.35C234.39,268.66,235,267.77,235.56,268.11Zm-36.5-57.89c.25.31.11.58.34.88.13-.16.06-.34.14-.5.53.43.21.8-.16,1.17-.16-.18-.32-.53-.49-.37.12.24-.07.45-.27.66-.12-.17-.23-.35-.35-.53C199,210.83,198.84,211,199.06,210.22Zm1.64,2.49c.43-.39.83.09,1.24.09C201.5,213.62,200.7,213.72,200.7,212.71Zm2.78-1.17c.37-.11.76-.49,1.12-.09-.36.78-.67.14-1,.27.07.17.23.35.11.52A1.3,1.3,0,0,1,203.48,211.54Zm2.8,1.38c-.4-.38-.84.23-1.23-.42C205.41,212.07,206.38,212.1,206.28,212.92Zm-.27.32c.12.11.25.08.38-.14a.85.85,0,0,1,.21,1c-.2-.22-.41,0-.61-.22C206.16,213.71,205.9,213.46,206,213.24Zm2.84.38a1.33,1.33,0,0,1-2,.2C207.55,213.11,208.18,213.91,208.85,213.62Zm.45-1.84c-.29,1.17-1.06,1-1.65.73C208.22,211.79,208.78,211.29,209.3,211.78Zm3,2.43c.12.29,0,.57.34.87-.56.6-1.11.89-1.62.06C211.67,215.1,212.27,214.66,212.3,214.21Zm7.4-2c-.31.46.38.09.46.72-.24.52-1-.09-.84-.57C219.57,212.63,219.47,212,219.7,212.19Zm51,1.57c.32.29.66.12,1,.76a2,2,0,0,1-1.54.9l-.34-.54C270.52,214.55,270.4,214.69,270.72,213.76Zm4,1.19c-.5-.87-1.28.51-1.07-.94C274,214.43,274.92,214.05,274.76,215Zm45.79,52.87c-1.2,1.11,1.18.42-.13,2-.37-.77-.25-.82-.8-.93C319.74,268.45,320,267.26,320.55,267.82Zm-1.35,1.91c-.15-.19-.29-.54-.47-.38-.19.34,0,1.57-.57,1.31-.07-.4.26-.77-.05-1.2.67-.1.67-1.53,1.33-1.58C319.54,268.52,319.76,269.16,319.2,269.73ZM287,214.26c.4-.45.75-.17,1.12-.07,0,.59-.55.37-.93,1.11C286.73,214.93,287.18,214.63,287,214.26Zm35.44,53.55c.31.6.07,1.14.14,1.72-.3-.38-.69.64-1-.09C321.94,268.6,322,268.72,322.39,267.81ZM289.51,215c-.58-.38-.48.77-1,.25C288.41,214.86,289.73,213.88,289.51,215Zm33.24,53c.27-.38.51-.36.73.06-.16.41-.29.69-.53.64C323.08,268.5,322.91,268.26,322.75,268ZM326,213c-.42-.58-.94.46-1.37,0C325.06,212.16,326.08,212.12,326,213Zm2-.16c-.61-.12-1.25.25-1.84-.34C326.81,211.86,327.43,211.88,328,212.83Zm.92-.77-.54.63-.33-.54C328.37,211.49,328.63,211.93,328.91,212.06ZM367.08,242c.36.6,0,1.14-.37,1.67-.61.39-1.47.27-2.41.94-.11-.23-.34-.49-.2-.7A9.3,9.3,0,0,1,367.08,242Zm3.32.17a1.37,1.37,0,0,1,.18,1c-.84.1-1.7.62-2.5.43C368.86,243,369.62,242.78,370.4,242.18Zm-18.78-31.69c-.13.66-1.09,1.28-1.55.87C350.63,210.5,351.11,210.65,351.62,210.49Zm22.58,30.37c-1.11.82-2.05,1.08-2.64,2.46l-.45-.73C371.87,242.29,372.85,240.11,374.2,240.86Zm-13.57-35a1,1,0,0,1,.66-.44c.58.85-.51,1.54.33,2.42-.46.1-1,.84-1.37,0C361.06,208,361.35,206.89,360.63,205.91Zm22.63,36.22c.33.49-.11.9-.1,1.35-.27-.28-.59.12-.82-.59C382.65,242.52,382.92,242.74,383.26,242.13Zm-4.05-14.22c.33.24.64-.94.84-1.28.5.39.05.69.17,1,.13-.08.25,0,.35.21-.62.13-1.14-.07-.94,1.1C379.33,229,379.15,228.36,379.21,227.91Zm-3.9-16.58c-.26-.53-.62.46-.86-.26C374.73,210.35,375.54,210.69,375.31,211.33Zm3.45.35c-.65.47-1.31.92-1.88.32C377.5,212,378.19,211.05,378.76,211.68Zm2.45.59c-.36.3-.71.61-1-.11C380.58,211.79,380.91,211.82,381.21,212.27Zm0-3.41c.29.57.42.58.5,0,.52.61-.62,1.21-.79.6A1.3,1.3,0,0,0,381.2,208.86Zm21.65,8.25a1,1,0,0,1-1.07.91C401.82,217.56,402.52,216.58,402.85,217.11Z"/><path class="cls-2" d="M111.84,206.33c-.16.32.32.17.11.52,1.4-1.57,2.74-.24,4.12-1a5.45,5.45,0,0,0-3.47-.52c-.13.22.11.46.24.69C112.5,206.09,112.16,206.49,111.84,206.33Z"/><path class="cls-2" d="M28.05,264.22c.41.45.82-.32,1.23-.29C28.87,263.84,28.46,263.53,28.05,264.22Z"/><path class="cls-2" d="M50.17,261c-.31.27-.24.55-.37.83.2.19.41-.27.62-.48a1.41,1.41,0,0,0,.23.69C51,261.41,50.5,261.36,50.17,261Z"/><path class="cls-2" d="M31.76,235.36c-.5.19.78.14.74,1,.21-.39.08-.79.13-1.19C32.08,234.68,32.3,235.9,31.76,235.36Z"/><path class="cls-2" d="M39.84,245.85a.69.69,0,0,0,0,1c0-.44.3-.6.62-.48C40.71,245.94,40,246.1,39.84,245.85Z"/><path class="cls-2" d="M38.38,241.72c0-.28.16-.56-.11-.85a1.62,1.62,0,0,0-.5,1c.24.31.49-.43.74,0C38.62,241.68,38.45,241.63,38.38,241.72Z"/><path class="cls-2" d="M56,266.34c.43.79.3-.42.49-.66.35-.38,0,.53.49.7.66-1,1.31-.7,2-.25.12-.34.14-.68.26-1a2.21,2.21,0,0,1-2.58.06C56.36,265.94,56,265.76,56,266.34Z"/><path class="cls-2" d="M37.18,237.6c1.5-.19,2.5.11,4-.86-.18-.34-.53-.17-.37-.53-.54-.33-.32.26-.86.48.1-.86-1.86-.24-1.35-.9C38.24,235.14,37.42,236.77,37.18,237.6Z"/><path class="cls-2" d="M62.45,272.22c.37.67,1.79.64,2.57.28C64.17,272.45,63.31,272.27,62.45,272.22Z"/><path class="cls-2" d="M20.62,208.67c0,.62-.42.28-.75,1,.8.37.77-.23,1.12-.47C21.12,208.87,20.78,209,20.62,208.67Z"/><path class="cls-2" d="M40.39,237.73c.45-.18.9.27,1.35-.46C41.3,236.47,40.84,237.58,40.39,237.73Z"/><path class="cls-2" d="M61,263.16c-.35.27,0,.57-.13.84.28.32.57-.08.86-.13C61.91,263.37,61.13,264.09,61,263.16Z"/><path class="cls-2" d="M33.34,218.12c.12-.17-.05-.34-.12-.52.25-.46.5,0,.75-.65-.5-.26-1-.6-1.49.29C33,217.63,33.13,217.19,33.34,218.12Z"/><path class="cls-2" d="M47.12,228.48c.64-.44.55.39,1.23.39a11.08,11.08,0,0,1,.51-1.34C48.31,228,47.28,227.86,47.12,228.48Z"/><path class="cls-2" d="M74.79,266.31c-.22-.63.65-.27.5-1-.28-.51-.58.5-.85-.21.1.71-.57,1,0,2,.33-.33.66-.53,1-.3C75.65,266.41,74.93,266.56,74.79,266.31Z"/><path class="cls-2" d="M77,267.08c.57.58,1.16-.68,1.71.42.4-.62-.33-.46-.11-.86C78.05,266.82,77.52,266.69,77,267.08Z"/><path class="cls-2" d="M79.57,266.35c-.23-.29-.1-.57-.36-.86a1.77,1.77,0,0,1-2.08-.27c.11,1.43,1.3.34,1.82,1.61.42-.85.82-.28,1.22.4.73-.23.73-.63,1.37-1.12-.25-.18-.49-.2-.73-.38-.35.27,0,.57-.14.84-.12.1-.25,0-.37.16-.14-.35.29-.67-.23-1C79.74,265.74,79.61,265.91,79.57,266.35Z"/><path class="cls-2" d="M45.75,200.1c-.12.22,0,.26.12.17.19.23.37.47.25.69.2.18.41-.27.62-.49C46.41,200.2,46.08,200.26,45.75,200.1Z"/><path class="cls-2" d="M57.75,205.16c-.21.43,1.61,1.37,2.23.44-.18-.16-1,.43-.74-.37C58.75,204.8,58.23,206.07,57.75,205.16Z"/><path class="cls-2" d="M64,208c.52.33.75,1.59,1.48.74-.13-1.35-1.36-.27-1.21-1.75C63.75,207.29,64.6,207.66,64,208Z"/><path class="cls-2" d="M88.05,234.35c-.27.67.47.28.61.53.24-.24.12-.72.38-.49.13-.1.07-.22,0-.34l-.25-.35c.14.26-.61,1.23-.37.5C88.19,234,88.31,234.64,88.05,234.35Z"/><path class="cls-2" d="M78,210.1c0,.63,1.06.5,1.48.76-.15,1,.85,1.76,1.21,2.09a15.15,15.15,0,0,0-.58-2.91c-.11,1.71-.78-.29-1.61-.25C78.48,210.22,78.35,210.38,78,210.1Z"/><path class="cls-2" d="M82.07,213.53c.16.7,1.4.45,2,.77.38-.6-.86-.34-.48-1C83.34,213.46,82.63,214.08,82.07,213.53Z"/><path class="cls-2" d="M80.87,210.75c-.5.41,0,.6.25.35a.85.85,0,0,1,.11.86c.2.17.41,0,.61.2-.22-.3-.38-1.44.38-.49.14-.28-.19-.58-.35-.87C81.53,211.2,81.2,211.18,80.87,210.75Z"/><path class="cls-2" d="M87.18,211.9c-.21-.17-.41,0-.62-.2-.48.38.09.8-.39,1.17C86.57,212.83,86.59,212.41,87.18,211.9Z"/><path class="cls-2" d="M92.76,204.7c-.05.62-.18.19-.51.65.47.42-.29.78.35,1.21l.38-.49c-.23-.46-.44-1,.26-.67C93.54,204.94,92.86,205.32,92.76,204.7Z"/><path class="cls-2" d="M101.71,217c-.32-.22-.07.45.12.18a1.28,1.28,0,0,1-.27,1c.4.22,1-1,.52-1.33C102,217.08,101.83,217.11,101.71,217Z"/><path class="cls-2" d="M115.6,238.79c.17.17.2-.07.13-.16.38-.55.72.91,1.11-.12-.39-.87-.81-.25-1.22-.4C115.51,238.33,115.77,238.57,115.6,238.79Z"/><path class="cls-2" d="M106.05,204.16c-.48-.72-1-.72-1.48-.42.56,1,1.14.72,1.71,1.45.28-1.18,1.12-.49,1.75-.92C107.91,204.32,106.2,203.21,106.05,204.16Z"/><path class="cls-2" d="M107.64,205.43c.66.17,1.33-.65,2,.11.15-1.91,1.95.52,2.86-.36,0-.28-.25-.58-.1-.86-.54.13-1.1,1-1.61-.25-.8.62-1.58.1-2.36.05-.14.27.2.57.36.86C108.38,205.28,108,204.65,107.64,205.43Z"/><path class="cls-2" d="M106.35,201.46c.15,1.8,3,1.8,3.58,1C108.78,202.32,107.08,203,106.35,201.46Z"/><path class="cls-2" d="M115.62,203.82a5.06,5.06,0,0,0,1.47.41C117.1,203.54,116,203.66,115.62,203.82Z"/><path class="cls-2" d="M122.3,204.84c.77.73,2.62.86,3.83.72-.5-1-1,.08-1.22-1.09-.12,1.23-1-.24-1.5.6-.46-.49.38-1.18-.35-1.2C123.27,204.77,122.92,205,122.3,204.84Z"/><path class="cls-2" d="M122.09,203.14c0,.93,1.06.2,1.48.42.27-.63-.47-.24-.6-.89C122.52,203.36,122.64,203.55,122.09,203.14Z"/><path class="cls-2" d="M126.37,205.57a3.76,3.76,0,0,0,2.59.65C128.61,204.1,127.19,205.27,126.37,205.57Z"/><path class="cls-2" d="M139.72,207.69c.37.17.73,0,1.37-.09l-.36-.54C140.38,207.86,140.07,207.09,139.72,207.69Z"/><path class="cls-2" d="M146.85,205.55l-.77,1c.63.3.66-1.07,1.38-.43C147.73,205.66,147,205.81,146.85,205.55Z"/><path class="cls-2" d="M154,206.64c.17,1.61.76-.81,1.34.93a1.24,1.24,0,0,1,.27-.66C155.11,206.11,154.55,206.79,154,206.64Z"/><path class="cls-2" d="M165.8,206.86c-.31-.22-.07.45.12.18.21.41-.11.79-.16,1.18.41.1.85-.68,1.24.08.55-1.64,1.19-.54,1.88-.73s-.28-.7.28-1c-.71.42-1.39-.34-2.12.38-.23-.29-.09-.57-.35-.87A.82.82,0,0,1,165.8,206.86Z"/><path class="cls-2" d="M186,208.66c.63.81,1.35-.85,2,.14.14-.28-.19-.58-.34-.88C187,208.93,186.54,207.66,186,208.66Z"/><path class="cls-2" d="M199,208.35c0,.65,1.55.8,1.6.28C200.08,208.48,199.53,208.83,199,208.35Z"/><path class="cls-2" d="M211.25,212.6a8.66,8.66,0,0,0,.3-1.34c-.32-.24-.66,0-1,.27.22.59.49,0,.74.06C211.5,212,210.48,211.9,211.25,212.6Z"/><path class="cls-2" d="M259.06,211.27c-.11.91.89.31,1.2.78.14-.1.08-.22,0-.34l-.23-.35C259.7,211.83,259.39,211.25,259.06,211.27Z"/><path class="cls-2" d="M299.91,274.28c.69.18,1.39,0,2.07.35.33-1,1.22-.43,1.86-.35.08-.16,0-.34.15-.5-.12-.12-.06-.23,0-.33C302.62,274.06,301.3,273.58,299.91,274.28Z"/><path class="cls-2" d="M331.56,207.37c.68-.39-.1-.92.58-1.31-.11-.12-.24,0-.36-.21l-.27.32C332.14,206.63,330.94,206.91,331.56,207.37Z"/><path class="cls-2" d="M337.07,208.74c.64,1,0-1.31.67-.79.26-.59-.52-.66-.74-.07C337.27,208.19,337.33,208.48,337.07,208.74Z"/><g id="re"><path class="cls-3" d="M132.19,256.19h-2.41l-3-8a18.73,18.73,0,0,0-1-2.17,7.79,7.79,0,0,0-1.25-1.77,5.59,5.59,0,0,0-1.63-1.2,5,5,0,0,0-2.16-.44H110.25v13.57h-2.19V226.12H121.6a19.93,19.93,0,0,1,3.66.34,9.07,9.07,0,0,1,3.16,1.23,6.27,6.27,0,0,1,2.21,2.43,8.37,8.37,0,0,1,.82,4,10.18,10.18,0,0,1-.37,2.82,7.3,7.3,0,0,1-1.12,2.33A6.81,6.81,0,0,1,128,241a8.15,8.15,0,0,1-2.73,1.06,10.64,10.64,0,0,1,1.4,1.26,7.39,7.39,0,0,1,1,1.29,11.12,11.12,0,0,1,.71,1.51c.21.55.46,1.18.73,1.9Zm-21.94-15.76h10.44a19.19,19.19,0,0,0,3.82-.33,6.6,6.6,0,0,0,2.62-1.09,4.48,4.48,0,0,0,1.52-2,7.84,7.84,0,0,0,.5-3,5,5,0,0,0-2-4.43,10.48,10.48,0,0,0-5.86-1.33H110.25Z"/><path class="cls-3" d="M147.05,256.74a10.31,10.31,0,0,1-4-.76,8.54,8.54,0,0,1-3.11-2.19,9.93,9.93,0,0,1-2-3.53,14.54,14.54,0,0,1-.72-4.75,14.76,14.76,0,0,1,.69-4.66,10.11,10.11,0,0,1,2-3.51,8.54,8.54,0,0,1,3-2.21,9.45,9.45,0,0,1,3.85-.77,9.72,9.72,0,0,1,3.92.77,8.31,8.31,0,0,1,3,2.21,10,10,0,0,1,1.89,3.51,15.47,15.47,0,0,1,.66,4.68v.5H139.36a12.84,12.84,0,0,0,.8,3.76,8.11,8.11,0,0,0,1.64,2.65,6.5,6.5,0,0,0,2.35,1.58,7.87,7.87,0,0,0,2.9.52,9.79,9.79,0,0,0,2.2-.26,7.12,7.12,0,0,0,2-.78,5.32,5.32,0,0,0,1.49-1.29,3.43,3.43,0,0,0,.72-1.76h2.17a7.52,7.52,0,0,1-1.08,2.68,7.38,7.38,0,0,1-1.89,2,8.38,8.38,0,0,1-2.55,1.23A11.18,11.18,0,0,1,147.05,256.74Zm6.84-12.91a9.12,9.12,0,0,0-2.49-5.46,6.7,6.7,0,0,0-4.76-1.81A7.6,7.6,0,0,0,144,237a6.25,6.25,0,0,0-2.16,1.35,7.47,7.47,0,0,0-1.59,2.28,11.44,11.44,0,0,0-.92,3.21Z"/><path class="cls-3" d="M175.85,253.25a11.62,11.62,0,0,1-1.93,1.84,9.29,9.29,0,0,1-1.84,1.06,7.51,7.51,0,0,1-1.73.48,13.07,13.07,0,0,1-1.61.11,7.57,7.57,0,0,1-3.54-.8,7.21,7.21,0,0,1-2.58-2.24,10.36,10.36,0,0,1-1.58-3.47,17.59,17.59,0,0,1-.54-4.53,16.12,16.12,0,0,1,.65-4.74,11.06,11.06,0,0,1,1.78-3.57,7.89,7.89,0,0,1,2.69-2.25,7.36,7.36,0,0,1,3.34-.78c.51,0,1,0,1.57.08a9.22,9.22,0,0,1,1.64.34,9,9,0,0,1,1.77.79,10.5,10.5,0,0,1,1.91,1.4V226.12h2.2v30.07h-2.2Zm0-13.62a10.89,10.89,0,0,0-3.09-2.3,8,8,0,0,0-3.55-.77,6.15,6.15,0,0,0-2.68.56,5.37,5.37,0,0,0-2.05,1.7,8.51,8.51,0,0,0-1.31,2.86,15.41,15.41,0,0,0-.47,4q0,4.34,1.68,6.59a5.47,5.47,0,0,0,4.66,2.25,6.49,6.49,0,0,0,3.63-1.08,12.53,12.53,0,0,0,3.18-3.23Z"/><path class="cls-3" d="M193.73,256.74a10.28,10.28,0,0,1-4-.76,8.58,8.58,0,0,1-3.12-2.19,10.06,10.06,0,0,1-2-3.53,14.54,14.54,0,0,1-.72-4.75,14.76,14.76,0,0,1,.69-4.66,10.11,10.11,0,0,1,1.95-3.51,8.54,8.54,0,0,1,3-2.21,9.42,9.42,0,0,1,3.85-.77,9.72,9.72,0,0,1,3.92.77,8.31,8.31,0,0,1,3,2.21,10,10,0,0,1,1.89,3.51,15.47,15.47,0,0,1,.66,4.68v.5H186a12.52,12.52,0,0,0,.8,3.76,8.11,8.11,0,0,0,1.64,2.65,6.5,6.5,0,0,0,2.35,1.58,7.83,7.83,0,0,0,2.9.52,9.63,9.63,0,0,0,2.19-.26,7.07,7.07,0,0,0,2-.78,5.32,5.32,0,0,0,1.49-1.29,3.52,3.52,0,0,0,.72-1.76h2.16a7.34,7.34,0,0,1-3,4.65,8.38,8.38,0,0,1-2.55,1.23A11.18,11.18,0,0,1,193.73,256.74Zm6.83-12.91a9.06,9.06,0,0,0-2.48-5.46,6.7,6.7,0,0,0-4.76-1.81,7.6,7.6,0,0,0-2.61.43,6.25,6.25,0,0,0-2.16,1.35,7.47,7.47,0,0,0-1.59,2.28,11.44,11.44,0,0,0-.92,3.21Z"/><path class="cls-3" d="M215.58,256.74q-7.82,0-8.54-6.29h2.23a4.18,4.18,0,0,0,1.77,3,7.81,7.81,0,0,0,4.52,1.08,9.27,9.27,0,0,0,2.55-.31,6,6,0,0,0,1.83-.86A3.44,3.44,0,0,0,221,252.1a3.64,3.64,0,0,0,.36-1.6,3.38,3.38,0,0,0-.29-1.45,2.83,2.83,0,0,0-1-1.1A10.07,10.07,0,0,0,218,247c-.87-.3-2-.62-3.34-1-1.15-.29-2.18-.6-3.07-.91a8.17,8.17,0,0,1-2.27-1.15,4.5,4.5,0,0,1-1.39-1.66,5.63,5.63,0,0,1-.46-2.43,5,5,0,0,1,.53-2.29,5.14,5.14,0,0,1,1.5-1.75,7.29,7.29,0,0,1,2.33-1.1,11.57,11.57,0,0,1,3.05-.38,10.51,10.51,0,0,1,5.75,1.28,5,5,0,0,1,2.19,4h-2.23a3,3,0,0,0-1.52-2.35,8,8,0,0,0-3.89-.75,10.25,10.25,0,0,0-2.22.22,5.9,5.9,0,0,0-1.75.64,3.35,3.35,0,0,0-1.14,1.07,2.71,2.71,0,0,0-.41,1.47,3,3,0,0,0,.17,1,2.34,2.34,0,0,0,.84,1,8.12,8.12,0,0,0,2,1.05,30.29,30.29,0,0,0,3.68,1.12,29.83,29.83,0,0,1,3.2,1,8.19,8.19,0,0,1,2.25,1.21,4.6,4.6,0,0,1,1.34,1.63,5.2,5.2,0,0,1,.43,2.2,6.11,6.11,0,0,1-.56,2.62,5.86,5.86,0,0,1-1.59,2.1,7.6,7.6,0,0,1-2.51,1.39A10.21,10.21,0,0,1,215.58,256.74Z"/><path class="cls-3" d="M231.92,256.19h-2.19V234.91h2.19Zm0-26.64h-2.2v-3.43H232Z"/><path class="cls-3" d="M255.26,254.93a14.9,14.9,0,0,1-.55,4.35,7.07,7.07,0,0,1-1.63,2.92,6.51,6.51,0,0,1-2.73,1.65,12.61,12.61,0,0,1-3.82.52,12.2,12.2,0,0,1-3.27-.4,7.67,7.67,0,0,1-2.5-1.14,5.23,5.23,0,0,1-1.63-1.84,5.9,5.9,0,0,1-.67-2.5h2.19a3.35,3.35,0,0,0,1.57,2.79,8,8,0,0,0,4.23.89,9.56,9.56,0,0,0,2.88-.39,4.68,4.68,0,0,0,2.06-1.31,6,6,0,0,0,1.25-2.39,13.56,13.56,0,0,0,.42-3.65v-1.34a13.8,13.8,0,0,1-2,2,8.38,8.38,0,0,1-1.83,1.09,6.07,6.07,0,0,1-1.69.47,14.42,14.42,0,0,1-1.58.1,7.63,7.63,0,0,1-3.54-.8,7.29,7.29,0,0,1-2.58-2.24,10.36,10.36,0,0,1-1.58-3.47,17.6,17.6,0,0,1-.53-4.53,16.13,16.13,0,0,1,.64-4.74,11.07,11.07,0,0,1,1.79-3.57,7.71,7.71,0,0,1,2.69-2.25,7.28,7.28,0,0,1,3.33-.78,12.5,12.5,0,0,1,1.59.11,8.77,8.77,0,0,1,1.71.4,10.65,10.65,0,0,1,3.59,2v-2h2.2Zm-2.2-15.3a10.72,10.72,0,0,0-3.08-2.3,8.07,8.07,0,0,0-3.56-.77,6.15,6.15,0,0,0-2.68.56,5.34,5.34,0,0,0-2,1.7,8.33,8.33,0,0,0-1.32,2.86,15.41,15.41,0,0,0-.47,4q0,4.34,1.68,6.59a5.47,5.47,0,0,0,4.66,2.25,6.49,6.49,0,0,0,3.63-1.08,12.53,12.53,0,0,0,3.18-3.23Z"/><path class="cls-3" d="M264.49,238.07a11.78,11.78,0,0,1,2.1-2,9,9,0,0,1,2-1.12,7.34,7.34,0,0,1,1.86-.49,16,16,0,0,1,1.64-.09q6.57,0,6.57,7.74v14.09h-2.2v-13.9a11.28,11.28,0,0,0-.26-2.56,4.39,4.39,0,0,0-.85-1.79,3.66,3.66,0,0,0-1.54-1,6.84,6.84,0,0,0-2.32-.34,6.69,6.69,0,0,0-3.56,1.07,15.11,15.11,0,0,0-3.44,3v15.54h-2.2V234.91h2.2Z"/><path class="cls-3" d="M294.28,256.74a10.31,10.31,0,0,1-4-.76,8.54,8.54,0,0,1-3.11-2.19,9.93,9.93,0,0,1-2-3.53,14.54,14.54,0,0,1-.72-4.75,14.76,14.76,0,0,1,.69-4.66,10.11,10.11,0,0,1,1.95-3.51,8.54,8.54,0,0,1,3-2.21,9.45,9.45,0,0,1,3.85-.77,9.72,9.72,0,0,1,3.92.77,8.31,8.31,0,0,1,3,2.21,10,10,0,0,1,1.89,3.51,15.47,15.47,0,0,1,.66,4.68v.5H286.59a12.84,12.84,0,0,0,.8,3.76,8.11,8.11,0,0,0,1.64,2.65,6.5,6.5,0,0,0,2.35,1.58,7.87,7.87,0,0,0,2.9.52,9.79,9.79,0,0,0,2.2-.26,7.12,7.12,0,0,0,2-.78,5.32,5.32,0,0,0,1.49-1.29,3.43,3.43,0,0,0,.72-1.76h2.17a7.52,7.52,0,0,1-1.08,2.68,7.38,7.38,0,0,1-1.89,2,8.38,8.38,0,0,1-2.55,1.23A11.18,11.18,0,0,1,294.28,256.74Zm6.84-12.91a9.12,9.12,0,0,0-2.49-5.46,6.7,6.7,0,0,0-4.76-1.81,7.6,7.6,0,0,0-2.61.43,6.25,6.25,0,0,0-2.16,1.35,7.47,7.47,0,0,0-1.59,2.28,11.44,11.44,0,0,0-.92,3.21Z"/><path class="cls-3" d="M323.08,253.25a11.62,11.62,0,0,1-1.93,1.84,9.29,9.29,0,0,1-1.84,1.06,7.51,7.51,0,0,1-1.73.48,13.07,13.07,0,0,1-1.61.11,7.57,7.57,0,0,1-3.54-.8,7.21,7.21,0,0,1-2.58-2.24,10.36,10.36,0,0,1-1.58-3.47,17.59,17.59,0,0,1-.54-4.53,16.12,16.12,0,0,1,.65-4.74,11.06,11.06,0,0,1,1.78-3.57,7.89,7.89,0,0,1,2.69-2.25,7.36,7.36,0,0,1,3.34-.78c.51,0,1,0,1.57.08a9.22,9.22,0,0,1,1.64.34,9,9,0,0,1,1.77.79,10.5,10.5,0,0,1,1.91,1.4V226.12h2.2v30.07h-2.2Zm0-13.62a10.89,10.89,0,0,0-3.09-2.3,8,8,0,0,0-3.55-.77,6.15,6.15,0,0,0-2.68.56,5.37,5.37,0,0,0-2.05,1.7,8.51,8.51,0,0,0-1.31,2.86,15.41,15.41,0,0,0-.47,4q0,4.34,1.67,6.59a5.5,5.5,0,0,0,4.67,2.25,6.49,6.49,0,0,0,3.63-1.08,12.53,12.53,0,0,0,3.18-3.23Z"/></g></g></g></svg>