<svg xmlns="http://www.w3.org/2000/svg" viewBox="0 0 397.25 264.37"><g id="Layer_2" data-name="Layer 2"><g id="Layer_2-2" data-name="Layer 2"><g id="mal"><path d="M.9,107.49C.44,92.29.2,75.74.08,58.83S0,24.62.05,7.5l41.7,62.32Q46.9,77.4,52,84.89l4.59,6.73a18.91,18.91,0,0,0,1.39,1.92,11.86,11.86,0,0,0,2.33,2.37l.18.09c.68-1.56,1.11-2.7,1.39-3.56l.1-.3,0-.07V92h0l0-.06.73-1.1,3-4.54L77.3,69.49c15.62-22.66,32-46.1,48.38-69.49.08,23.92.15,47.81.23,71.45,0,17.72,0,35.27,0,52.49-1.36,0-3.4-4.29-4.09,0-2,17.12-4.76,17.12-7.49,17.12-1.36,0,0-12.84-1.36-8.56,0-12.85-.68-34.27-2-21.41-1.37,4.28,0,21.41-2,25.69s-4.09-4.28-6.13,0v17.13c-1.37,4.28-4.09-4.28-4.09,0-1.36,12.85-.68,30-.68,47.1-1.36,0-2.73,4.3-3.41-4.27q-.36-35.94-.73-72.18-.1-9.06-.2-18.13V105.3l0-.21,0-.39-.1-.7a8.5,8.5,0,0,0-.39-1.76,25.42,25.42,0,0,0-1.27,2.52,3.31,3.31,0,0,0-.13.36l-7.67,11L59.8,150.51,36.56,116.32l-5.06-7.45-.74-1.08c-.08-.13-.05-.08-.06-.09h0a.14.14,0,0,0,0,.07,1.74,1.74,0,0,0,.23.63,1,1,0,0,0,0-.41,1,1,0,0,0,0-.25l-.06,15.06q-.16,35.34-.64,70.43c-.68,17.13-3.4,4.28-5.44-8.57.68,4.28-1.37,4.28-.68,8.57-2,0-5.45-8.57-6.13-25.7v12.85c-.68,4.28-2,0-3.41,0,0-4.29,0-8.57-.68-8.57H11.12V189c0-4.28,0-8.56-.68-8.56H7.71c-.68-8.57.68-21.41,0-30h-2c-.68,8.58,0,21.42,0,30C5,176.1,4.31,176.1,2.94,176.1c-.68-12.85,1.37-25.7-.68-38.54V150.4C.56,146.12.39,138.63.56,130.6c.12-4,.24-8.16.36-12.11.06-2,.09-3.9.1-5.73,0-.91,0-1.81,0-2.67l0-1.28Z"/><path d="M156.59,143.58c1.93-6.9,4.31-14.06,6.9-21.35,1.3-3.64,2.66-7.32,4-11,1.61-4.28,3.24-8.58,4.86-12.88,5-13.33,9.93-26.46,14.68-39.53s9.33-26.15,13.89-40c.75-2.31,1.5-4.63,2.28-7,4.34,12.89,9,27.41,13.76,42.77s9.66,31.55,14.54,48q2,6.51,3.92,13L239.13,128c2.39,8.28,4.76,16.47,7.07,24.49-1.3.38-4.06-1.83-3.92,1.13,1.22,11.65-1.4,12.4-4,13.16-1.31.37-2.39-8.32-2.9-5.17-2.39-8.32-7-22-5.94-13.3-.52,3.15,4,13.86,2.81,17.19s-4.72-1.64-5.89,1.7c.8,2.77,2.39,8.32,3.19,11.09-.52,3.14-4.73-1.64-3.93,1.13,1.08,8.69,4.92,19.59,8.1,30.67-1.31.37-1.82,3.53-4.07-1.83l-22.06-72.53L202,117.45l-1.39-4.56-.09-.29c0-.06,0,0,0,0v0l0-.06-.07-.1a2.74,2.74,0,0,0-.25-.34c-.29-.34-.46-.29-.53,0-.08.66,0,.9,0,.92l.07,0,0,0c0,.07.13-.35-.26.75l-1.65,4.52-6.59,18.06Q178,172.33,164.2,207.81c-4.61,10.6-4.18,1.54-3.12-7.29-.35,2.94-2.27,2.24-2.63,5.18-1.92-.7-3.12-7.29.21-18.36l-3,8.13c-1.63,2.47-1.92-.71-3.2-1.18,1-2.71,2-5.41,1.35-5.65l-2.56-.94-4,10.83c1-2.7,2-5.41,1.35-5.64l-2.56-.94c1.35-5.65,5.61-13.3,7-19l-1.92-.7c-2.63,5.18-5,13.54-7,19,.36-2.94-.28-3.18-1.56-3.65,2.34-8.35,7.24-15.77,8.3-24.59l-3,8.12C146.72,164.53,154.25,151.94,156.59,143.58Z"/><path d="M314.85,68.19c2.25,24-.68,53.31,1.37,77.54.59,6.3,1,12.71,1.41,19.19l.13,2.43c0,.07,0,.08,0,.07v0l0,0,.06.09.22.28a1.3,1.3,0,0,0,.34.27c-6.42-.48,19.87-.52,34.55-.54,0,1.36-2.42,3.4,0,4.08,9.69,2,9.7,4.76,9.7,7.48,0,1.36-7.27,0-4.84,1.37-7.27,0-19.39.71-12.12,2.06,2.43,1.36,12.12,0,14.54,2s-2.41,4.09,0,6.13H370c2.42,1.36-2.42,4.09,0,4.08,7.27,1.36,17,.66,26.65.65,0,1.36,2.44,2.72-2.41,3.4l-45.89.9-23.07.48-5.77.12-10.95.13-22.65.24q-.18-18.44-.35-36.91l-.3-20.67q-.27-20.67-.38-41.32c-.12-27.51.05-54.94.7-82.12.68-9.69,3.4-2.42,5.45,4.85-.68-2.42,1.36-2.42.68-4.85,2,0,5.45,4.85,6.13,14.55V27c.68-2.42,2,0,3.4,0,0,2.43,0,4.85.69,4.85h2.72V22.15c0,2.42,0,4.84.68,4.84H308c.68,4.85-.68,12.12,0,17h2c.68-4.85,0-12.12,0-17,.68,2.43,1.36,2.43,2.72,2.43.68,7.27-1.36,14.54.68,21.81V44C316.9,48.8,314.17,60.92,314.85,68.19Z"/></g><g id="re"><path d="M109.8,256.19h-2.41l-3-8a18.73,18.73,0,0,0-1-2.17,7.79,7.79,0,0,0-1.25-1.77,5.59,5.59,0,0,0-1.63-1.2,5,5,0,0,0-2.16-.44H87.86v13.57H85.67V226.12H99.2a20,20,0,0,1,3.67.34,9.07,9.07,0,0,1,3.16,1.23,6.27,6.27,0,0,1,2.21,2.43,8.37,8.37,0,0,1,.82,4,10.18,10.18,0,0,1-.37,2.82,7.3,7.3,0,0,1-1.12,2.33,6.81,6.81,0,0,1-1.93,1.76,8.23,8.23,0,0,1-2.73,1.06,10.64,10.64,0,0,1,1.4,1.26,7.39,7.39,0,0,1,1,1.29,11.12,11.12,0,0,1,.71,1.51c.21.55.46,1.18.73,1.9ZM87.86,240.43H98.3a19,19,0,0,0,3.81-.33,6.59,6.59,0,0,0,2.63-1.09,4.48,4.48,0,0,0,1.52-2,7.84,7.84,0,0,0,.5-3,5,5,0,0,0-2-4.43,10.48,10.48,0,0,0-5.86-1.33H87.86Z"/><path d="M124.66,256.74a10.31,10.31,0,0,1-4-.76,8.46,8.46,0,0,1-3.11-2.19,9.93,9.93,0,0,1-2-3.53,14.54,14.54,0,0,1-.72-4.75,14.76,14.76,0,0,1,.69-4.66,10.11,10.11,0,0,1,2-3.51,8.54,8.54,0,0,1,3-2.21,9.45,9.45,0,0,1,3.85-.77,9.72,9.72,0,0,1,3.92.77,8.31,8.31,0,0,1,3,2.21,10,10,0,0,1,1.89,3.51,15.47,15.47,0,0,1,.66,4.68v.5H117a12.52,12.52,0,0,0,.8,3.76,8.11,8.11,0,0,0,1.64,2.65,6.5,6.5,0,0,0,2.35,1.58,7.83,7.83,0,0,0,2.9.52,9.63,9.63,0,0,0,2.19-.26,7.07,7.07,0,0,0,2-.78,5.32,5.32,0,0,0,1.49-1.29,3.52,3.52,0,0,0,.72-1.76h2.17a7.52,7.52,0,0,1-1.08,2.68,7.38,7.38,0,0,1-1.89,2,8.38,8.38,0,0,1-2.55,1.23A11.18,11.18,0,0,1,124.66,256.74Zm6.84-12.91a9.12,9.12,0,0,0-2.49-5.46,6.7,6.7,0,0,0-4.76-1.81,7.6,7.6,0,0,0-2.61.43,6.25,6.25,0,0,0-2.16,1.35,7.47,7.47,0,0,0-1.59,2.28,11.44,11.44,0,0,0-.92,3.21Z"/><path d="M153.46,253.25a11.62,11.62,0,0,1-1.93,1.84,9.58,9.58,0,0,1-1.84,1.06,7.65,7.65,0,0,1-1.73.48,13.07,13.07,0,0,1-1.61.11,7.57,7.57,0,0,1-3.54-.8,7.21,7.21,0,0,1-2.58-2.24,10.17,10.17,0,0,1-1.58-3.47,17.59,17.59,0,0,1-.54-4.53,16.12,16.12,0,0,1,.65-4.74,11.06,11.06,0,0,1,1.78-3.57,7.89,7.89,0,0,1,2.69-2.25,7.36,7.36,0,0,1,3.34-.78c.51,0,1,0,1.56.08a9.32,9.32,0,0,1,1.65.34,9,9,0,0,1,1.77.79,10.5,10.5,0,0,1,1.91,1.4V226.12h2.2v30.07h-2.2Zm0-13.62a10.89,10.89,0,0,0-3.09-2.3,8,8,0,0,0-3.55-.77,6.15,6.15,0,0,0-2.68.56,5.37,5.37,0,0,0-2,1.7,8.51,8.51,0,0,0-1.31,2.86,15,15,0,0,0-.47,4q0,4.34,1.67,6.59a5.5,5.5,0,0,0,4.67,2.25,6.49,6.49,0,0,0,3.63-1.08,12.69,12.69,0,0,0,3.18-3.23Z"/><path d="M171.34,256.74a10.28,10.28,0,0,1-4-.76,8.58,8.58,0,0,1-3.12-2.19,9.91,9.91,0,0,1-2-3.53,14.54,14.54,0,0,1-.72-4.75,14.76,14.76,0,0,1,.69-4.66,10.11,10.11,0,0,1,2-3.51,8.54,8.54,0,0,1,3-2.21,9.42,9.42,0,0,1,3.85-.77,9.72,9.72,0,0,1,3.92.77,8.19,8.19,0,0,1,3,2.21,9.87,9.87,0,0,1,1.9,3.51,15.47,15.47,0,0,1,.66,4.68v.5H163.65a12.85,12.85,0,0,0,.79,3.76,8.13,8.13,0,0,0,1.65,2.65,6.5,6.5,0,0,0,2.35,1.58,7.83,7.83,0,0,0,2.9.52,9.63,9.63,0,0,0,2.19-.26,6.89,6.89,0,0,0,2-.78,5.23,5.23,0,0,0,1.5-1.29,3.42,3.42,0,0,0,.71-1.76h2.17a7.34,7.34,0,0,1-3,4.65,8.32,8.32,0,0,1-2.56,1.23A11.06,11.06,0,0,1,171.34,256.74Zm6.83-12.91a9.06,9.06,0,0,0-2.48-5.46,6.7,6.7,0,0,0-4.76-1.81,7.6,7.6,0,0,0-2.61.43,6.25,6.25,0,0,0-2.16,1.35,7.47,7.47,0,0,0-1.59,2.28,11.44,11.44,0,0,0-.92,3.21Z"/><path d="M193.19,256.74q-7.81,0-8.54-6.29h2.23a4.18,4.18,0,0,0,1.77,3,7.79,7.79,0,0,0,4.52,1.08,9.27,9.27,0,0,0,2.55-.31,6,6,0,0,0,1.83-.86,3.44,3.44,0,0,0,1.08-1.27,3.64,3.64,0,0,0,.36-1.6,3.38,3.38,0,0,0-.29-1.45,2.83,2.83,0,0,0-1-1.1,10.07,10.07,0,0,0-2.06-.95c-.87-.3-2-.62-3.34-1-1.15-.29-2.18-.6-3.08-.91a8.25,8.25,0,0,1-2.26-1.15,4.5,4.5,0,0,1-1.39-1.66,5.63,5.63,0,0,1-.46-2.43,4.83,4.83,0,0,1,.53-2.29,5.14,5.14,0,0,1,1.5-1.75,7.29,7.29,0,0,1,2.33-1.1,11.57,11.57,0,0,1,3-.38,10.51,10.51,0,0,1,5.75,1.28,4.93,4.93,0,0,1,2.18,4h-2.22a3,3,0,0,0-1.52-2.35,8,8,0,0,0-3.89-.75,10.25,10.25,0,0,0-2.22.22,5.9,5.9,0,0,0-1.75.64,3.35,3.35,0,0,0-1.14,1.07,2.71,2.71,0,0,0-.41,1.47,3,3,0,0,0,.17,1,2.38,2.38,0,0,0,.83,1,8.41,8.41,0,0,0,2,1.05,30.29,30.29,0,0,0,3.68,1.12,30.55,30.55,0,0,1,3.2,1,8.19,8.19,0,0,1,2.25,1.21,4.46,4.46,0,0,1,1.33,1.63,5.05,5.05,0,0,1,.44,2.2,6.11,6.11,0,0,1-.56,2.62,6,6,0,0,1-1.59,2.1,7.7,7.7,0,0,1-2.51,1.39A10.21,10.21,0,0,1,193.19,256.74Z"/><path d="M209.53,256.19h-2.2V234.91h2.2Zm0-26.64h-2.2v-3.43h2.2Z"/><path d="M232.87,254.93a14.9,14.9,0,0,1-.55,4.35,7.18,7.18,0,0,1-1.63,2.92,6.49,6.49,0,0,1-2.74,1.65,12.54,12.54,0,0,1-3.81.52,12.2,12.2,0,0,1-3.27-.4,7.67,7.67,0,0,1-2.5-1.14,5.23,5.23,0,0,1-1.63-1.84,5.76,5.76,0,0,1-.67-2.5h2.19a3.35,3.35,0,0,0,1.57,2.79,8,8,0,0,0,4.23.89,9.6,9.6,0,0,0,2.88-.39,4.68,4.68,0,0,0,2.06-1.31,6,6,0,0,0,1.25-2.39,13.56,13.56,0,0,0,.42-3.65v-1.34a13.8,13.8,0,0,1-2,2,8.62,8.62,0,0,1-1.83,1.09,6.07,6.07,0,0,1-1.69.47,14.42,14.42,0,0,1-1.58.1,7.6,7.6,0,0,1-3.54-.8,7.21,7.21,0,0,1-2.58-2.24,10.36,10.36,0,0,1-1.58-3.47,17.59,17.59,0,0,1-.54-4.53A16.12,16.12,0,0,1,216,241a11.06,11.06,0,0,1,1.78-3.57,7.83,7.83,0,0,1,2.7-2.25,7.28,7.28,0,0,1,3.33-.78,12.5,12.5,0,0,1,1.59.11,8.77,8.77,0,0,1,1.71.4,10.65,10.65,0,0,1,3.59,2v-2h2.2Zm-2.2-15.3a10.75,10.75,0,0,0-3.09-2.3,8,8,0,0,0-3.55-.77,6.15,6.15,0,0,0-2.68.56,5.34,5.34,0,0,0-2,1.7,8.33,8.33,0,0,0-1.32,2.86,15.41,15.41,0,0,0-.47,4q0,4.34,1.68,6.59a5.47,5.47,0,0,0,4.66,2.25,6.49,6.49,0,0,0,3.63-1.08,12.53,12.53,0,0,0,3.18-3.23Z"/><path d="M242.1,238.07a11.78,11.78,0,0,1,2.1-2,9,9,0,0,1,2-1.12,7.38,7.38,0,0,1,1.85-.49,16.37,16.37,0,0,1,1.65-.09q6.57,0,6.56,7.74v14.09h-2.19v-13.9a11.28,11.28,0,0,0-.26-2.56,4.39,4.39,0,0,0-.85-1.79,3.66,3.66,0,0,0-1.54-1,6.84,6.84,0,0,0-2.32-.34,6.67,6.67,0,0,0-3.56,1.07,15.11,15.11,0,0,0-3.44,3v15.54h-2.2V234.91h2.2Z"/><path d="M271.89,256.74a10.31,10.31,0,0,1-4-.76,8.46,8.46,0,0,1-3.11-2.19,9.93,9.93,0,0,1-2-3.53,14.54,14.54,0,0,1-.72-4.75,14.76,14.76,0,0,1,.69-4.66,10.11,10.11,0,0,1,1.95-3.51,8.54,8.54,0,0,1,3-2.21,9.45,9.45,0,0,1,3.85-.77,9.72,9.72,0,0,1,3.92.77,8.31,8.31,0,0,1,3,2.21,10,10,0,0,1,1.89,3.51,15.47,15.47,0,0,1,.66,4.68v.5H264.2a12.52,12.52,0,0,0,.8,3.76,8.11,8.11,0,0,0,1.64,2.65A6.5,6.5,0,0,0,269,254a7.83,7.83,0,0,0,2.9.52,9.63,9.63,0,0,0,2.19-.26,7.07,7.07,0,0,0,2-.78,5.32,5.32,0,0,0,1.49-1.29,3.52,3.52,0,0,0,.72-1.76h2.16a7.34,7.34,0,0,1-3,4.65,8.38,8.38,0,0,1-2.55,1.23A11.18,11.18,0,0,1,271.89,256.74Zm6.84-12.91a9.12,9.12,0,0,0-2.49-5.46,6.7,6.7,0,0,0-4.76-1.81,7.6,7.6,0,0,0-2.61.43,6.25,6.25,0,0,0-2.16,1.35,7.47,7.47,0,0,0-1.59,2.28,11.44,11.44,0,0,0-.92,3.21Z"/><path d="M300.69,253.25a11.62,11.62,0,0,1-1.93,1.84,9.58,9.58,0,0,1-1.84,1.06,7.65,7.65,0,0,1-1.73.48,13.07,13.07,0,0,1-1.61.11,7.57,7.57,0,0,1-3.54-.8,7.21,7.21,0,0,1-2.58-2.24,10.17,10.17,0,0,1-1.58-3.47,17.59,17.59,0,0,1-.54-4.53A16.12,16.12,0,0,1,286,241a11.06,11.06,0,0,1,1.78-3.57,7.89,7.89,0,0,1,2.69-2.25,7.36,7.36,0,0,1,3.34-.78c.51,0,1,0,1.56.08a9.32,9.32,0,0,1,1.65.34,9,9,0,0,1,1.77.79,10.5,10.5,0,0,1,1.91,1.4V226.12h2.2v30.07h-2.2Zm0-13.62a10.89,10.89,0,0,0-3.09-2.3,8,8,0,0,0-3.55-.77,6.15,6.15,0,0,0-2.68.56,5.37,5.37,0,0,0-2.05,1.7,8.51,8.51,0,0,0-1.31,2.86,15,15,0,0,0-.47,4q0,4.34,1.67,6.59a5.5,5.5,0,0,0,4.67,2.25,6.49,6.49,0,0,0,3.63-1.08,12.69,12.69,0,0,0,3.18-3.23Z"/></g></g></g></svg>