<svg xmlns="http://www.w3.org/2000/svg" viewBox="0 0 397.25 212.6"><g id="Layer_2" data-name="Layer 2"><g id="Layer_2-2" data-name="Layer 2"><g id="mal"><path d="M.9,107.49C.44,92.29.2,75.74.08,58.83S0,24.62.05,7.5l41.7,62.32Q46.9,77.4,52,84.89l4.59,6.73a18.91,18.91,0,0,0,1.39,1.92,11.86,11.86,0,0,0,2.33,2.37l.18.09c.68-1.56,1.11-2.7,1.39-3.56l.1-.3,0-.07V92h0l0-.06.73-1.1,3-4.54L77.3,69.49c15.62-22.66,32-46.1,48.38-69.49.08,23.92.15,47.81.23,71.45,0,17.72,0,35.27,0,52.49-1.36,0-3.4-4.29-4.09,0-2,17.12-4.76,17.12-7.49,17.12-1.36,0,0-12.84-1.36-8.56,0-12.85-.68-34.27-2-21.41-1.37,4.28,0,21.41-2,25.69s-4.09-4.28-6.13,0v17.13c-1.37,4.28-4.09-4.28-4.09,0-1.36,12.85-.68,30-.68,47.1-1.36,0-2.73,4.3-3.41-4.27q-.36-35.94-.73-72.18-.1-9.06-.2-18.13V105.3l0-.21,0-.39-.1-.7a8.5,8.5,0,0,0-.39-1.76,25.42,25.42,0,0,0-1.27,2.52,3.31,3.31,0,0,0-.13.36l-7.67,11L59.8,150.51,36.56,116.32l-5.06-7.45-.74-1.08c-.08-.13-.05-.08-.06-.09h0a.14.14,0,0,0,0,.07,1.74,1.74,0,0,0,.23.63,1,1,0,0,0,0-.41,1,1,0,0,0,0-.25l-.06,15.06q-.16,35.34-.64,70.43c-.68,17.13-3.4,4.28-5.44-8.57.68,4.28-1.37,4.28-.68,8.57-2,0-5.45-8.57-6.13-25.7v12.85c-.68,4.28-2,0-3.41,0,0-4.29,0-8.57-.68-8.57H11.12V189c0-4.28,0-8.56-.68-8.56H7.71c-.68-8.57.68-21.41,0-30h-2c-.68,8.58,0,21.42,0,30C5,176.1,4.31,176.1,2.94,176.1c-.68-12.85,1.37-25.7-.68-38.54V150.4C.56,146.12.39,138.63.56,130.6c.12-4,.24-8.16.36-12.11.06-2,.09-3.9.1-5.73,0-.91,0-1.81,0-2.67l0-1.28Z"/><path d="M156.59,143.58c1.93-6.9,4.31-14.06,6.9-21.35,1.3-3.64,2.66-7.32,4-11,1.61-4.28,3.24-8.58,4.86-12.88,5-13.33,9.93-26.46,14.68-39.53s9.33-26.15,13.89-40c.75-2.31,1.5-4.63,2.28-7,4.34,12.89,9,27.41,13.76,42.77s9.66,31.55,14.54,48q2,6.51,3.92,13L239.13,128c2.39,8.28,4.76,16.47,7.07,24.49-1.3.38-4.06-1.83-3.92,1.13,1.22,11.65-1.4,12.4-4,13.16-1.31.37-2.39-8.32-2.9-5.17-2.39-8.32-7-22-5.94-13.3-.52,3.15,4,13.86,2.81,17.19s-4.72-1.64-5.89,1.7c.8,2.77,2.39,8.32,3.19,11.09-.52,3.14-4.73-1.64-3.93,1.13,1.08,8.69,4.92,19.59,8.1,30.67-1.31.37-1.82,3.53-4.07-1.83l-22.06-72.53L202,117.45l-1.39-4.56-.09-.29c0-.06,0,0,0,0v0l0-.06-.07-.1a2.74,2.74,0,0,0-.25-.34c-.29-.34-.46-.29-.53,0-.08.66,0,.9,0,.92l.07,0,0,0c0,.07.13-.35-.26.75l-1.65,4.52-6.59,18.06Q178,172.33,164.2,207.81c-4.61,10.6-4.18,1.54-3.12-7.29-.35,2.94-2.27,2.24-2.63,5.18-1.92-.7-3.12-7.29.21-18.36l-3,8.13c-1.63,2.47-1.92-.71-3.2-1.18,1-2.71,2-5.41,1.35-5.65l-2.56-.94-4,10.83c1-2.7,2-5.41,1.35-5.64l-2.56-.94c1.35-5.65,5.61-13.3,7-19l-1.92-.7c-2.63,5.18-5,13.54-7,19,.36-2.94-.28-3.18-1.56-3.65,2.34-8.35,7.24-15.77,8.3-24.59l-3,8.12C146.72,164.53,154.25,151.94,156.59,143.58Z"/><path d="M314.85,68.19c2.25,24-.68,53.31,1.37,77.54.59,6.3,1,12.71,1.41,19.19l.13,2.43c0,.07,0,.08,0,.07v0l0,0,.06.09.22.28a1.3,1.3,0,0,0,.34.27c-6.42-.48,19.87-.52,34.55-.54,0,1.36-2.42,3.4,0,4.08,9.69,2,9.7,4.76,9.7,7.48,0,1.36-7.27,0-4.84,1.37-7.27,0-19.39.71-12.12,2.06,2.43,1.36,12.12,0,14.54,2s-2.41,4.09,0,6.13H370c2.42,1.36-2.42,4.09,0,4.08,7.27,1.36,17,.66,26.65.65,0,1.36,2.44,2.72-2.41,3.4l-45.89.9-23.07.48-5.77.12-10.95.13-22.65.24q-.18-18.44-.35-36.91l-.3-20.67q-.27-20.67-.38-41.32c-.12-27.51.05-54.94.7-82.12.68-9.69,3.4-2.42,5.45,4.85-.68-2.42,1.36-2.42.68-4.85,2,0,5.45,4.85,6.13,14.55V27c.68-2.42,2,0,3.4,0,0,2.43,0,4.85.69,4.85h2.72V22.15c0,2.42,0,4.84.68,4.84H308c.68,4.85-.68,12.12,0,17h2c.68-4.85,0-12.12,0-17,.68,2.43,1.36,2.43,2.72,2.43.68,7.27-1.36,14.54.68,21.81V44C316.9,48.8,314.17,60.92,314.85,68.19Z"/></g></g></g></svg>