<svg xmlns="http://www.w3.org/2000/svg" viewBox="0 0 128 128"><defs><style>.cls-1{fill:#2e3192;}.cls-2{fill:#fff;}.cls-3{fill:none;stroke:#fff;stroke-miterlimit:10;stroke-width:2px;}</style></defs><g id="Layer_2" data-name="Layer 2"><g id="Layer_2-2" data-name="Layer 2"><rect class="cls-1" width="128" height="128" rx="24.17"/><path class="cls-2" d="M13,45.05a2.34,2.34,0,0,1,2.25-2h5.89A2.91,2.91,0,0,1,23.71,45l6.05,19.35c.33,1.05.86,1.05,1.19,0L37,45a2.91,2.91,0,0,1,2.6-1.91h5.55a2.33,2.33,0,0,1,2.25,2l4.47,34.68a1.72,1.72,0,0,1-1.75,2H46.19a2.33,2.33,0,0,1-2.25-2L41,56.5c-.13-1.09-.51-1.13-.84-.08L32.86,79.8a2.81,2.81,0,0,1-2.48,1.91,2.85,2.85,0,0,1-2.5-1.9L20.36,56.18c-.33-1-.71-1-.84.08L16.77,79.73a2.31,2.31,0,0,1-2.23,2H10.47a1.73,1.73,0,0,1-1.76-2Z"/><path class="cls-3" d="M13,45.05a2.34,2.34,0,0,1,2.25-2h5.89A2.91,2.91,0,0,1,23.71,45l6.05,19.35c.33,1.05.86,1.05,1.19,0L37,45a2.91,2.91,0,0,1,2.6-1.91h5.55a2.33,2.33,0,0,1,2.25,2l4.47,34.68a1.72,1.72,0,0,1-1.75,2H46.19a2.33,2.33,0,0,1-2.25-2L41,56.5c-.13-1.09-.51-1.13-.84-.08L32.86,79.8a2.81,2.81,0,0,1-2.48,1.91,2.85,2.85,0,0,1-2.5-1.9L20.36,56.18c-.33-1-.71-1-.84.08L16.77,79.73a2.31,2.31,0,0,1-2.23,2H10.47a1.73,1.73,0,0,1-1.76-2Z"/><path class="cls-2" d="M70.86,44.92a3.2,3.2,0,0,1,2.74-1.86h2.46a3.22,3.22,0,0,1,2.75,1.85l14.24,35a1.25,1.25,0,0,1-1.25,1.85H87.42a3.2,3.2,0,0,1-2.75-1.85L83.08,76a3.2,3.2,0,0,0-2.75-1.85H69.49A3.19,3.19,0,0,0,66.75,76l-1.54,3.88a3.2,3.2,0,0,1-2.75,1.86H58.13a1.26,1.26,0,0,1-1.26-1.86Zm4.73,12.65c-.42-1-1.09-1-1.5,0L71,65.25a1.26,1.26,0,0,0,1.26,1.86h5.18a1.25,1.25,0,0,0,1.25-1.85Z"/><path class="cls-3" d="M70.86,44.92a3.2,3.2,0,0,1,2.74-1.86h2.46a3.22,3.22,0,0,1,2.75,1.85l14.24,35a1.25,1.25,0,0,1-1.25,1.85H87.42a3.2,3.2,0,0,1-2.75-1.85L83.08,76a3.2,3.2,0,0,0-2.75-1.85H69.49A3.19,3.19,0,0,0,66.75,76l-1.54,3.88a3.2,3.2,0,0,1-2.75,1.86H58.13a1.26,1.26,0,0,1-1.26-1.86Zm4.73,12.65c-.42-1-1.09-1-1.5,0L71,65.25a1.26,1.26,0,0,0,1.26,1.86h5.18a1.25,1.25,0,0,0,1.25-1.85Z"/><path class="cls-2" d="M99.84,45.06a2,2,0,0,1,2-2h4.27a2,2,0,0,1,2,2V71.38a2,2,0,0,0,2,2h7.39a2,2,0,0,1,2,2v4.33a2,2,0,0,1-2,2H101.84a2,2,0,0,1-2-2Z"/><path class="cls-3" d="M99.84,45.06a2,2,0,0,1,2-2h4.27a2,2,0,0,1,2,2V71.38a2,2,0,0,0,2,2h7.39a2,2,0,0,1,2,2v4.33a2,2,0,0,1-2,2H101.84a2,2,0,0,1-2-2Z"/></g></g></svg>